<svg xmlns="http://www.w3.org/2000/svg" viewBox="0 0 36.99 36.99"><defs><style>.cls-1{fill:#91c2ae;}.cls-2{fill:#222221;}</style></defs><g id="Calque_2" data-name="Calque 2"><g id="Calque_2-2" data-name="Calque 2"><rect class="cls-1" width="36.99" height="36.99" rx="18.08"/><path class="cls-2" d="M16.72,13.94c-.12,0-.29-.06-.42-.07a5.83,5.83,0,0,0-.84-.06,5.27,5.27,0,0,0-1.18.13c-.76.18-.95.52-1.16,1.25A2.89,2.89,0,0,1,14,15c1,0,1.43.7,1.43,1.61a4.88,4.88,0,0,1-4.19,4.18A1.61,1.61,0,0,1,9.59,19c0-.39.32-1.21.79-1.21.19,0,.31.17.47.25s.44.14.44.34a2.1,2.1,0,0,0-.26.75.4.4,0,0,0,.43.38,2.68,2.68,0,0,0,1.47-.76A3.79,3.79,0,0,0,14,16.56a.53.53,0,0,0-.57-.6,1.92,1.92,0,0,0-1.06.44c-.2.17-.34.4-.52.58-.17,0-.8-.52-.82-.69a6.38,6.38,0,0,0,1.26-3c0-.18,0-.24.08-.27s.1,0,.22,0a6.83,6.83,0,0,0,1.27-.19,13.43,13.43,0,0,1,2.43-.35c.24,0,.76,0,.76.35C17,13,16.9,13.94,16.72,13.94Z"/><path class="cls-2" d="M18.85,20.84A1.92,1.92,0,0,1,17,18.7a7.25,7.25,0,0,1,2.44-4.78A6,6,0,0,1,22,12.43a1.14,1.14,0,0,1,.75.42,1.18,1.18,0,0,1,.13.52c.08.58.62.62.62,1.51C23.48,16.88,21,20.84,18.85,20.84Zm3.14-7c-.55,0-1.57,1-1.92,1.41a6.85,6.85,0,0,0-1.6,3.37c0,.34.18.79.57.79.68,0,1.52-1,2.18-2.07a9.43,9.43,0,0,0,1.16-2.79C22.41,14.29,22.38,13.87,22,13.86Z"/><path class="cls-2" d="M27.74,20.37a2.41,2.41,0,0,1-1.4.54,1.27,1.27,0,0,1-.58-.13,2.71,2.71,0,0,1-1,.23,1.66,1.66,0,0,1-.73-.16,1,1,0,0,1-.59-1,1.29,1.29,0,0,1,.39-.87,14,14,0,0,0,1.95-2.73,2.45,2.45,0,0,0,.19-.4.63.63,0,0,1,.87-.44c.22.13.22.38.08.63a1.22,1.22,0,0,1-.29.33.56.56,0,0,0-.21.3c0,.21.09.32.2.48a2.33,2.33,0,0,1,.69,1.41,2.27,2.27,0,0,1-.41,1.29c0,.06,0,.09,0,.12s.07,0,.14,0a1.83,1.83,0,0,0,.65-.52,6.12,6.12,0,0,0,.76-1.21c.07-.18.63.11.5.47A3.77,3.77,0,0,1,27.74,20.37ZM26,18.5a1.92,1.92,0,0,0-.17-.88,5.88,5.88,0,0,1-1,1.42.57.57,0,0,1,.16.75.79.79,0,0,1-.88.48.59.59,0,0,0,.5.24c.7,0,1.14-.6,1.32-1.35A3.09,3.09,0,0,0,26,18.5Z"/></g></g></svg>