<svg xmlns="http://www.w3.org/2000/svg" viewBox="0 0 380 233.79"><defs><style>.cls-1{fill:#91c2ae;}.cls-2{fill:#e7ebb4;}.cls-3{fill:#707851;}.cls-4{fill:#e8bec1;}.cls-5{fill:#83935c;}</style></defs><g id="Calque_2" data-name="Calque 2"><g id="Calque_2-2" data-name="Calque 2"><rect class="cls-1" y="65.95" width="380" height="126.46"/><path class="cls-2" d="M68,185c.32.8.58,1.47.87,2.13.71,1.62,1.44,3.22,2.14,4.84.77,1.8,1.51,3.62,2.26,5.44.26.61.53,1.22.77,1.84a5.6,5.6,0,0,1,.28,1,.44.44,0,0,1-.29.56.87.87,0,0,1-.64-.13,2,2,0,0,1-.47-.71c-.71-1.64-1.39-3.3-2.1-4.94s-1.46-3.33-2.16-5c-.42-1-.78-2-1.25-3.17,0,.4,0,.6-.06.81,0,.63,0,1.27,0,1.91-.2,4.69-.14,9.39-.19,14.09,0,1.11-.2,2.23-.31,3.35a1,1,0,0,1-.06.34.4.4,0,0,1-.74.09,2.39,2.39,0,0,1-.27-1c0-1.22,0-2.44,0-3.65s0-2.16,0-3.23c.25-4.25.12-8.52.17-12.78v-1c-.4,0-.59.23-.81.44-1,.93-2,1.87-3,2.78-.64.58-1.33,1.1-2,1.68-.84.74-1.65,1.51-2.48,2.26a3,3,0,0,1-.54.42c-.38.21-.58.17-.83-.16a.37.37,0,0,1,0-.59c1.39-1.27,2.74-2.58,4.13-3.85,1.18-1.09,2.38-2.16,3.57-3.24.15-.13.28-.28.49-.5-.24,0-.37,0-.51,0-.58,0-1.16,0-1.74,0-4.61-.2-9.21-.15-13.82-.16h-.18c-.48,0-.66-.16-.67-.49s.31-.47.58-.54a4,4,0,0,1,.78,0h17c-.26-.63-.51-1.2-.74-1.78l-2.57-6.15c-.68-1.62-1.39-3.23-2.06-4.86a3.08,3.08,0,0,1-.13-1.1.44.44,0,0,1,.26-.35.46.46,0,0,1,.42.19c.3.53.58,1.07.83,1.62.82,1.85,1.62,3.69,2.42,5.54.52,1.22,1,2.44,1.62,3.65v-.75c0-1.3,0-2.61,0-3.91q.08-5.65.19-11.3a5.28,5.28,0,0,1,.26-1.35c0-.13.24-.31.35-.3a.51.51,0,0,1,.33.34,12.23,12.23,0,0,1,.25,1.7,13.62,13.62,0,0,1-.11,1.55,4.41,4.41,0,0,0,0,.52q0,7.53,0,15.06c0,.12,0,.23,0,.44.22-.19.39-.32.54-.46,1.26-1.2,2.51-2.4,3.78-3.59.62-.57,1.27-1.09,1.89-1.65.3-.27.57-.58.89-.82a9.35,9.35,0,0,1,1.36-.89.75.75,0,0,1,.61.15c.08.05,0,.38-.06.53a5.43,5.43,0,0,1-.94,1.11l-2.12,1.89c-1.59,1.42-3.15,2.89-4.73,4.34a4.49,4.49,0,0,1-.57.4l.11.19.55,0h1.39c4.58.06,9.16.11,13.74.19a2.42,2.42,0,0,1,1,.29.24.24,0,0,1,0,.43A2.55,2.55,0,0,1,84,185a6.13,6.13,0,0,1-1,0H68Z"/><path class="cls-3" d="M264,52.17c1.77,0,3.54-.05,5.3,0,5.57.18,11.14,0,16.7.21,3.8.12,7.6,0,11.39.14a12.07,12.07,0,0,1,1.95.34,1.55,1.55,0,0,1,.4.17.86.86,0,0,1,.54.82.85.85,0,0,1-.6.77A4,4,0,0,1,298,55H287.08l-17.15,0c-.52,0-1-.08-1.55-.11-.1,0-.2.07-.4.16.31.16.52.29.75.4l6.76,3.11,5.83,2.67a3,3,0,0,1,.54.27.71.71,0,0,1-.07,1.17,1.19,1.19,0,0,1-1.16.05Q278.3,61.62,276,60.6l-6.29-2.72c-.9-.4-1.78-.83-2.68-1.24-.68-.31-1.36-.63-2.05-.93a1.6,1.6,0,0,0-.43,0c.28.73.51,1.4.79,2,.84,1.94,1.7,3.86,2.54,5.8,1,2.23,1.89,4.47,2.84,6.7.78,1.8,1.58,3.6,2.35,5.4q2.15,5,4.27,10c1,2.29,1.9,4.59,2.83,6.9a3.37,3.37,0,0,1,.23,1.09.7.7,0,0,1-.68.75,2,2,0,0,1-1.68-.51,7,7,0,0,1-1.63-2.63c-.63-1.45-1.24-2.92-1.86-4.38-.73-1.73-1.45-3.46-2.19-5.18-.53-1.25-1.1-2.48-1.63-3.73-.4-.93-.75-1.87-1.14-2.81-.68-1.65-1.38-3.3-2.08-5l-2-4.71c-.82-1.94-1.63-3.88-2.49-5.93a3.15,3.15,0,0,0,0,.59q.27,2,.36,4c.05,1.29.22,2.58.33,3.87s.23,2.7.34,4l.36,4.31c.11,1.35.22,2.7.35,4,.15,1.66.34,3.32.49,5,.09.92.12,1.84.19,2.76.1,1.21.22,2.41.33,3.62a2.26,2.26,0,0,1,0,.26c.07,1.12.09,2.25.2,3.37.16,1.55.25,3.11.37,4.66s.22,3.22.35,4.83c.09,1.19.15,2.37.13,3.55a2.2,2.2,0,0,1-.68,1.8c-.56.47-1.15.46-1.52-.16a5.44,5.44,0,0,1-.58-1.53,9.81,9.81,0,0,1-.18-1.54c-.07-1.09-.11-2.19-.2-3.29s-.2-2-.31-3a1,1,0,0,1,0-.17c-.07-1.1-.11-2.2-.2-3.29s-.21-2.12-.31-3.18c-.07-.71-.14-1.43-.19-2.15-.07-1.13-.12-2.25-.2-3.37-.1-1.5-.23-3-.34-4.49s-.24-2.87-.35-4.31-.23-2.93-.35-4.39-.24-2.88-.35-4.31-.23-2.93-.35-4.4-.23-2.76-.35-4.14c-.07-.86-.16-1.72-.25-2.67-.32.78-.63,1.48-.91,2.2-1.24,3.26-2.46,6.53-3.72,9.79a5,5,0,0,1-1.11,2c-.51.47-.87.38-1.07-.28a1.18,1.18,0,0,1,0-.59c.23-.89.47-1.79.77-2.66.46-1.32,1-2.63,1.47-3.93.69-1.78,1.4-3.55,2.09-5.33.52-1.34,1-2.69,1.55-4a.9.9,0,0,0,0-.63c-.4.39-.82.77-1.22,1.17-.1.1-.15.25-.26.34l-4.26,3.67-.25.24c-1.72,1.6-3.42,3.2-5.15,4.78-1.56,1.42-3.15,2.8-4.72,4.21l-3.43,3.07c-.8.7-1.6,1.41-2.44,2.07a1.55,1.55,0,0,1-1.61.32,1,1,0,0,1-.58-1.4,2.63,2.63,0,0,1,.51-.69c.77-.73,1.56-1.45,2.34-2.17q2.39-2.22,4.78-4.43l4.34-4,3.77-3.44c1.54-1.4,3.06-2.82,4.6-4.23a6.72,6.72,0,0,0,1.06-1.07h-.85c-2.26,0-4.53.07-6.79,0-6.61-.29-13.23,0-19.83-.2-2.55-.08-5.1,0-7.65-.14a3.32,3.32,0,0,1-1.24-.3.74.74,0,0,1-.21-1.27,2.57,2.57,0,0,1,1.64-.7,47.53,47.53,0,0,1,5.47-.17h27.52c.7,0,1.4.1,2.11.06-.88-.42-1.76-.85-2.66-1.26-1.36-.61-2.74-1.19-4.1-1.8-2.14-1-4.27-1.94-6.39-2.94a8.49,8.49,0,0,1-1.16-.75.68.68,0,0,1-.21-.79c.07-.3.32-.36.6-.38a3.88,3.88,0,0,1,1.69.31c1,.42,2,.87,3,1.32l7,3.14,4.79,2.19a3.18,3.18,0,0,0-.1-.66c-.83-2-1.68-3.93-2.51-5.9s-1.63-3.95-2.47-5.92c-.36-.85-.78-1.67-1.15-2.52-.23-.52-.39-1.07-.6-1.59-1-2.37-2-4.75-3-7.12-.78-1.83-1.59-3.64-2.37-5.47-.67-1.57-1.3-3.15-2-4.72s-1.39-3.17-2.07-4.76c-.39-.9-.78-1.8-1.09-2.73a3.17,3.17,0,0,1-.1-1.37c.1-.8.77-1,1.39-.5a4.52,4.52,0,0,1,1.18,1.8c.53,1.22,1.06,2.44,1.58,3.66l2.13,4.93q1,2.22,1.94,4.44c.69,1.59,1.37,3.19,2.07,4.77s1.35,3.07,2,4.61,1.31,3.08,2,4.62c.47,1,1,2.08,1.43,3.14.31.71.58,1.44.95,2.14,0-.39,0-.79,0-1.19,0-.6-.1-1.2-.16-1.8-.1-1-.21-2-.31-3a2.11,2.11,0,0,1,0-.26c-.07-1.15-.11-2.31-.2-3.46-.07-1-.2-1.94-.31-2.92,0-.08,0-.17,0-.26-.06-1.18-.08-2.37-.2-3.54-.15-1.55-.25-3.11-.36-4.66s-.25-2.87-.35-4.31-.27-3-.33-4.48S256.13,9,256,7.4a49.57,49.57,0,0,1-.34-5.71A2.48,2.48,0,0,1,256,.38a.63.63,0,0,1,1.08-.13,1.62,1.62,0,0,1,.42.64,7.72,7.72,0,0,1,.42,2c0,.83.18,1.65.27,2.48,0,.09,0,.17.05.26.06,1,.11,2,.19,2.94s.21,1.88.32,2.83c.06.63.13,1.26.18,1.89.08.95.11,1.9.2,2.85s.22,2,.32,3c.07.6.13,1.2.18,1.81.07,1,.11,2,.2,3s.21,1.83.3,2.75c.08.68.14,1.37.19,2.06.08,1,.12,2,.2,2.94s.23,2.18.33,3.26c.07.87.11,1.73.19,2.59.1,1,.22,2.06.32,3.09.07.69.13,1.38.19,2.07.07,1,.11,2,.19,2.94s.21,2.16.33,3.41c1.54-4,3-7.71,4.47-11.48.4-1,.73-2.12,1.13-3.17a5.73,5.73,0,0,1,.49-.91.7.7,0,0,1,.88-.35.75.75,0,0,1,.52.8,6.67,6.67,0,0,1-.29,1.17c-.45,1.28-.92,2.55-1.39,3.82l-1.8,4.79c-.38,1-.76,2-1.13,3a5.44,5.44,0,0,0-.12.57l.75-.69,4.51-4,.19-.18c1.06-1,2.1-2,3.18-3,2-1.86,4.13-3.69,6.2-5.54.71-.63,1.39-1.31,2.12-1.91a9.21,9.21,0,0,1,2.06-1.57,3.37,3.37,0,0,1,.8-.25c.42-.06.86,0,1.05.41a1.25,1.25,0,0,1-.1,1.25,5.93,5.93,0,0,1-.7.87c-1.41,1.33-2.85,2.63-4.27,4-.65.61-1.27,1.26-1.92,1.87-.46.44-.95.85-1.43,1.27L275.92,41l-6,5.5c-.81.75-1.61,1.5-2.43,2.24q-1.61,1.45-3.23,2.89a2.9,2.9,0,0,1-.46.26Z"/><path class="cls-3" d="M279.61,71.58a2.17,2.17,0,0,1-2,1.83,1.84,1.84,0,0,1-1.75-1.78A2,2,0,0,1,278,69.77,1.81,1.81,0,0,1,279.61,71.58Z"/><path class="cls-3" d="M244.1,35.3a1.65,1.65,0,0,1-1.69-1.77A1.77,1.77,0,0,1,244,31.62a1.85,1.85,0,0,1,1.86,1.88C245.89,34.64,245.32,35.43,244.1,35.3Z"/><path class="cls-3" d="M274.38,48.71a1.42,1.42,0,0,1-1.51-1.51,1.33,1.33,0,0,1,1.36-1.46c.72-.09,1.59.82,1.61,1.61A1.37,1.37,0,0,1,274.38,48.71Z"/><path class="cls-3" d="M246.92,73.52a1.37,1.37,0,0,1,.9-1.32,1.53,1.53,0,0,1,1.8.66c.42.78.4,1.22-.1,1.72s-.79.75-1.43.47A1.63,1.63,0,0,1,246.92,73.52Z"/><path class="cls-4" d="M317.94,194.79l1.69-1.24,5.56-4.25c1.81-1.39,3.61-2.8,5.42-4.17a10.76,10.76,0,0,1,1.54-1,2.05,2.05,0,0,1,.92-.19.49.49,0,0,1,.49.71,1.93,1.93,0,0,1-.46.72c-.59.56-1.19,1.11-1.82,1.62s-1.59,1.22-2.4,1.83l-3.36,2.54-5,3.83-1.65,1.25c.87.08,1.56.13,2.23.21.86.09,1.72.21,2.57.31.63.07,1.26.14,1.9.19.86.07,1.72.11,2.58.2s1.83.21,2.75.32l1.72.17c.77.07,1.55.12,2.32.2.95.09,1.89.21,2.83.31.72.08,1.44.12,2.15.22a11.72,11.72,0,0,1,1.43.3.57.57,0,0,1,.46.57.55.55,0,0,1-.45.56,2.27,2.27,0,0,1-.67.13,19.86,19.86,0,0,1-3.53-.29l-.44,0c-1.72-.12-3.45-.22-5.17-.37s-3.72-.43-5.6-.53c-1.49-.09-3-.32-4.46-.48,0,0-.1,0-.21.08l4.58,2.55c1.16.65,2.3,1.32,3.45,2,0,0,.13,0,.15.08.09.2.27.45.22.59a.71.71,0,0,1-.55.33,1.42,1.42,0,0,1-.75-.19c-2.12-1.17-4.24-2.36-6.36-3.54l-2.9-1.59a26.2,26.2,0,0,0,1,3.43c.38,1.12.73,2.24,1.1,3.36s.72,2.19,1.09,3.28c.75,2.27,1.52,4.54,2.26,6.81q1,3,1.92,6.11a3.74,3.74,0,0,1,.11,1.11.64.64,0,0,1-1.09.52,2.2,2.2,0,0,1-.83-1.09q-1.32-4.08-2.65-8.16c-.59-1.81-1.21-3.61-1.8-5.42-.52-1.62-1-3.25-1.52-4.87a9.84,9.84,0,0,0-.83-2v.95c0,6.18.08,12.37,0,18.55-.06,3.18-.06,6.37-.15,9.56a12.82,12.82,0,0,1-.34,2.12,1.31,1.31,0,0,1-.25.55.47.47,0,0,1-.83-.05,3.88,3.88,0,0,1-.49-2c0-3.74,0-7.49,0-11.23,0-1.25,0-2.5,0-3.74q.07-8.4.16-16.79c0-.31,0-.62,0-1.07l-1.85,1.37c-.85.64-1.71,1.27-2.55,1.91l-3.92,3-2.42,1.82-4.07,3.08a.91.91,0,0,1-.37.21,1.21,1.21,0,0,1-1.12-.29,1,1,0,0,1,.4-1.13c.63-.51,1.28-1,1.91-1.49,1.32-1,2.63-2.08,3.95-3.1,1-.79,2.08-1.55,3.11-2.34s1.94-1.54,2.92-2.3l2.09-1.6c-.68-.09-1.29-.19-1.91-.25-1.52-.13-3.05-.23-4.57-.37s-3-.34-4.55-.49c-.83-.09-1.67-.12-2.5-.2s-1.71-.2-2.57-.3l-.35,0-3.52-.34c-.63-.06-1.26-.11-1.89-.19a2.05,2.05,0,0,1-.58-.18.52.52,0,0,1-.35-.54.53.53,0,0,1,.39-.52,2,2,0,0,1,.67-.16,12.25,12.25,0,0,1,3,.14,2.13,2.13,0,0,0,.44,0l4,.34c.89.07,1.78.11,2.67.19s1.83.2,2.75.31l.26,0c1.06.07,2.13.11,3.2.2.74.07,1.48.2,2.22.27a26.88,26.88,0,0,0,3.13.16c-.5-.29-1-.6-1.5-.88l-6-3.35a2.35,2.35,0,0,1-.7-.63c-.23-.32,0-.6.36-.64a2.78,2.78,0,0,1,1.7.57c1.82,1,3.63,2,5.44,3.06l2.1,1.21a5.12,5.12,0,0,0,.59.27c-.22-.73-.4-1.35-.6-2l-2.28-7q-1.26-3.9-2.5-7.82c-.55-1.73-1.1-3.47-1.67-5.19-.4-1.2-.85-2.39-1.25-3.59-.17-.52-.26-1.06-.39-1.59a.46.46,0,0,1,0-.26c.11-.23.18-.54.37-.64s.51.06.69.33a6.88,6.88,0,0,1,.87,1.68c1.4,4.26,2.83,8.5,4.25,12.74.54,1.62,1.11,3.22,1.66,4.83.26.79.49,1.59.83,2.38,0-.24,0-.47,0-.71,0-1.86-.07-3.72,0-5.57.29-5.88.07-11.75.16-17.63a4.63,4.63,0,0,1,.2-1.1.75.75,0,0,1,.66-.6c.22,0,.64.42.69.71a4.06,4.06,0,0,1,0,.7c0,2-.06,4,0,6,.31,7.69.05,15.37.14,23.06C317.92,194.38,317.93,194.5,317.94,194.79Z"/><path class="cls-4" d="M324.23,204.5a.61.61,0,0,1-.58-.7.72.72,0,0,1,.66-.66.7.7,0,0,1,.65.67A.74.74,0,0,1,324.23,204.5Z"/><path class="cls-4" d="M314,193.88c-.28,0-.71-.46-.71-.77a.77.77,0,0,1,.66-.58.88.88,0,0,1,.65.72A.72.72,0,0,1,314,193.88Z"/><path class="cls-4" d="M310.5,204.94a.69.69,0,0,1,.63.68c0,.41-.17.63-.52.64a.72.72,0,0,1-.71-.7A.66.66,0,0,1,310.5,204.94Z"/><path class="cls-4" d="M320.51,185.92c.28,0,.56.4.55.76a.65.65,0,0,1-.62.59.76.76,0,0,1-.62-.71A.75.75,0,0,1,320.51,185.92Z"/><path class="cls-3" d="M32.1,127.39l1.69-1.25,5.56-4.25c1.81-1.38,3.6-2.79,5.42-4.17a11,11,0,0,1,1.54-1,2,2,0,0,1,.91-.19.5.5,0,0,1,.5.71,2,2,0,0,1-.47.72c-.58.56-1.18,1.1-1.81,1.61s-1.6,1.23-2.4,1.84L39.68,124q-2.52,1.91-5,3.83L33,129.06l2.23.21,2.57.32,1.89.19c.86.07,1.73.11,2.59.19s1.83.22,2.74.33l1.72.17,2.33.19,2.83.32c.72.08,1.44.12,2.15.21a14,14,0,0,1,1.43.31.58.58,0,0,1,0,1.13,2.49,2.49,0,0,1-.67.13,20.93,20.93,0,0,1-3.53-.29l-.43,0c-1.73-.12-3.45-.22-5.18-.38s-3.72-.42-5.59-.53c-1.49-.08-3-.31-4.46-.48a1,1,0,0,0-.21.08c1.55.87,3.07,1.7,4.57,2.55l3.46,2s.13.05.15.09c.09.2.27.44.21.59a.72.72,0,0,1-.55.33,1.41,1.41,0,0,1-.74-.19c-2.13-1.17-4.25-2.36-6.37-3.54l-2.89-1.59a26.22,26.22,0,0,0,1,3.43c.38,1.11.74,2.24,1.1,3.36s.73,2.18,1.09,3.28c.76,2.27,1.53,4.53,2.26,6.81q1,3,1.92,6.11a3.44,3.44,0,0,1,.11,1.11.63.63,0,0,1-1.08.52,2.18,2.18,0,0,1-.83-1.1q-1.34-4.06-2.65-8.15c-.6-1.81-1.21-3.61-1.8-5.42-.52-1.62-1-3.25-1.52-4.87a9.84,9.84,0,0,0-.83-2v.95c0,6.18.08,12.36,0,18.54-.06,3.19-.07,6.38-.15,9.56a14.3,14.3,0,0,1-.34,2.13,1.44,1.44,0,0,1-.25.55.47.47,0,0,1-.84,0,4,4,0,0,1-.49-2c0-3.74,0-7.49,0-11.23,0-1.25,0-2.5,0-3.75q.07-8.38.16-16.78c0-.31,0-.62,0-1.07l-1.85,1.37-2.56,1.91-3.92,3-2.41,1.82-4.07,3.08a1.25,1.25,0,0,1-.37.21,1.2,1.2,0,0,1-1.12-.29,1,1,0,0,1,.4-1.13c.63-.51,1.28-1,1.91-1.49,1.32-1,2.62-2.08,3.95-3.1,1-.8,2.08-1.55,3.1-2.35s1.95-1.53,2.93-2.3l2.09-1.6c-.68-.08-1.3-.19-1.92-.24-1.52-.14-3-.23-4.57-.37s-3-.34-4.54-.5c-.84-.08-1.67-.11-2.5-.2s-1.72-.19-2.57-.29l-.35,0-3.52-.34-1.9-.19a2.36,2.36,0,0,1-.57-.18.57.57,0,0,1,0-1.06,1.93,1.93,0,0,1,.66-.16,12.3,12.3,0,0,1,3,.14,2.07,2.07,0,0,0,.43,0c1.32.11,2.64.23,4,.33.9.08,1.79.12,2.68.2s1.83.2,2.74.3l.26,0c1.07.07,2.14.11,3.2.2.75.06,1.48.2,2.23.27a26.88,26.88,0,0,0,3.13.16c-.5-.3-1-.6-1.5-.88-2-1.12-4-2.23-6-3.36a2.19,2.19,0,0,1-.7-.62c-.23-.32,0-.6.36-.64a2.83,2.83,0,0,1,1.71.56c1.82,1,3.62,2,5.43,3.07l2.11,1.21c.14.08.3.14.59.27-.23-.73-.41-1.35-.61-2-.75-2.34-1.52-4.67-2.27-7q-1.26-3.92-2.5-7.83c-.56-1.73-1.1-3.46-1.67-5.18-.4-1.21-.85-2.39-1.25-3.59-.17-.52-.27-1.06-.39-1.6a.43.43,0,0,1,0-.25c.1-.23.18-.54.36-.64s.52,0,.7.33a6.87,6.87,0,0,1,.87,1.68q2.1,6.38,4.25,12.74c.54,1.61,1.11,3.21,1.65,4.82.27.79.49,1.6.83,2.39,0-.24,0-.48,0-.71,0-1.86-.07-3.72,0-5.58.28-5.87.06-11.75.16-17.62a4.18,4.18,0,0,1,.2-1.1.74.74,0,0,1,.66-.6c.21,0,.64.41.69.71a5.25,5.25,0,0,1,0,.69c0,2-.06,4,0,6,.31,7.69.06,15.37.15,23.06C32.07,127,32.08,127.09,32.1,127.39Z"/><path class="cls-3" d="M38.38,137.1a.6.6,0,0,1-.57-.7.7.7,0,0,1,.66-.66.68.68,0,0,1,.64.67A.75.75,0,0,1,38.38,137.1Z"/><path class="cls-3" d="M28.15,126.48a1,1,0,0,1-.72-.77.76.76,0,0,1,.67-.58.87.87,0,0,1,.65.72A.72.72,0,0,1,28.15,126.48Z"/><path class="cls-3" d="M24.65,137.53a.71.71,0,0,1,.64.69c0,.4-.17.63-.52.64a.72.72,0,0,1-.72-.7A.68.68,0,0,1,24.65,137.53Z"/><path class="cls-3" d="M34.67,118.51c.27,0,.55.4.54.77a.63.63,0,0,1-.61.58.73.73,0,0,1-.62-.7A.75.75,0,0,1,34.67,118.51Z"/><path class="cls-2" d="M233.61,130.59c.91-1.15,1.72-2.16,2.52-3.18l2.94-3.74c.33-.44.65-.89,1-1.32.58-.76,1.17-1.51,1.75-2.25.09-.12.2-.28.31-.3a1.62,1.62,0,0,1,.82,0c.26.12.25.44.13.7a3.75,3.75,0,0,1-.4.77c-1.63,2.16-3.27,4.33-4.91,6.48-1,1.35-2.09,2.67-3.13,4-.12.16-.21.34-.36.58a2.41,2.41,0,0,0,.61,0q3.42-.94,6.82-1.92a1.63,1.63,0,0,1,1.59.2,1.21,1.21,0,0,1-1,.75c-1.08.31-2.16.61-3.24,1a6,6,0,0,0,.61,0h1.22l16.26.15a1.77,1.77,0,0,1,1.22.37c.28.26.28.5,0,.71a2.09,2.09,0,0,1-.71.29,14.78,14.78,0,0,1-2,.21H240.32c-.95,0-1.9-.1-2.85-.14a.91.91,0,0,0-.59.19c.22.09.44.2.67.27,1.7.55,3.41,1.07,5.1,1.64,2.29.78,4.58,1.59,6.86,2.41a2.06,2.06,0,0,1,.75.53.5.5,0,0,1,.05.71.69.69,0,0,1-.75.29c-.56-.15-1.11-.31-1.66-.49l-12-4-1.88-.63c.88,1.62,1.66,3.05,2.43,4.49.56,1,1.1,2.1,1.64,3.15,0,.07.12.16.11.23a1.12,1.12,0,0,1-.21.51.51.51,0,0,1-.46,0,1,1,0,0,1-.32-.39c-1.11-2-2.21-4-3.31-6a5.44,5.44,0,0,0-.33-.44c0,.35,0,.61,0,.88,0,4.47,0,8.94,0,13.41a10,10,0,0,1-.18,1.63c0,.36-.39.64-.65.57a.55.55,0,0,1-.47-.61c0-.34-.08-.68-.08-1q0-7.63,0-15.25v-1l-1.62,2.07-2,2.49c-.24.29-.48.58-.7.88-1,1.35-2,2.72-3.08,4.07-.37.48-.77.94-1.18,1.38a2.14,2.14,0,0,1-.7.5.46.46,0,0,1-.65-.52,2.85,2.85,0,0,1,.45-1.19c1.57-2,3.1-4,4.65-6,.87-1.12,1.75-2.22,2.62-3.34a3.88,3.88,0,0,0,.26-.49,7.12,7.12,0,0,0-.71.1l-6.34,1.7c-.09,0-.16.07-.25.09s-.59-.17-.61-.38a.46.46,0,0,1,.38-.5c.94-.27,1.88-.57,2.82-.85s2.15-.61,3.22-1c-.22,0-.44,0-.67,0-.95,0-1.91,0-2.87,0-4.78-.22-9.56-.15-14.35-.18-.83,0-1.67-.1-2.5-.16a1.4,1.4,0,0,1-.49-.15.44.44,0,0,1-.1-.77,1.94,1.94,0,0,1,.79-.3,4,4,0,0,1,.78,0h16.11a2.62,2.62,0,0,0,.87-.1l-1.94-.66-8-2.71c-.52-.17-1-.33-1.55-.53A3.67,3.67,0,0,1,214,128c-.15-.11-.34-.24-.23-.5s.26-.48.56-.45a4.46,4.46,0,0,1,1,.18c2.16.71,4.32,1.45,6.49,2.16l7.41,2.4,2.19.72c-.3-.52-.51-.88-.71-1.25L228,126.32a9,9,0,0,1-.51-1.09,1.47,1.47,0,0,1-.07-.59c0-.29.26-.41.49-.23a2.5,2.5,0,0,1,.62.68c1,1.79,2,3.59,3,5.39.1.17.21.33.4.63a4.41,4.41,0,0,0,.18-1c0-1.06-.09-2.12-.14-3.18a.49.49,0,0,0-.05-.16c-.56.52-1,.55-1.37.12a.87.87,0,0,1,0-1.17c.33-.28.82-.11,1.35.52,0-.27,0-.48,0-.68,0-1.08,0-2.15,0-3.23.05-2.72.1-5.44.17-8.16a2,2,0,0,1,.21-.92A.88.88,0,0,1,233,113c.26,0,.37.23.38.49s0,.46,0,.69c0,1.08,0,2.15,0,3.23.2,4.26.12,8.52.14,12.78C233.54,130.22,233.57,130.31,233.61,130.59Z"/><path class="cls-2" d="M241.19,127.81a1,1,0,0,1-.86-.91,1.11,1.11,0,0,1,.92-1.08,1.1,1.1,0,0,1,1,.91A1.21,1.21,0,0,1,241.19,127.81Z"/><path class="cls-2" d="M224.14,139.4a1,1,0,0,1-1,.95,1,1,0,0,1-.92-.95,1,1,0,0,1,1.93,0Z"/><path class="cls-2" d="M237.14,136.62a1,1,0,0,1,.93.87.76.76,0,0,1-.83.7.76.76,0,0,1-.75-.79A.75.75,0,0,1,237.14,136.62Z"/><path class="cls-5" d="M239.58,201.6l-4.74-1.11q-2.61-.62-5.2-1.28c-.81-.2-1.61-.41-2.42-.64a2.52,2.52,0,0,1-.77-.38.52.52,0,0,1-.13-.45.43.43,0,0,1,.32-.2,5.31,5.31,0,0,1,1.2.08c2.41.57,4.81,1.18,7.22,1.76l6.51,1.56c-.17-.4-.34-.77-.5-1.15l-1.83-4.21c-.42-1-.84-1.9-1.25-2.86a1.22,1.22,0,0,1-.15-.58.65.65,0,0,1,.29-.47.54.54,0,0,1,.48.22,18.22,18.22,0,0,1,.86,1.71q1.17,2.66,2.32,5.31c.12.26.26.51.46.91.15-.5.28-.89.38-1.28l2.13-8.64c0-.16.11-.33.16-.49s.24-.49.56-.39.35.37.29.65-.16.73-.24,1.09l-1.41,5.79c-.11.45-.1.44.38.64a1.61,1.61,0,0,1,.48.34c.06,0,.1.21.07.23-.26.19-.54.36-.81.54-.39-.35-.47-.07-.55.25a2.82,2.82,0,0,0-.26,1.61c.52-.55,1-1,1.45-1.54a17.92,17.92,0,0,1,1.6-1.66c.09-.08.31,0,.46,0a.9.9,0,0,1,0,.4,2.42,2.42,0,0,1-.38.58,9.25,9.25,0,0,0-1.47,1.88c-.78.2-.92,1-1.56,1.46.16.06.23.11.3.1.92,0,1.84-.09,2.75-.18,1.61-.16,3.22-.31,4.83-.36,1.12,0,2.24-.23,3.36-.31a1.48,1.48,0,0,1,.72.2c.23.13.2.33,0,.48a1,1,0,0,1-.38.18l-1.72.19-3.27.32c-.23,0-.46,0-.69,0-.88.07-1.76.14-2.65.29l2.92.73,7.71,1.92a1.14,1.14,0,0,1,.33.07c.23.14.49.29.41.6s-.38.25-.58.21c-.68-.1-1.36-.22-2-.38-2.77-.62-5.55-1.26-8.32-1.91-1-.23-2-.51-3-.76a4,4,0,0,0-.72-.06c.28.57.51,1,.71,1.48q1.33,3.06,2.65,6.12a3.3,3.3,0,0,1,.19.75c0,.23,0,.52-.24.57s-.37-.14-.48-.28a6.11,6.11,0,0,1-.61-1.05c-.66-1.44-1.29-2.9-1.93-4.36-.37-.83-.76-1.67-1.22-2.69-.17.54-.29.88-.37,1.23-.75,2.9-1.48,5.8-2.22,8.71,0,.22,0,.46-.11.68s-.13.53-.43.44a.74.74,0,0,1-.38-.5,1.83,1.83,0,0,1,0-.77q1-3.94,1.93-7.88c.12-.5.25-1,.4-1.57a4.59,4.59,0,0,0-.35.3c-.9,1-1.79,2-2.69,3.05a1.23,1.23,0,0,1-.38.34c-.13,0-.38.07-.45,0a.61.61,0,0,1,0-.48,1.71,1.71,0,0,1,.32-.4l2.82-3a3.72,3.72,0,0,0,.37-.57c-.05,0-.09-.09-.13-.09l-2.92.3-.26,0c-1.12.07-2.25.11-3.37.2-.92.07-1.83.19-2.74.29l-.17,0c-.42,0-.91-.27-.92-.52,0-.48.46-.44.73-.62a.61.61,0,0,1,.25-.06l2.67-.19c1.24-.1,2.47-.23,3.7-.31.58,0,1.16,0,1.73,0Z"/><path class="cls-5" d="M238.66,196.44c0,.42-.23.6-.66.58s-.6-.23-.57-.76a.55.55,0,0,1,.59-.57A.67.67,0,0,1,238.66,196.44Z"/><path class="cls-5" d="M247.39,207.64c-.34,0-.68-.28-.69-.53a.73.73,0,0,1,.81-.7.65.65,0,0,1,.55.74C248,207.49,247.8,207.67,247.39,207.64Z"/><path class="cls-5" d="M239,203.11a.58.58,0,0,1,.47.52c0,.24-.4.59-.61.5a1.1,1.1,0,0,1-.52-.5C238.26,203.43,238.71,203.09,239,203.11Z"/><path d="M146.2,166.53c-1.58-.36-3.17-.72-4.74-1.1l-5.2-1.28c-.81-.21-1.62-.42-2.42-.65a2.54,2.54,0,0,1-.78-.37.55.55,0,0,1-.12-.45c0-.09.21-.2.32-.2a5.35,5.35,0,0,1,1.2.08c2.41.57,4.81,1.17,7.21,1.75l6.51,1.56c-.17-.39-.33-.77-.5-1.14-.61-1.41-1.21-2.81-1.83-4.21-.41-1-.83-1.91-1.24-2.87a1.23,1.23,0,0,1-.16-.57.65.65,0,0,1,.3-.48.57.57,0,0,1,.48.23,17,17,0,0,1,.85,1.71c.79,1.76,1.55,3.53,2.33,5.3.12.27.26.52.45.92.16-.51.29-.89.39-1.28l2.13-8.64c0-.17.11-.33.15-.5s.25-.49.57-.38a.5.5,0,0,1,.29.65c-.07.36-.16.73-.25,1.09q-.69,2.9-1.4,5.79c-.11.45-.1.44.38.63a2,2,0,0,1,.48.34.33.33,0,0,1,.07.23c-.26.19-.54.37-.82.55-.38-.36-.46-.07-.54.25a2.88,2.88,0,0,0-.27,1.61c.53-.55,1-1,1.45-1.54a19.43,19.43,0,0,1,1.61-1.66c.08-.08.3,0,.46,0,0,.13.05.29,0,.4a3.53,3.53,0,0,1-.38.57,9,9,0,0,0-1.48,1.89c-.78.2-.91,1-1.55,1.46a1.44,1.44,0,0,0,.3.1c.91-.06,1.83-.09,2.75-.18,1.61-.16,3.21-.31,4.83-.37,1.12,0,2.23-.22,3.35-.3a1.33,1.33,0,0,1,.72.2c.24.12.21.33,0,.47a.79.79,0,0,1-.38.18c-.57.08-1.14.13-1.72.19l-3.26.33c-.23,0-.46,0-.7,0-.88.07-1.76.14-2.64.29l2.92.73,7.71,1.92a1.14,1.14,0,0,1,.33.08c.22.13.48.28.41.6s-.38.24-.58.21c-.69-.1-1.37-.23-2-.38-2.78-.63-5.55-1.26-8.33-1.91-1-.24-2-.52-3-.77a5.41,5.41,0,0,0-.71,0c.27.56.51,1,.71,1.47q1.33,3.06,2.65,6.13a2.67,2.67,0,0,1,.18.74c0,.23,0,.53-.24.58s-.37-.14-.47-.29a5.72,5.72,0,0,1-.62-1c-.65-1.45-1.28-2.91-1.93-4.36-.37-.84-.75-1.67-1.22-2.69-.16.53-.28.88-.37,1.23q-1.11,4.35-2.21,8.7c-.06.22,0,.47-.12.68s-.13.54-.42.45a.76.76,0,0,1-.38-.5,1.67,1.67,0,0,1,0-.77c.63-2.63,1.28-5.26,1.93-7.89.12-.49.24-1,.39-1.57a4,4,0,0,0-.34.31l-2.7,3.05a1.05,1.05,0,0,1-.37.33c-.13.06-.39.08-.45,0a.58.58,0,0,1,0-.47,1.11,1.11,0,0,1,.32-.4l2.81-3a3.22,3.22,0,0,0,.38-.58c-.05,0-.09-.09-.13-.08-1,.09-2,.2-2.92.3l-.26,0c-1.12.06-2.25.11-3.37.19-.92.08-1.83.2-2.75.3l-.17,0c-.42,0-.91-.27-.91-.52,0-.48.46-.44.72-.62a.44.44,0,0,1,.25-.06l2.68-.19c1.23-.1,2.46-.23,3.7-.32.57,0,1.15,0,1.73,0Z"/><path d="M145.28,161.38c0,.41-.23.6-.67.58s-.59-.24-.57-.77a.55.55,0,0,1,.6-.56A.67.67,0,0,1,145.28,161.38Z"/><path d="M154,172.58c-.34,0-.68-.29-.69-.53a.73.73,0,0,1,.81-.7.66.66,0,0,1,.55.74C154.66,172.43,154.42,172.6,154,172.58Z"/><path d="M145.64,168a.57.57,0,0,1,.46.53c0,.23-.4.59-.6.49a1,1,0,0,1-.52-.49C144.88,168.36,145.33,168,145.64,168Z"/><path d="M329.83,97l-4.27-1.92L323.12,94c-.55-.27-.86-.66-.69-.86s.71-.2,1.06-.15a3.72,3.72,0,0,1,.9.32l6.85,3.15.5.18c-.4-1-.74-1.82-1.09-2.66-.68-1.62-1.38-3.24-2.06-4.86-.6-1.41-1.19-2.82-1.79-4.24-.51-1.22-1-2.44-1.54-3.65-.64-1.52-1.3-3-1.94-4.54-.37-.88-.73-1.76-1.07-2.66a1.51,1.51,0,0,1-.08-.76A.45.45,0,0,1,323,73a3.83,3.83,0,0,1,.75,1c1,2.14,1.88,4.29,2.82,6.44.74,1.69,1.47,3.39,2.21,5.08.66,1.53,1.34,3,2,4.59.18.44.39.87.66,1.48-.07-.64-.13-1.09-.17-1.55l-.12-1.37c0-.09,0-.17,0-.26-.07-1-.12-1.9-.19-2.85-.1-1.23-.22-2.47-.33-3.7a2.26,2.26,0,0,1,0-.26c-.07-1.12-.12-2.25-.2-3.37-.1-1.47-.22-2.94-.34-4.4-.1-1.06-.26-2.12-.31-3.18a3.67,3.67,0,0,1,.3-1.33.44.44,0,0,1,.77-.09,2.29,2.29,0,0,1,.3.89q.28,2.4.51,4.8c.09,1,.12,1.91.2,2.85s.2,1.83.31,2.75l0,.34c.12,1.73.22,3.46.37,5.18.13,1.46.33,2.92.49,4.38.08.8.12,1.61.19,2.41s.13,1.79.2,2.68c0,0,.06.09.13.21.49-.4,1-.78,1.44-1.2,1.21-1.13,2.4-2.28,3.6-3.4,1.42-1.32,2.83-2.66,4.3-3.92a8.22,8.22,0,0,1,2.18-1.7,1.65,1.65,0,0,1,.39-.17c.22,0,.51,0,.64.06a.85.85,0,0,1,.14.62c-.05.5-.46.78-.77,1.11-.56.58-1.16,1.11-1.76,1.66l-4,3.68c-1.72,1.57-3.45,3.13-5.3,4.8h1c3.54,0,7.09-.08,10.63,0,2.46.09,4.92.09,7.38.14a2.16,2.16,0,0,1,.75.17c.17.06.43.24.42.34a.78.78,0,0,1-.34.54,5.07,5.07,0,0,1-1.15.34,4.06,4.06,0,0,1-.78,0H337.83c-.37,0-.74,0-1.23-.09.21.12.33.21.45.27l2.69,1.22,3.71,1.69a1.73,1.73,0,0,1,.54.28c.12.12.26.35.22.49a.62.62,0,0,1-.44.32,1.61,1.61,0,0,1-.67-.14c-.64-.25-1.29-.51-1.92-.79-1.22-.53-2.42-1.09-3.64-1.64l-2.21-1a6.49,6.49,0,0,0-.67-.2c.44,1,.84,2,1.25,2.91.63,1.46,1.27,2.91,1.9,4.36q1.57,3.66,3.14,7.32c.42,1,.81,2,1.22,3,.25.61.53,1.21.74,1.83a2.22,2.22,0,0,1,.11,1,.65.65,0,0,1-1.16.37,2,2,0,0,1-.5-.7c-.67-1.56-1.31-3.13-2-4.69-.77-1.8-1.58-3.59-2.34-5.39-.69-1.62-1.33-3.26-2-4.88-.37-.88-.75-1.75-1.2-2.62.05.39.12.77.16,1.16s0,.75.07,1.12.07.57.1.86l.33,3.61c0,.12,0,.23,0,.35.11,1.29.22,2.58.34,3.87V113c.07,1.13.12,2.25.2,3.38.1,1.55.23,3.1.34,4.65s.24,3.11.35,4.66c.06.81.14,1.61.16,2.42s-.26,1-.66,1.07-.75-.34-.9-.91a4.27,4.27,0,0,1-.17-.85c-.08-1.09-.12-2.19-.2-3.29s-.21-2-.32-3a2.26,2.26,0,0,1,0-.26c-.07-1.15-.11-2.31-.2-3.46-.08-1-.21-2-.31-2.92,0-.08,0-.17,0-.26-.06-1.12-.09-2.25-.2-3.37-.15-1.55-.29-3.1-.36-4.66-.05-1.29-.21-2.58-.32-3.87-.08-.89-.17-1.78-.26-2.72a1.19,1.19,0,0,0-.79.42c-1,.93-2,1.87-3,2.78-1.46,1.31-2.94,2.59-4.4,3.9-.71.63-1.41,1.28-2.12,1.92q-.82.77-1.68,1.5a1.23,1.23,0,0,1-.36.23c-.46.19-.77.13-1-.18s-.16-.56.16-.93.47-.42.71-.64l4.92-4.49.07-.06q2.53-2.37,5.09-4.72a4.87,4.87,0,0,1,.57-.41l-.11-.18c-.24,0-.49,0-.73,0-4.38,0-8.76,0-13.15,0-1.73,0-3.47-.1-5.2-.15a1,1,0,0,1-.42-.07c-.44-.26-.57-.49-.15-.87a2.32,2.32,0,0,1,1.54-.46c.78,0,1.57,0,2.35,0h15.55Z"/><path d="M328.08,111.92A1.09,1.09,0,0,1,327,113a1,1,0,0,1-1-1,1.1,1.1,0,0,1,1.09-1.11A.93.93,0,0,1,328.08,111.92Z"/><path d="M336.26,85.12A1,1,0,0,1,335.21,84a1.12,1.12,0,0,1,1-1,1.1,1.1,0,0,1,1.05,1A1.05,1.05,0,0,1,336.26,85.12Z"/><path d="M326.28,90.33a1,1,0,0,1,.89,1,.91.91,0,0,1-.92.75.93.93,0,0,1-.81-1A.75.75,0,0,1,326.28,90.33Z"/></g></g></svg>