<svg xmlns="http://www.w3.org/2000/svg" viewBox="0 0 349.06 233.79"><defs><style>.cls-1{fill:#e7ebb4;}.cls-2{fill:#707851;}.cls-3{fill:#e8bec1;}.cls-4{fill:#83935c;}</style></defs><g id="Calque_2" data-name="Calque 2"><g id="Calque_2-2" data-name="Calque 2"><path class="cls-1" d="M62.63,185c.33.8.58,1.47.87,2.13.71,1.62,1.44,3.22,2.14,4.84.77,1.8,1.51,3.62,2.26,5.44.26.61.53,1.22.77,1.84a6.63,6.63,0,0,1,.29,1,.45.45,0,0,1-.3.56.85.85,0,0,1-.63-.13,2.07,2.07,0,0,1-.48-.71c-.71-1.64-1.39-3.3-2.09-4.94s-1.46-3.33-2.17-5c-.41-1-.78-2-1.25-3.17,0,.4,0,.6,0,.81,0,.63,0,1.27,0,1.91-.2,4.69-.13,9.39-.19,14.09,0,1.11-.2,2.23-.31,3.35a1,1,0,0,1-.06.34.4.4,0,0,1-.74.09,2.39,2.39,0,0,1-.27-1c0-1.22,0-2.44,0-3.65s0-2.16,0-3.23c.25-4.25.12-8.52.17-12.78v-1c-.39,0-.59.23-.81.44-1,.93-2,1.87-3,2.78-.64.58-1.33,1.1-2,1.68-.84.74-1.65,1.51-2.47,2.26a2.77,2.77,0,0,1-.55.42c-.38.21-.58.17-.83-.16a.38.38,0,0,1,.06-.59c1.38-1.27,2.74-2.58,4.12-3.85,1.18-1.09,2.38-2.16,3.57-3.24.15-.13.28-.28.49-.5-.24,0-.37,0-.51,0-.58,0-1.16,0-1.74,0-4.6-.2-9.21-.15-13.82-.16H43c-.48,0-.66-.16-.67-.49s.31-.47.58-.54a4,4,0,0,1,.78,0H60.71c-.27-.63-.51-1.2-.75-1.78-.86-2.05-1.7-4.1-2.56-6.15-.69-1.62-1.4-3.23-2.06-4.86a2.87,2.87,0,0,1-.14-1.1.36.36,0,0,1,.68-.16,17.68,17.68,0,0,1,.83,1.62c.82,1.85,1.62,3.69,2.42,5.54.52,1.22,1,2.44,1.62,3.65v-.75c0-1.3,0-2.61,0-3.91q.08-5.65.19-11.3a5.75,5.75,0,0,1,.26-1.35c0-.13.24-.31.35-.3a.49.49,0,0,1,.33.34,10.89,10.89,0,0,1,.25,1.7,13.62,13.62,0,0,1-.11,1.55,4.43,4.43,0,0,0,0,.52q0,7.53,0,15.06c0,.12,0,.23,0,.44l.53-.46c1.27-1.2,2.52-2.4,3.79-3.59.61-.57,1.26-1.09,1.88-1.65.31-.27.57-.58.89-.82a9.35,9.35,0,0,1,1.36-.89.78.78,0,0,1,.62.15c.07.05,0,.38-.07.53a5.43,5.43,0,0,1-.94,1.11c-.7.63-1.41,1.25-2.11,1.89-1.6,1.42-3.16,2.89-4.74,4.34a4.39,4.39,0,0,1-.56.4l.11.19.54,0h1.39c4.58.06,9.16.11,13.74.19a2.52,2.52,0,0,1,1,.29.24.24,0,0,1,0,.43,2.46,2.46,0,0,1-.79.31,6,6,0,0,1-.95,0H62.63Z"/><path class="cls-2" d="M258.56,52.17c1.77,0,3.54-.05,5.31,0,5.56.18,11.13,0,16.69.21,3.8.12,7.6,0,11.39.14a11.88,11.88,0,0,1,1.95.34,1.55,1.55,0,0,1,.4.17.85.85,0,0,1,.54.82.84.84,0,0,1-.6.77,4,4,0,0,1-1.68.34H281.67l-17.15,0c-.52,0-1-.08-1.55-.11-.1,0-.2.07-.4.16.31.16.52.29.75.4l6.77,3.11,5.83,2.67a3.89,3.89,0,0,1,.54.27.71.71,0,0,1-.08,1.17,1.18,1.18,0,0,1-1.15.05q-2.33-1.05-4.67-2.07l-6.29-2.72c-.9-.4-1.78-.83-2.67-1.24-.69-.31-1.37-.63-2.06-.93a1.52,1.52,0,0,0-.43,0c.28.73.51,1.4.79,2,.84,1.94,1.7,3.86,2.54,5.8,1,2.23,1.89,4.47,2.84,6.7.78,1.8,1.58,3.6,2.35,5.4q2.14,5,4.27,10c1,2.29,1.9,4.59,2.83,6.9a3.37,3.37,0,0,1,.23,1.09.7.7,0,0,1-.68.75,2,2,0,0,1-1.68-.51A6.86,6.86,0,0,1,271,91.19c-.64-1.45-1.25-2.92-1.86-4.38-.74-1.73-1.46-3.46-2.2-5.18-.53-1.25-1.1-2.48-1.63-3.73-.4-.93-.75-1.87-1.13-2.81l-2.08-5q-1-2.36-2-4.71c-.82-1.94-1.63-3.88-2.49-5.93a4.34,4.34,0,0,0,0,.59q.27,2,.36,4c.05,1.29.22,2.58.33,3.87s.23,2.7.35,4,.23,2.87.35,4.31.22,2.7.35,4c.15,1.66.34,3.32.49,5,.09.92.12,1.84.2,2.76.09,1.21.21,2.41.32,3.62,0,.09,0,.17,0,.26.06,1.12.08,2.25.19,3.37.16,1.55.26,3.11.37,4.66s.23,3.22.35,4.83c.09,1.19.15,2.37.13,3.55a2.19,2.19,0,0,1-.67,1.8c-.56.47-1.16.46-1.53-.16a5.76,5.76,0,0,1-.58-1.53,9.81,9.81,0,0,1-.18-1.54c-.07-1.09-.11-2.19-.19-3.29s-.21-2-.32-3c0-.06,0-.11,0-.17-.07-1.1-.11-2.2-.2-3.29s-.21-2.12-.31-3.18c-.07-.71-.14-1.43-.19-2.15-.07-1.13-.11-2.25-.19-3.37-.11-1.5-.23-3-.35-4.49s-.23-2.87-.35-4.31-.23-2.93-.35-4.39-.23-2.88-.35-4.31-.23-2.93-.35-4.4-.23-2.76-.34-4.14c-.08-.86-.17-1.72-.26-2.67-.32.78-.63,1.48-.9,2.2-1.25,3.26-2.47,6.53-3.73,9.79a4.88,4.88,0,0,1-1.11,2c-.5.47-.87.38-1.07-.28a1.18,1.18,0,0,1,0-.59c.24-.89.47-1.79.77-2.66.46-1.32,1-2.63,1.47-3.93.69-1.78,1.4-3.55,2.09-5.33.53-1.34,1-2.69,1.55-4a.89.89,0,0,0,0-.63c-.41.39-.82.77-1.23,1.17-.1.1-.15.25-.26.34-1.41,1.23-2.84,2.45-4.26,3.67l-.25.24c-1.71,1.6-3.42,3.2-5.15,4.78-1.56,1.42-3.15,2.8-4.72,4.21l-3.42,3.07c-.8.7-1.61,1.41-2.44,2.07a1.55,1.55,0,0,1-1.61.32,1,1,0,0,1-.59-1.4,2.63,2.63,0,0,1,.51-.69c.77-.73,1.56-1.45,2.34-2.17q2.38-2.22,4.78-4.43l4.34-4,3.78-3.44,4.59-4.23a6.32,6.32,0,0,0,1.06-1.07h-.84c-2.27,0-4.54.07-6.8,0-6.61-.29-13.22,0-19.83-.2-2.55-.08-5.1,0-7.64-.14a3.32,3.32,0,0,1-1.25-.3.74.74,0,0,1-.21-1.27,2.59,2.59,0,0,1,1.64-.7,47.53,47.53,0,0,1,5.47-.17h27.52c.7,0,1.4.1,2.12.06-.89-.42-1.77-.85-2.67-1.26-1.36-.61-2.74-1.19-4.1-1.8-2.13-1-4.27-1.94-6.39-2.94a8.39,8.39,0,0,1-1.15-.75.69.69,0,0,1-.22-.79c.07-.3.32-.36.61-.38a3.91,3.91,0,0,1,1.69.31c1,.42,2,.87,3,1.32,2.33,1,4.64,2.09,7,3.14l4.79,2.19a3.18,3.18,0,0,0-.1-.66c-.83-2-1.68-3.93-2.51-5.9s-1.63-3.95-2.47-5.92c-.36-.85-.78-1.67-1.15-2.52-.22-.52-.38-1.07-.6-1.59-1-2.37-2-4.75-3-7.12-.78-1.83-1.59-3.64-2.37-5.47-.67-1.57-1.3-3.15-2-4.72s-1.4-3.17-2.08-4.76c-.38-.9-.78-1.8-1.09-2.73a3.33,3.33,0,0,1-.1-1.37c.11-.8.77-1,1.39-.5a4.52,4.52,0,0,1,1.18,1.8l1.59,3.66c.71,1.64,1.41,3.29,2.12,4.93l1.95,4.44c.69,1.59,1.37,3.19,2.06,4.77s1.35,3.07,2,4.61,1.31,3.08,2,4.62c.46,1,1,2.08,1.43,3.14.31.71.57,1.44.95,2.14,0-.39,0-.79,0-1.19,0-.6-.1-1.2-.16-1.8-.1-1-.21-2-.31-3a2.11,2.11,0,0,1,0-.26c-.06-1.15-.11-2.31-.2-3.46-.07-1-.2-1.94-.31-2.92a2.17,2.17,0,0,1,0-.26c-.07-1.18-.09-2.37-.2-3.54-.15-1.55-.26-3.11-.37-4.66s-.24-2.87-.34-4.31-.28-3-.34-4.48-.18-3.11-.35-4.66a49.57,49.57,0,0,1-.34-5.71A2.48,2.48,0,0,1,250.6.38a.63.63,0,0,1,1.08-.13,1.62,1.62,0,0,1,.42.64,7.72,7.72,0,0,1,.42,2c0,.83.18,1.65.28,2.48,0,.09,0,.17,0,.26.06,1,.11,2,.2,2.94s.2,1.88.31,2.83c.07.63.14,1.26.18,1.89.08.95.12,1.9.2,2.85s.22,2,.32,3c.07.6.14,1.2.18,1.81.07,1,.11,2,.2,3s.21,1.83.31,2.75c.07.68.14,1.37.19,2.06.07,1,.11,2,.19,2.94s.23,2.18.33,3.26c.07.87.12,1.73.19,2.59.1,1,.22,2.06.32,3.09.07.69.14,1.38.19,2.07.07,1,.11,2,.19,2.94s.21,2.16.33,3.41c1.54-4,3-7.71,4.47-11.48.4-1,.74-2.12,1.13-3.17a6.66,6.66,0,0,1,.49-.91.7.7,0,0,1,.88-.35.75.75,0,0,1,.52.8,5.89,5.89,0,0,1-.29,1.17c-.45,1.28-.92,2.55-1.39,3.82l-1.8,4.79-1.13,3c0,.12-.05.26-.12.57l.75-.69,4.52-4,.19-.18c1.05-1,2.09-2,3.17-3,2.05-1.86,4.13-3.69,6.2-5.54.71-.63,1.39-1.31,2.12-1.91a9.21,9.21,0,0,1,2.06-1.57,3.3,3.3,0,0,1,.81-.25c.41-.06.86,0,1,.41a1.25,1.25,0,0,1-.09,1.25,6.73,6.73,0,0,1-.71.87c-1.41,1.33-2.85,2.63-4.27,4-.65.61-1.27,1.26-1.92,1.87-.46.44-.95.85-1.42,1.27L270.51,41l-6,5.5c-.81.75-1.61,1.5-2.43,2.24q-1.6,1.45-3.23,2.89a3.3,3.3,0,0,1-.45.26Z"/><path class="cls-2" d="M274.2,71.58a2.17,2.17,0,0,1-2,1.83,1.84,1.84,0,0,1-1.75-1.78,2,2,0,0,1,2.11-1.86A1.81,1.81,0,0,1,274.2,71.58Z"/><path class="cls-2" d="M238.7,35.3a1.65,1.65,0,0,1-1.7-1.77,1.78,1.78,0,0,1,1.62-1.91,1.87,1.87,0,0,1,1.87,1.88C240.48,34.64,239.91,35.43,238.7,35.3Z"/><path class="cls-2" d="M269,48.71a1.42,1.42,0,0,1-1.51-1.51,1.33,1.33,0,0,1,1.36-1.46c.72-.09,1.59.82,1.62,1.61A1.38,1.38,0,0,1,269,48.71Z"/><path class="cls-2" d="M241.51,73.52a1.37,1.37,0,0,1,.9-1.32,1.52,1.52,0,0,1,1.8.66c.42.78.41,1.22-.09,1.72s-.8.75-1.44.47A1.65,1.65,0,0,1,241.51,73.52Z"/><path class="cls-3" d="M312.53,194.79l1.69-1.24,5.57-4.25c1.8-1.39,3.6-2.8,5.41-4.17a10.33,10.33,0,0,1,1.55-1,2,2,0,0,1,.91-.19.49.49,0,0,1,.49.71,1.93,1.93,0,0,1-.46.72c-.59.56-1.19,1.11-1.82,1.62-.78.63-1.59,1.22-2.39,1.83l-3.37,2.54q-2.5,1.92-5,3.83l-1.64,1.25c.87.08,1.55.13,2.23.21.85.09,1.71.21,2.57.31.63.07,1.26.14,1.89.19.86.07,1.73.11,2.59.2s1.82.21,2.74.32l1.72.17c.77.07,1.55.12,2.32.2.95.09,1.89.21,2.83.31.72.08,1.44.12,2.16.22a11.57,11.57,0,0,1,1.42.3.57.57,0,0,1,.46.57.55.55,0,0,1-.45.56,2.27,2.27,0,0,1-.67.13,19.86,19.86,0,0,1-3.53-.29l-.43,0c-1.73-.12-3.46-.22-5.18-.37-1.87-.17-3.72-.43-5.59-.53-1.5-.09-3-.32-4.47-.48,0,0-.09,0-.21.08l4.58,2.55c1.16.65,2.3,1.32,3.46,2,.05,0,.13,0,.14.08.09.2.28.45.22.59a.71.71,0,0,1-.55.33,1.39,1.39,0,0,1-.74-.19c-2.13-1.17-4.25-2.36-6.37-3.54l-2.9-1.59a26.2,26.2,0,0,0,1.05,3.43c.38,1.12.73,2.24,1.1,3.36l1.09,3.28c.75,2.27,1.52,4.54,2.26,6.81q1,3,1.92,6.11a3.44,3.44,0,0,1,.11,1.11.64.64,0,0,1-1.09.52,2.26,2.26,0,0,1-.83-1.09q-1.32-4.08-2.65-8.16c-.59-1.81-1.21-3.61-1.79-5.42-.52-1.62-1-3.25-1.52-4.87a11.13,11.13,0,0,0-.83-2v.95c0,6.18.08,12.37-.05,18.55-.06,3.18-.06,6.37-.15,9.56A12.82,12.82,0,0,1,312,233a1.42,1.42,0,0,1-.24.55.47.47,0,0,1-.84-.05,3.88,3.88,0,0,1-.49-2c0-3.74,0-7.49,0-11.23,0-1.25,0-2.5,0-3.74q.07-8.4.16-16.79c0-.31,0-.62,0-1.07l-1.84,1.37L306.15,202l-3.92,3-2.42,1.82-4.07,3.08a.91.91,0,0,1-.37.21,1.18,1.18,0,0,1-1.11-.29,1,1,0,0,1,.39-1.13c.63-.51,1.28-1,1.92-1.49,1.31-1,2.62-2.08,3.94-3.1,1-.79,2.08-1.55,3.11-2.34s1.95-1.54,2.92-2.3l2.09-1.6c-.68-.09-1.29-.19-1.91-.25-1.52-.13-3.05-.23-4.57-.37s-3-.34-4.55-.49c-.83-.09-1.67-.12-2.5-.2s-1.71-.2-2.57-.3l-.34,0-3.53-.34c-.63-.06-1.26-.11-1.89-.19a1.9,1.9,0,0,1-.57-.18.51.51,0,0,1-.36-.54.54.54,0,0,1,.39-.52,2,2,0,0,1,.67-.16,12.2,12.2,0,0,1,3,.14,2.13,2.13,0,0,0,.44,0l4,.34c.89.07,1.79.11,2.68.19s1.82.2,2.74.31l.26,0c1.06.07,2.13.11,3.2.2.74.07,1.48.2,2.22.27a27,27,0,0,0,3.13.16c-.5-.29-1-.6-1.5-.88l-6-3.35a2.35,2.35,0,0,1-.7-.63c-.23-.32,0-.6.36-.64a2.78,2.78,0,0,1,1.7.57c1.82,1,3.63,2,5.44,3.06l2.1,1.21a5.12,5.12,0,0,0,.59.27c-.22-.73-.4-1.35-.6-2-.75-2.33-1.52-4.66-2.27-7-.84-2.6-1.67-5.21-2.51-7.82-.55-1.73-1.1-3.47-1.67-5.19-.39-1.2-.85-2.39-1.24-3.59-.17-.52-.27-1.06-.4-1.59a.46.46,0,0,1,0-.26c.11-.23.18-.54.37-.64s.51.06.7.33a7.65,7.65,0,0,1,.87,1.68q2.1,6.39,4.24,12.74c.54,1.62,1.12,3.22,1.66,4.83.26.79.49,1.59.83,2.38,0-.24,0-.47,0-.71,0-1.86-.07-3.72,0-5.57.29-5.88.07-11.75.16-17.63a4.63,4.63,0,0,1,.2-1.1.75.75,0,0,1,.67-.6c.21,0,.63.42.68.71a4.06,4.06,0,0,1,0,.7c0,2-.06,4,0,6,.31,7.69.05,15.37.15,23.06C312.51,194.38,312.52,194.5,312.53,194.79Z"/><path class="cls-3" d="M318.82,204.5a.61.61,0,0,1-.58-.7.72.72,0,0,1,.66-.66.69.69,0,0,1,.65.67A.74.74,0,0,1,318.82,204.5Z"/><path class="cls-3" d="M308.58,193.88c-.28,0-.71-.46-.71-.77a.77.77,0,0,1,.66-.58.87.87,0,0,1,.65.72A.72.72,0,0,1,308.58,193.88Z"/><path class="cls-3" d="M305.09,204.94a.69.69,0,0,1,.63.68c0,.41-.17.63-.52.64a.72.72,0,0,1-.71-.7A.66.66,0,0,1,305.09,204.94Z"/><path class="cls-3" d="M315.1,185.92c.28,0,.56.4.55.76a.64.64,0,0,1-.61.59.76.76,0,0,1-.63-.71A.75.75,0,0,1,315.1,185.92Z"/><path class="cls-2" d="M26.69,127.39l1.69-1.25,5.56-4.25c1.81-1.38,3.6-2.79,5.42-4.17a11.65,11.65,0,0,1,1.54-1,2.05,2.05,0,0,1,.92-.19.49.49,0,0,1,.49.71,1.91,1.91,0,0,1-.47.72c-.58.56-1.18,1.1-1.81,1.61-.78.64-1.6,1.23-2.4,1.84L34.27,124q-2.52,1.91-5,3.83l-1.65,1.24,2.23.21,2.57.32,1.89.19c.87.07,1.73.11,2.59.19s1.83.22,2.75.33l1.71.17,2.33.19,2.83.32c.72.08,1.44.12,2.15.21a14,14,0,0,1,1.43.31.54.54,0,0,1,.45.56.55.55,0,0,1-.45.57,2.49,2.49,0,0,1-.67.13,21,21,0,0,1-3.53-.29l-.43,0c-1.72-.12-3.45-.22-5.18-.38s-3.72-.42-5.59-.53c-1.49-.08-3-.31-4.46-.48a1,1,0,0,0-.21.08l4.58,2.55,3.45,2c.05,0,.13.05.15.09.09.2.27.44.21.59a.72.72,0,0,1-.55.33,1.41,1.41,0,0,1-.74-.19c-2.13-1.17-4.24-2.36-6.37-3.54l-2.89-1.59a27.85,27.85,0,0,0,1,3.43c.38,1.11.74,2.24,1.11,3.36l1.08,3.28c.76,2.27,1.53,4.53,2.27,6.81.66,2,1.29,4.07,1.92,6.11a3.44,3.44,0,0,1,.1,1.11.63.63,0,0,1-1.08.52,2.18,2.18,0,0,1-.83-1.1q-1.32-4.06-2.65-8.15c-.6-1.81-1.21-3.61-1.8-5.42-.52-1.62-1-3.25-1.52-4.87a9.84,9.84,0,0,0-.83-2v.95c0,6.18.08,12.36,0,18.54-.06,3.19-.06,6.38-.15,9.56a14.3,14.3,0,0,1-.34,2.13,1.44,1.44,0,0,1-.25.55.47.47,0,0,1-.83,0,3.89,3.89,0,0,1-.5-2c0-3.74,0-7.49,0-11.23,0-1.25,0-2.5,0-3.75q.08-8.38.16-16.78c0-.31,0-.62,0-1.07l-1.85,1.37-2.56,1.91-3.92,3L14,139.38,9.9,142.46a1.14,1.14,0,0,1-.37.21,1.21,1.21,0,0,1-1.12-.29,1,1,0,0,1,.4-1.13c.63-.51,1.28-1,1.91-1.49,1.32-1,2.62-2.08,3.95-3.1,1-.8,2.08-1.55,3.11-2.35s1.94-1.53,2.92-2.3l2.09-1.6c-.68-.08-1.3-.19-1.91-.24-1.53-.14-3.05-.23-4.57-.37s-3-.34-4.55-.5c-.83-.08-1.67-.11-2.5-.2s-1.72-.19-2.57-.29l-.35,0-3.52-.34-1.89-.19a2.43,2.43,0,0,1-.58-.18.52.52,0,0,1-.35-.54A.53.53,0,0,1,.39,127a2,2,0,0,1,.66-.16,12.3,12.3,0,0,1,3,.14,2.07,2.07,0,0,0,.43,0l4,.33c.89.08,1.78.12,2.67.2s1.83.2,2.75.3l.25,0c1.07.07,2.14.11,3.2.2.75.06,1.49.2,2.23.27a26.88,26.88,0,0,0,3.13.16c-.5-.3-1-.6-1.5-.88-2-1.12-4-2.23-6-3.36a2.3,2.3,0,0,1-.7-.62c-.23-.32,0-.6.37-.64a2.82,2.82,0,0,1,1.7.56c1.82,1,3.63,2,5.44,3.07l2.1,1.21c.15.08.31.14.59.27-.23-.73-.41-1.35-.6-2l-2.28-7q-1.26-3.92-2.5-7.83c-.56-1.73-1.1-3.46-1.67-5.18-.4-1.21-.85-2.39-1.25-3.59-.17-.52-.27-1.06-.39-1.6a.43.43,0,0,1,0-.25c.1-.23.18-.54.36-.64s.52,0,.7.33a6.87,6.87,0,0,1,.87,1.68q2.1,6.38,4.25,12.74c.54,1.61,1.11,3.21,1.65,4.82.27.79.49,1.6.84,2.39,0-.24,0-.48,0-.71,0-1.86-.07-3.72,0-5.58.28-5.87.06-11.75.16-17.62a4.63,4.63,0,0,1,.2-1.1.74.74,0,0,1,.66-.6c.21,0,.64.41.69.71a3.94,3.94,0,0,1,0,.69c0,2-.06,4,0,6,.31,7.69.05,15.37.14,23.06C26.66,127,26.67,127.09,26.69,127.39Z"/><path class="cls-2" d="M33,137.1a.6.6,0,0,1-.58-.7.66.66,0,1,1,1.31,0A.76.76,0,0,1,33,137.1Z"/><path class="cls-2" d="M22.74,126.48a1,1,0,0,1-.72-.77.77.77,0,0,1,.67-.58.86.86,0,0,1,.65.72A.72.72,0,0,1,22.74,126.48Z"/><path class="cls-2" d="M19.24,137.53a.71.71,0,0,1,.64.69c0,.4-.17.63-.52.64a.73.73,0,0,1-.72-.7A.69.69,0,0,1,19.24,137.53Z"/><path class="cls-2" d="M29.26,118.51c.28,0,.56.4.55.77a.65.65,0,0,1-.62.58.68.68,0,0,1,.07-1.35Z"/><path class="cls-1" d="M228.2,130.59c.91-1.15,1.72-2.16,2.52-3.18l2.94-3.74c.33-.44.65-.89,1-1.32.58-.76,1.17-1.51,1.76-2.25.08-.12.19-.28.3-.3a1.62,1.62,0,0,1,.82,0c.26.12.25.44.14.7a4.37,4.37,0,0,1-.41.77c-1.63,2.16-3.26,4.33-4.91,6.48-1,1.35-2.09,2.67-3.13,4-.12.16-.21.34-.36.58a2.49,2.49,0,0,0,.62,0q3.41-.94,6.81-1.92a1.63,1.63,0,0,1,1.59.2c-.15.49-.56.63-1,.75-1.08.31-2.16.61-3.24,1,.2,0,.41,0,.61,0h1.22l16.26.15A1.77,1.77,0,0,1,253,133c.28.26.28.5,0,.71a2,2,0,0,1-.71.29,14.78,14.78,0,0,1-2,.21H234.92c-1,0-1.91-.1-2.86-.14a.93.93,0,0,0-.59.19c.22.09.44.2.67.27,1.7.55,3.41,1.07,5.1,1.64,2.3.78,4.58,1.59,6.86,2.41a2.06,2.06,0,0,1,.75.53.51.51,0,0,1,.06.71.69.69,0,0,1-.76.29c-.56-.15-1.11-.31-1.66-.49l-12-4-1.88-.63c.88,1.62,1.66,3.05,2.43,4.49.56,1,1.1,2.1,1.64,3.15,0,.07.12.16.11.23a1,1,0,0,1-.21.51c-.08.07-.33,0-.46,0a1,1,0,0,1-.32-.39c-1.11-2-2.21-4-3.31-6a5.44,5.44,0,0,0-.33-.44c0,.35,0,.61,0,.88,0,4.47,0,8.94,0,13.41a12.9,12.9,0,0,1-.18,1.63c-.06.36-.4.64-.65.57a.53.53,0,0,1-.47-.61c0-.34-.09-.68-.09-1q0-7.63,0-15.25v-1l-1.61,2.07-2,2.49c-.24.29-.48.58-.7.88-1,1.35-2.05,2.72-3.08,4.07-.37.48-.77.94-1.18,1.38a2.14,2.14,0,0,1-.7.5.46.46,0,0,1-.65-.52,3,3,0,0,1,.45-1.19c1.57-2,3.1-4,4.66-6,.86-1.12,1.74-2.22,2.61-3.34a2.9,2.9,0,0,0,.26-.49,7.12,7.12,0,0,0-.71.1l-6.34,1.7c-.09,0-.16.07-.25.09s-.59-.17-.61-.38a.47.47,0,0,1,.38-.5c.95-.27,1.88-.57,2.82-.85s2.16-.61,3.22-1l-.66,0c-1,0-1.92,0-2.88,0-4.78-.22-9.56-.15-14.35-.18-.83,0-1.67-.1-2.5-.16a1.4,1.4,0,0,1-.49-.15.44.44,0,0,1-.1-.77,2,2,0,0,1,.79-.3,4,4,0,0,1,.78,0H220a2.68,2.68,0,0,0,.88-.1l-2-.66L211,129c-.52-.17-1-.33-1.55-.53a3.89,3.89,0,0,1-.83-.44c-.15-.11-.34-.24-.23-.5s.26-.48.56-.45a4.36,4.36,0,0,1,1,.18c2.17.71,4.32,1.45,6.49,2.16l7.41,2.4,2.19.72-.71-1.25-2.73-4.92a9,9,0,0,1-.51-1.09,1.31,1.31,0,0,1-.06-.59c0-.29.25-.41.48-.23a2.35,2.35,0,0,1,.62.68c1,1.79,2,3.59,3,5.39.1.17.21.33.41.63a6,6,0,0,0,.18-1c0-1.06-.1-2.12-.15-3.18a.94.94,0,0,0,0-.16c-.56.52-1,.55-1.38.12a.87.87,0,0,1,0-1.17c.34-.28.82-.11,1.35.52,0-.27,0-.48,0-.68,0-1.08,0-2.15,0-3.23.05-2.72.1-5.44.17-8.16a2,2,0,0,1,.22-.92.84.84,0,0,1,.63-.33c.26,0,.37.23.38.49s0,.46,0,.69c0,1.08,0,2.15,0,3.23.2,4.26.13,8.52.15,12.78C228.14,130.22,228.16,130.31,228.2,130.59Z"/><path class="cls-1" d="M235.78,127.81a1,1,0,0,1-.86-.91,1.12,1.12,0,0,1,.92-1.08,1.1,1.1,0,0,1,1,.91A1.21,1.21,0,0,1,235.78,127.81Z"/><path class="cls-1" d="M218.73,139.4a1,1,0,0,1-1.92,0,1,1,0,0,1,1.92,0Z"/><path class="cls-1" d="M231.73,136.62a1,1,0,0,1,.93.87.76.76,0,0,1-.83.7.76.76,0,0,1-.75-.79A.75.75,0,0,1,231.73,136.62Z"/><path class="cls-4" d="M234.18,201.6c-1.59-.37-3.17-.73-4.75-1.11q-2.6-.62-5.19-1.28c-.81-.2-1.62-.41-2.42-.64a2.46,2.46,0,0,1-.78-.38.56.56,0,0,1-.13-.45.43.43,0,0,1,.32-.2,5.4,5.4,0,0,1,1.21.08c2.4.57,4.81,1.18,7.21,1.76l6.51,1.56c-.17-.4-.34-.77-.5-1.15l-1.83-4.21c-.41-1-.84-1.9-1.24-2.86a1.24,1.24,0,0,1-.16-.58.65.65,0,0,1,.29-.47.54.54,0,0,1,.48.22,18.22,18.22,0,0,1,.86,1.71l2.33,5.31c.11.26.25.51.45.91.15-.5.29-.89.38-1.28.72-2.88,1.42-5.76,2.13-8.64,0-.16.11-.33.16-.49s.25-.49.56-.39.35.37.3.65-.16.73-.25,1.09l-1.41,5.79c-.1.45-.1.44.38.64a1.8,1.8,0,0,1,.49.34.32.32,0,0,1,.07.23c-.27.19-.55.36-.82.54-.39-.35-.46-.07-.55.25a2.82,2.82,0,0,0-.26,1.61c.52-.55,1-1,1.45-1.54a18,18,0,0,1,1.61-1.66c.08-.08.3,0,.46,0a1.06,1.06,0,0,1,0,.4,2.72,2.72,0,0,1-.37.58,9,9,0,0,0-1.48,1.88c-.78.2-.91,1-1.55,1.46.15.06.22.11.29.1.92,0,1.84-.09,2.75-.18,1.61-.16,3.22-.31,4.84-.36,1.11,0,2.23-.23,3.35-.31a1.48,1.48,0,0,1,.72.2c.24.13.2.33,0,.48a1,1,0,0,1-.38.18l-1.72.19-3.26.32c-.24,0-.47,0-.7,0-.88.07-1.76.14-2.65.29l2.92.73,7.71,1.92a1.28,1.28,0,0,1,.34.07c.22.14.48.29.4.6s-.37.25-.58.21c-.68-.1-1.36-.22-2-.38q-4.17-.93-8.33-1.91c-1-.23-2-.51-3-.76a3.93,3.93,0,0,0-.72-.06c.28.57.51,1,.72,1.48.88,2,1.77,4.08,2.64,6.12a2.85,2.85,0,0,1,.19.75c0,.23,0,.52-.24.57s-.37-.14-.47-.28a6.16,6.16,0,0,1-.62-1.05c-.65-1.44-1.28-2.9-1.93-4.36-.37-.83-.76-1.67-1.22-2.69-.16.54-.28.88-.37,1.23q-1.11,4.35-2.21,8.71c-.06.22,0,.46-.12.68s-.13.53-.42.44a.69.69,0,0,1-.38-.5,1.67,1.67,0,0,1,0-.77c.64-2.63,1.29-5.26,1.93-7.88.12-.5.25-1,.4-1.57-.15.13-.26.21-.35.3-.9,1-1.79,2-2.69,3.05a1.23,1.23,0,0,1-.38.34c-.13,0-.38.07-.44,0a.57.57,0,0,1,0-.48,1.53,1.53,0,0,1,.33-.4c.93-1,1.88-2,2.81-3a4.71,4.71,0,0,0,.38-.57s-.1-.09-.14-.09l-2.91.3-.26,0c-1.13.07-2.25.11-3.38.2-.91.07-1.83.19-2.74.29l-.17,0c-.42,0-.91-.27-.92-.52,0-.48.46-.44.73-.62a.66.66,0,0,1,.25-.06l2.67-.19c1.24-.1,2.47-.23,3.71-.31.57,0,1.15,0,1.73,0Z"/><path class="cls-4" d="M233.25,196.44c0,.42-.22.6-.66.58s-.59-.23-.57-.76a.55.55,0,0,1,.59-.57A.67.67,0,0,1,233.25,196.44Z"/><path class="cls-4" d="M242,207.64c-.33,0-.68-.28-.68-.53a.72.72,0,0,1,.8-.7.65.65,0,0,1,.55.74C242.63,207.49,242.39,207.67,242,207.64Z"/><path class="cls-4" d="M233.61,203.11a.58.58,0,0,1,.47.52c0,.24-.4.59-.61.5a1.1,1.1,0,0,1-.52-.5C232.86,203.43,233.31,203.09,233.61,203.11Z"/><path d="M140.79,166.53c-1.58-.36-3.16-.72-4.74-1.1l-5.2-1.28c-.81-.21-1.62-.42-2.42-.65a2.54,2.54,0,0,1-.78-.37.55.55,0,0,1-.12-.45c0-.09.21-.2.32-.2a5.31,5.31,0,0,1,1.2.08c2.41.57,4.81,1.17,7.22,1.75l6.5,1.56-.49-1.14-1.83-4.21c-.42-1-.84-1.91-1.25-2.87a1.23,1.23,0,0,1-.16-.57.65.65,0,0,1,.3-.48.56.56,0,0,1,.48.23,17.08,17.08,0,0,1,.86,1.71q1.17,2.64,2.32,5.3c.12.27.26.52.46.92.15-.51.28-.89.38-1.28l2.13-8.64c0-.17.11-.33.16-.5s.24-.49.56-.38a.5.5,0,0,1,.29.65c-.07.36-.16.73-.24,1.09l-1.41,5.79c-.11.45-.1.44.38.63a2,2,0,0,1,.48.34.29.29,0,0,1,.07.23c-.26.19-.54.37-.82.55-.38-.36-.46-.07-.54.25a2.8,2.8,0,0,0-.26,1.61c.52-.55,1-1,1.45-1.54a17.92,17.92,0,0,1,1.6-1.66c.09-.08.31,0,.46,0,0,.13,0,.29,0,.4a3,3,0,0,1-.38.57,9.73,9.73,0,0,0-1.48,1.89c-.77.2-.91,1-1.55,1.46a1.66,1.66,0,0,0,.3.1c.92-.06,1.84-.09,2.75-.18,1.61-.16,3.21-.31,4.83-.37,1.12,0,2.23-.22,3.35-.3a1.39,1.39,0,0,1,.73.2c.23.12.2.33,0,.47a.87.87,0,0,1-.39.18c-.57.08-1.14.13-1.71.19l-3.27.33c-.23,0-.46,0-.69,0-.88.07-1.76.14-2.65.29l2.92.73,7.71,1.92a1.14,1.14,0,0,1,.33.08c.22.13.48.28.41.6s-.38.24-.58.21c-.68-.1-1.37-.23-2-.38-2.78-.63-5.55-1.26-8.32-1.91-1-.24-2-.52-3-.77a5.41,5.41,0,0,0-.71,0c.27.56.51,1,.71,1.47q1.34,3.06,2.65,6.13a2.67,2.67,0,0,1,.18.74c0,.23,0,.53-.24.58s-.37-.14-.47-.29a5.67,5.67,0,0,1-.61-1c-.66-1.45-1.29-2.91-1.93-4.36l-1.22-2.69c-.17.53-.29.88-.38,1.23q-1.11,4.35-2.21,8.7a5.09,5.09,0,0,1-.12.68c-.07.2-.12.54-.42.45a.79.79,0,0,1-.38-.5,1.67,1.67,0,0,1,0-.77c.63-2.63,1.28-5.26,1.93-7.89.12-.49.25-1,.39-1.57-.15.14-.25.21-.34.31-.9,1-1.79,2-2.69,3.05a1.08,1.08,0,0,1-.38.33c-.13.06-.39.08-.45,0a.58.58,0,0,1,0-.47,1.11,1.11,0,0,1,.32-.4l2.81-3a3.22,3.22,0,0,0,.38-.58c-.05,0-.09-.09-.13-.08l-2.92.3-.26,0c-1.12.06-2.25.11-3.37.19-.92.08-1.83.2-2.74.3l-.18,0c-.41,0-.9-.27-.91-.52,0-.48.46-.44.73-.62a.39.39,0,0,1,.24-.06l2.68-.19c1.23-.1,2.47-.23,3.7-.32.58,0,1.15,0,1.73,0Z"/><path d="M139.87,161.38c0,.41-.23.6-.67.58s-.59-.24-.57-.77a.55.55,0,0,1,.6-.56A.67.67,0,0,1,139.87,161.38Z"/><path d="M148.6,172.58c-.34,0-.68-.29-.69-.53a.73.73,0,0,1,.81-.7.66.66,0,0,1,.55.74C149.25,172.43,149,172.6,148.6,172.58Z"/><path d="M140.23,168a.57.57,0,0,1,.46.53c0,.23-.39.59-.6.49a1,1,0,0,1-.52-.49C139.47,168.36,139.92,168,140.23,168Z"/><path d="M324.42,97l-4.27-1.92L317.71,94c-.55-.27-.85-.66-.69-.86s.71-.2,1.07-.15a3.8,3.8,0,0,1,.89.32l6.85,3.15.5.18c-.4-1-.74-1.82-1.09-2.66q-1-2.43-2.06-4.86c-.6-1.41-1.19-2.82-1.79-4.24l-1.53-3.65c-.65-1.52-1.31-3-1.95-4.54-.37-.88-.73-1.76-1.07-2.66a1.63,1.63,0,0,1-.08-.76.45.45,0,0,1,.78-.26,3.63,3.63,0,0,1,.75,1c1,2.14,1.88,4.29,2.82,6.44.74,1.69,1.47,3.39,2.21,5.08.66,1.53,1.34,3,2,4.59.18.44.39.87.66,1.48l-.17-1.55c0-.45-.07-.91-.12-1.37,0-.09,0-.17,0-.26-.07-1-.11-1.9-.19-2.85-.1-1.23-.22-2.47-.33-3.7a2.26,2.26,0,0,1,0-.26c-.06-1.12-.11-2.25-.19-3.37-.11-1.47-.22-2.94-.35-4.4-.1-1.06-.26-2.12-.31-3.18a3.67,3.67,0,0,1,.3-1.33.44.44,0,0,1,.77-.09,2,2,0,0,1,.3.89q.28,2.4.51,4.8c.09,1,.12,1.91.21,2.85s.2,1.83.3,2.75l0,.34c.12,1.73.22,3.46.37,5.18.13,1.46.34,2.92.49,4.38.08.8.13,1.61.19,2.41s.13,1.79.2,2.68c0,0,.06.09.13.21.49-.4,1-.78,1.44-1.2,1.21-1.13,2.4-2.28,3.61-3.4,1.42-1.32,2.82-2.66,4.29-3.92a8.22,8.22,0,0,1,2.18-1.7,1.65,1.65,0,0,1,.39-.17c.22,0,.51,0,.64.06a.85.85,0,0,1,.14.62c0,.5-.46.78-.77,1.11-.56.58-1.16,1.11-1.75,1.66l-4,3.68c-1.72,1.57-3.45,3.13-5.3,4.8h1c3.55,0,7.09-.08,10.63,0,2.46.09,4.92.09,7.38.14a2.16,2.16,0,0,1,.75.17c.17.06.44.24.42.34a.78.78,0,0,1-.34.54,4.79,4.79,0,0,1-1.15.34,4.06,4.06,0,0,1-.78,0H332.42c-.37,0-.73,0-1.23-.09.21.12.33.21.46.27l2.68,1.22L338,102a1.63,1.63,0,0,1,.54.28c.12.12.26.35.22.49a.62.62,0,0,1-.44.32,1.57,1.57,0,0,1-.66-.14c-.65-.25-1.29-.51-1.93-.79-1.21-.53-2.42-1.09-3.63-1.64l-2.22-1a5.8,5.8,0,0,0-.67-.2c.44,1,.84,2,1.25,2.91.63,1.46,1.27,2.91,1.9,4.36l3.15,7.32c.42,1,.8,2,1.21,3,.25.61.53,1.21.75,1.83a2.36,2.36,0,0,1,.1,1,.65.65,0,0,1-1.16.37,2.35,2.35,0,0,1-.5-.7c-.67-1.56-1.31-3.13-2-4.69-.78-1.8-1.59-3.59-2.35-5.39-.69-1.62-1.33-3.26-2-4.88-.36-.88-.75-1.75-1.2-2.62.05.39.12.77.16,1.16s0,.75.07,1.12.07.57.1.86l.33,3.61c0,.12,0,.23,0,.35.11,1.29.23,2.58.34,3.87,0,.09,0,.18,0,.26.06,1.13.11,2.25.19,3.38.1,1.55.23,3.1.35,4.65s.23,3.11.34,4.66c.06.81.14,1.61.16,2.42s-.25,1-.65,1.07-.76-.34-.91-.91a5.12,5.12,0,0,1-.17-.85c-.08-1.09-.12-2.19-.2-3.29s-.21-2-.32-3c0-.09,0-.17,0-.26-.07-1.15-.11-2.31-.2-3.46-.07-1-.21-2-.31-2.92,0-.08,0-.17,0-.26-.06-1.12-.08-2.25-.2-3.37-.15-1.55-.29-3.1-.35-4.66-.06-1.29-.22-2.58-.33-3.87-.08-.89-.17-1.78-.25-2.72a1.19,1.19,0,0,0-.8.42c-1,.93-2,1.87-3,2.78-1.46,1.31-2.94,2.59-4.4,3.9-.71.63-1.41,1.28-2.11,1.92s-1.12,1-1.69,1.5a1.23,1.23,0,0,1-.36.23c-.46.19-.77.13-1-.18s-.17-.56.16-.93.46-.42.7-.64q2.46-2.25,4.93-4.49l.06-.06q2.53-2.37,5.09-4.72a5.89,5.89,0,0,1,.57-.41l-.11-.18c-.24,0-.48,0-.72,0-4.39,0-8.77,0-13.15,0-1.74,0-3.47-.1-5.21-.15a1,1,0,0,1-.42-.07c-.44-.26-.56-.49-.14-.87a2.29,2.29,0,0,1,1.53-.46c.78,0,1.57,0,2.35,0h15.55Z"/><path d="M322.67,111.92a1.09,1.09,0,0,1-1.12,1.06,1,1,0,0,1-1-1,1.11,1.11,0,0,1,1.09-1.11A.93.93,0,0,1,322.67,111.92Z"/><path d="M330.85,85.12a1,1,0,0,1-1-1.12,1.11,1.11,0,0,1,1-1,1.1,1.1,0,0,1,1.05,1A1.05,1.05,0,0,1,330.85,85.12Z"/><path d="M320.87,90.33a1.06,1.06,0,0,1,.9,1,.92.92,0,0,1-.93.75.94.94,0,0,1-.81-1A.75.75,0,0,1,320.87,90.33Z"/></g></g></svg>