<svg xmlns="http://www.w3.org/2000/svg" viewBox="0 0 101.34 44.98"><defs><style>.cls-1{fill:#e7ebb4;}</style></defs><g id="Calque_2" data-name="Calque 2"><g id="Calque_2-2" data-name="Calque 2"><path class="cls-1" d="M37.43,7.93c-.63,0-1.51-.32-2.2-.38a34.4,34.4,0,0,0-4.4-.32,25.89,25.89,0,0,0-6.23.7c-4,.94-5,2.7-6,6.54a15.93,15.93,0,0,1,4.53-.76c5.09,0,7.49,3.65,7.49,8.44,0,9.93-12.15,21.89-22,21.89C2.83,44,0,40,0,34.48c0-2.08,1.7-6.36,4.15-6.36,1,0,1.64.88,2.46,1.32s2.32.69,2.32,1.76c-.5,1.2-1.38,2.65-1.38,4a2.07,2.07,0,0,0,2.26,1.95c2.58,0,6-2.33,7.74-4C20.13,30.7,23,25.23,23,21.64c0-1.89-1-3.14-3-3.14a10.33,10.33,0,0,0-5.6,2.32c-1,.88-1.76,2.08-2.71,3-.88-.19-4.21-2.7-4.27-3.58,3.33-4.66,6-10.26,6.6-16,.07-1,.13-1.26.38-1.39s.57-.06,1.2-.06a34.15,34.15,0,0,0,6.66-1C26.55,1.07,30.76,0,35,0c1.26,0,4,0,4,1.82C39.07,2.71,38.38,7.93,37.43,7.93Z"/><path class="cls-1" d="M48.57,44.1C42.22,44.1,39,38.63,39,32.9c0-9.18,6.29-19,12.83-25.1C54.36,5.41,61.59,0,65,0a6.06,6.06,0,0,1,4,2.2,5.71,5.71,0,0,1,.62,2.71C70,8,72.86,8.18,72.86,12.83,72.86,23.34,59.9,44.1,48.57,44.1ZM65.05,7.49c-2.89-.13-8.24,5.28-10.06,7.42-3.4,4-8.43,12.39-8.43,17.68,0,1.76.94,4.15,3,4.15,3.58,0,8-5.1,11.45-10.88s5.6-11.58,6-14.66C67.26,9.75,67.07,7.55,65.05,7.49Z"/><path class="cls-1" d="M95.19,41.65a12.72,12.72,0,0,1-7.36,2.83,6.29,6.29,0,0,1-3-.69A14.15,14.15,0,0,1,79.34,45a8.93,8.93,0,0,1-3.84-.82A5.3,5.3,0,0,1,72.42,39a6.7,6.7,0,0,1,2.07-4.53C77.64,31.39,82,25,84.68,20.13a11.4,11.4,0,0,0,1-2.07,3.36,3.36,0,0,1,4.59-2.33c1.14.69,1.14,2,.38,3.33a5,5,0,0,1-1.51,1.7,3.22,3.22,0,0,0-1.07,1.57c-.25,1.14.44,1.7,1,2.52,1.38,2,3.65,3.9,3.65,7.42A12.06,12.06,0,0,1,90.6,39c-.19.31-.25.5-.13.62s.38.13.76,0a9.72,9.72,0,0,0,3.39-2.7,33.16,33.16,0,0,0,4-6.35c.38-.95,3.33.56,2.64,2.45A19.74,19.74,0,0,1,95.19,41.65Zm-9-9.82a10,10,0,0,0-1-4.59A30.15,30.15,0,0,1,80,34.66c.75.57,1.76,1.77.82,4a4.12,4.12,0,0,1-4.6,2.51A3.26,3.26,0,0,0,78.9,42.4c3.65.07,6-3.14,6.92-7.11A16.66,16.66,0,0,0,86.2,31.83Z"/></g></g></svg>