<svg xmlns="http://www.w3.org/2000/svg" viewBox="0 0 36.99 36.99"><defs><style>.cls-1{fill:#ebc7ce;}.cls-2{fill:#222221;}</style></defs><g id="Calque_2" data-name="Calque 2"><g id="Calque_2-2" data-name="Calque 2"><rect class="cls-1" width="36.99" height="36.99" rx="18.08"/><path class="cls-2" d="M16.86,13.66c-.16.21-.2.48-.37.69a.19.19,0,0,1-.17.09A3.38,3.38,0,0,0,14,15.77a1.57,1.57,0,0,1,1.66,1.64c0,1.78-2.19,4.1-4,4.1a1.5,1.5,0,0,1-1.57-1.66c0-.12,0-.24,0-.36a8.72,8.72,0,0,1,2.77-4.6,6.06,6.06,0,0,1,3.4-1.82c.18,0,.78,0,.78.28C17,13.48,16.94,13.56,16.86,13.66Zm-3.22,2.86c-.94,0-2,2.06-2,2.9,0,.38.09.77.54.77,1.09,0,2.28-1.67,2.28-2.68C14.5,16.93,14.26,16.52,13.64,16.52Z"/><path class="cls-2" d="M19,21.51a1.91,1.91,0,0,1-1.82-2.13,7.27,7.27,0,0,1,2.45-4.79,6.09,6.09,0,0,1,2.5-1.48,1.12,1.12,0,0,1,.76.42A1.1,1.1,0,0,1,23,14c.08.59.62.63.62,1.51C23.63,17.56,21.16,21.51,19,21.51Zm3.14-7c-.55,0-1.57,1-1.91,1.42a6.79,6.79,0,0,0-1.61,3.37c0,.33.18.79.57.79.69,0,1.53-1,2.19-2.07a9.55,9.55,0,0,0,1.15-2.8C22.56,15,22.53,14.55,22.14,14.53Z"/><path class="cls-2" d="M27.89,21.05a2.41,2.41,0,0,1-1.4.54,1.18,1.18,0,0,1-.58-.14,2.54,2.54,0,0,1-1,.23,1.83,1.83,0,0,1-.73-.15,1,1,0,0,1-.59-1,1.28,1.28,0,0,1,.4-.86,14.05,14.05,0,0,0,1.94-2.74,2.17,2.17,0,0,0,.19-.39A.65.65,0,0,1,27,16.1c.21.14.21.39.07.64a.83.83,0,0,1-.29.32.64.64,0,0,0-.2.3c-.05.22.08.33.19.48a2.4,2.4,0,0,1,.7,1.42A2.31,2.31,0,0,1,27,20.54q-.06.09,0,.12s.08,0,.15,0a2.1,2.1,0,0,0,.65-.51,6.56,6.56,0,0,0,.75-1.21c.07-.18.64.1.5.46A3.76,3.76,0,0,1,27.89,21.05Zm-1.71-1.88A1.9,1.9,0,0,0,26,18.3a5.82,5.82,0,0,1-1,1.41.57.57,0,0,1,.16.76.78.78,0,0,1-.88.48.64.64,0,0,0,.51.24c.69,0,1.14-.6,1.32-1.36A3.7,3.7,0,0,0,26.18,19.17Z"/></g></g></svg>