<svg xmlns="http://www.w3.org/2000/svg" viewBox="0 0 380 213.53"><defs><style>.cls-1{fill:#ebc0c5;}.cls-2{fill:#8ab0d2;}.cls-3{fill:#e4a258;}.cls-4{fill:#4676b5;}.cls-5{fill:#e4a35e;}.cls-6{fill:#da7c65;}.cls-7{fill:#4e72b1;}</style></defs><g id="Calque_2" data-name="Calque 2"><g id="Calque_2-2" data-name="Calque 2"><rect class="cls-1" width="380" height="120.22"/><path class="cls-1" d="M220.51,100.9c-.12,4.81-.33,9.46-1.72,14a3.56,3.56,0,0,0-.22.94c0,.52.07,1,.11,1.57.47-.28.95-.52,1.39-.83,1.53-1,3-2.26,4.56-3.16a23.25,23.25,0,0,1,19.86-1.53c4,1.4,5.6,5.14,3.67,9a23.25,23.25,0,0,1-11.79,11.33,9.81,9.81,0,0,0-1.32.59,6.78,6.78,0,0,0-1,.89,10.4,10.4,0,0,0,.93.71,56.6,56.6,0,0,1,5.13,3.13c4.6,3.53,5.25,8.47,3.82,13.55a15,15,0,0,1-8.72,10.12c-3.35,1.41-6.73,1.64-10-.27-1.36-.8-1.89-.53-1.91,1s-.06,3.07-.23,4.59c-.77,6.52-4,11.35-10.15,13.86a62.25,62.25,0,0,1-9.2,2.81c-8.36,2-14.73-2.74-15.08-11.34-.41-9.78,3.38-17.74,11.15-23.75a2.86,2.86,0,0,0,.4-.28c.37-.38.72-.79,1.08-1.18a5.7,5.7,0,0,0-1.73.26A54.78,54.78,0,0,1,174.16,153a23.64,23.64,0,0,1-8.17-1.63c-3.26-1.25-4.77-4.16-5.18-7.6-.84-7,1.4-12.94,6.86-17.4,3.84-3.15,8.56-3.53,13.32-3.26a29.85,29.85,0,0,1,16.77,6.2,5.68,5.68,0,0,0,1,.5,4.6,4.6,0,0,0-.17-1.13,51,51,0,0,1-3.46-12.3c-1.28-8,.93-15,5.68-21.32a29.7,29.7,0,0,1,6.64-6.26c4.66-3.25,8.68-2,10.57,2.85C219.2,94.58,220.49,97.33,220.51,100.9Zm-3.17,40.29a3.59,3.59,0,0,0,3.1-3.9,3.75,3.75,0,0,0-4-3,3.54,3.54,0,0,0-3,3.77A3.68,3.68,0,0,0,217.34,141.19Z"/><path class="cls-2" d="M128.43,117.73c-4.23.2-8.27-1.38-12-3.83a3.69,3.69,0,0,0-1-.28,6.24,6.24,0,0,0,.3.86,15,15,0,0,1,1.37,9.89c-.94,5-4.36,7.81-8.82,9.43a14.79,14.79,0,0,1-7.63.57c-7.23-1.26-10-6.73-8-13.41a18.42,18.42,0,0,1,5.28-8.57,10.69,10.69,0,0,0,1.19-1.54c-.56.23-1.11.47-1.67.69a63.06,63.06,0,0,1-6,2.36c-3.58,1-7,.79-9.75-2.16C77.31,107,78,99.1,83.91,96.35c2.69-1.24,5.52-1,8.33-.38,1,.23,2.07.53,3.11.77a3.47,3.47,0,0,0,.72,0c-.15-.23-.24-.55-.44-.67-2.27-1.34-4.57-2.64-6.84-4-1.41-.83-2.79-1.7-4.16-2.59-2.71-1.77-3.43-4.42-3-7.41a11.13,11.13,0,0,1,9.6-9.74c3.83-.57,6.88,1.07,9.4,3.77,3.75,4,5.15,9,5.26,14.37,0,1.5-.11,3-.14,4.5a4.91,4.91,0,0,0,.22,1.05c.21-.27.56-.5.62-.8.59-3.26,1.56-6.52,1.59-9.79a47.35,47.35,0,0,0-1.45-9.84c-.77-3.68.54-5.82,4.31-6.11a17.55,17.55,0,0,1,5.61.33c3.51.93,6.94,2.17,10.34,3.44a6.86,6.86,0,0,1,2.5,1.94,3.88,3.88,0,0,1,.41,5.19c-1.84,2.52-3.91,4.89-5.94,7.28s-3.88,4.45-5.8,6.7c-.16.18-.14.52-.2.79.22-.11.44-.21.65-.33,1.57-.92,3.09-2,4.72-2.73,4.76-2.29,9.06-1.51,12.76,2.24,2.2,2.24,4.39,4.5,6.45,6.87,2.54,2.92,2.45,7-.37,10.16C138.61,115.31,134.34,117.91,128.43,117.73ZM109.69,99.4a3.81,3.81,0,0,0-4,3.88,4,4,0,0,0,4,3.91,3.9,3.9,0,1,0-.07-7.79Z"/><path class="cls-3" d="M274.42,71.5a20.29,20.29,0,0,1-2.61,9.4,7.7,7.7,0,0,0-.36,1.27,6.42,6.42,0,0,0,1.09-.26c4.31-1.77,9.88-1.64,13.42,2.13a13.16,13.16,0,0,1,2.55,13.53,7.4,7.4,0,0,1-7.08,4.93c-4.58.12-8.26-1.75-11.43-4.89a5.92,5.92,0,0,0-.74-.55,4,4,0,0,0,.07,1,61.1,61.1,0,0,1,2.37,6.55c.87,3.66-1,6.7-4.73,8.54-3.25,1.59-7.8.94-9.82-1.65-2.23-2.84-1.9-6.21-1.4-9.52.17-1.09.51-2.15.77-3.22-.66,1-1.37,1.9-2,2.9-1.42,2.34-2.54,4.89-4.18,7.08a9.86,9.86,0,0,1-6.15,4.17c-4.85.57-13.89-2.38-15-3.6-.93-.81-2.48-4.65-.46-6.81a41,41,0,0,1,6.79-5.73c5.43-3.7,11.72-4.76,18.1-5.42a7.73,7.73,0,0,0,.92-.23,3.47,3.47,0,0,0-1-.41q-6.72-.7-13.46-1.37c-1.52-.15-3-.28-4.57-.39a5.51,5.51,0,0,1-5.29-4.48A12.45,12.45,0,0,1,236,70.8a6,6,0,0,1,6.83.53c2.37,1.79,4.58,3.8,6.86,5.72.74.62,1.45,1.28,2.23,1.85a12.44,12.44,0,0,0,1.6.9c-.19-.56-.35-1.14-.59-1.68-.61-1.4-1.38-2.74-1.87-4.18a6.59,6.59,0,0,1,1.11-6.85A87.86,87.86,0,0,1,260.52,59a5.83,5.83,0,0,1,7.39.09C272.1,62.24,274.59,66.28,274.42,71.5Zm-9.16,16.17a3.31,3.31,0,0,0-3.17-3.54,3.61,3.61,0,0,0-3.7,3.36,3.44,3.44,0,0,0,6.87.18Z"/><path class="cls-4" d="M339.07,87.11c0,.44,0,.88,0,1.32-.09,3.78-2.44,6.15-6.25,6.27a5.19,5.19,0,0,0-.56,0c-.47.08-.93.18-1.39.28.19.37.37.77.59,1.13a5.19,5.19,0,0,1-4,8c-2.66.26-4.33-1.46-4.31-4.45,0-.77,0-1.54,0-2.3-.63.39-1.25.8-1.9,1.16a3.77,3.77,0,0,1-5.16-1.57c-1-2.1-.15-4,2.33-5.08l1.39-.56c-.54-.13-1.08-.28-1.62-.38-.37-.06-.76-.06-1.13-.09-1.65-.11-2.95-.73-3.36-2.48A4.08,4.08,0,0,1,314.83,84a3.45,3.45,0,0,1,4.34-.6,28.5,28.5,0,0,1,3.54,3,4.88,4.88,0,0,1,.47.55,3.8,3.8,0,0,0,0-.83c-.41-1.45-.89-2.88-1.27-4.34-.5-1.93-.05-3.18,1.84-3.71a8.92,8.92,0,0,1,4.56,0c1.91.52,2.43,2,1.84,3.9-.7,2.29-1.41,4.57-2.25,6.8a3.68,3.68,0,0,1-1.49,1.49c-.81.51-1.61,1-1.1,2a1.82,1.82,0,0,0,1.48.78c1-.1,1.38-.86,1.3-1.92a2.62,2.62,0,0,1,.42-1.75A88.33,88.33,0,0,1,334.79,82c2-2,3.39-1.41,4,1.39a16.71,16.71,0,0,1,.26,3.75S339.11,87.1,339.07,87.11Z"/><path class="cls-4" d="M65.34,28.85c0,.44,0,.88,0,1.32-.08,3.79-2.43,6.15-6.24,6.28a3.62,3.62,0,0,0-.57,0l-1.39.27c.2.38.37.77.59,1.13a5.18,5.18,0,0,1-4,8c-2.67.26-4.33-1.46-4.31-4.45,0-.76,0-1.53,0-2.3-.63.39-1.25.81-1.9,1.16a3.76,3.76,0,0,1-5.16-1.57c-1.05-2.09-.15-4,2.33-5.08L46.1,33c-.54-.13-1.08-.28-1.63-.37a8.47,8.47,0,0,0-1.13-.09c-1.65-.11-2.94-.74-3.36-2.48a4.1,4.1,0,0,1,1.12-4.32,3.45,3.45,0,0,1,4.34-.6,28.45,28.45,0,0,1,3.54,3,4.92,4.92,0,0,1,.47.54,3.2,3.2,0,0,0,0-.82c-.41-1.45-.88-2.88-1.26-4.34-.5-1.94-.06-3.19,1.84-3.72a9,9,0,0,1,4.56,0c1.9.52,2.43,2,1.83,3.91C55.69,26,55,28.3,54.14,30.53A3.59,3.59,0,0,1,52.64,32c-.8.51-1.61,1-1.09,2a1.85,1.85,0,0,0,1.48.78c1-.11,1.37-.87,1.29-1.92a2.77,2.77,0,0,1,.42-1.76,88.3,88.3,0,0,1,6.32-7.44c2-2,3.39-1.42,4,1.38a16.22,16.22,0,0,1,.27,3.75Z"/><path class="cls-2" d="M287,25.57c0,.44,0,.88,0,1.32-.09,3.79-2.44,6.15-6.25,6.28a5.19,5.19,0,0,0-.56,0c-.47.08-.93.18-1.39.27.19.38.37.77.59,1.13a5.2,5.2,0,0,1-4,8c-2.66.25-4.33-1.46-4.31-4.45,0-.77,0-1.54,0-2.31-.63.39-1.25.81-1.9,1.17A3.77,3.77,0,0,1,264,35.4c-1-2.09-.15-4,2.33-5.08l1.39-.55c-.54-.13-1.08-.28-1.63-.38A10.35,10.35,0,0,0,265,29.3c-1.65-.11-3-.74-3.36-2.48a4.09,4.09,0,0,1,1.11-4.32,3.46,3.46,0,0,1,4.34-.6,28.59,28.59,0,0,1,3.54,3,4.24,4.24,0,0,1,.47.55,3.8,3.8,0,0,0,0-.83c-.41-1.45-.89-2.88-1.27-4.34-.5-1.93,0-3.18,1.84-3.71a8.92,8.92,0,0,1,4.56,0c1.91.52,2.43,2,1.84,3.9-.7,2.28-1.41,4.57-2.25,6.8a3.68,3.68,0,0,1-1.49,1.49c-.81.5-1.61,1-1.1,2a1.82,1.82,0,0,0,1.48.78c1-.1,1.37-.86,1.3-1.92a2.62,2.62,0,0,1,.42-1.75,88.33,88.33,0,0,1,6.31-7.45c2-2,3.39-1.42,4,1.39a16.66,16.66,0,0,1,.26,3.74Z"/><path class="cls-4" d="M13.76,144.75c-.27-3.42.78-6.11,4-7.56,1-.46,1.05-1.05.58-1.9s-.93-1.69-1.33-2.57a7.14,7.14,0,0,1-.19-6.1,7.53,7.53,0,0,1,3.42-3.12,27,27,0,0,1,6.18-2c1.38-.29,1.89-.85,1.93-2.23A11.75,11.75,0,0,1,29,116a4.4,4.4,0,0,1,3.51-3.31c3.6-.49,6.91,0,9.28,3.23,1.57,2.15,1.56,1.87,4.1,1.07,5.55-1.74,13.46-.85,16.38,6.57a6.74,6.74,0,0,1,.65,1.82c.17,1.87,1.35,2.67,2.89,3.45,5.57,2.8,6.51,12.11,1.57,15.83a3,3,0,0,0-1.31,3c.25,4.68-1.91,8.23-6,10a5.71,5.71,0,0,1-2.56.59c-1.91-.16-2.4.84-2.83,2.46s-1,3.76-2.24,4.63c-1.87,1.32-4.38,2.39-6.8,1.34a4.09,4.09,0,0,0-5,.87,11.89,11.89,0,0,1-3.82,2c-2,.78-3.85-.22-5.4-1.34a12.23,12.23,0,0,1-3-3.38c-1.06-1.65-2.1-2.82-4.33-2.81-2.4,0-5.27-3.18-5.37-5.71A4.51,4.51,0,0,0,17,153,9.65,9.65,0,0,1,13.76,144.75Z"/><ellipse class="cls-5" cx="39.3" cy="143.72" rx="6.14" ry="6.84"/><path class="cls-6" d="M325.62,155.32a50.36,50.36,0,0,1,5.41,2.06c2.16,1.08,2.15,1.29,3.78-.65a7,7,0,0,1,6.46-2.5c2.93.29,5.73,2.29,6.31,5.17.45,2.23,1.56,3.11,3.66,3.75,4.68,1.44,8.06,7.47,6.74,11.71a9.39,9.39,0,0,1-2,3.25,1.29,1.29,0,0,0-.06,2c2.41,3,2.88,6.59,2.47,10.3a5.86,5.86,0,0,1-3.58,4.58,2.66,2.66,0,0,0-1.67,3.07,15.72,15.72,0,0,1,0,2.17,6.29,6.29,0,0,1-8.26,6c-2.9-.8-2.9-.8-4.26,1.65-3.45,6.26-10.47,7.55-15.73,2.66a4.9,4.9,0,0,0-4.91-1.37c-6.62,1.36-13.5-4.32-13.41-11a3.07,3.07,0,0,0-1.83-3.26c-2.56-1.28-3.6-3.51-3.59-6.36a11.47,11.47,0,0,1,4.45-9.49c.91-.71,1.18-1.2.59-2.36-2.94-5.69-.24-10.53,6.37-11.16,2.05-.2,2.64-.87,3-2.78C316.44,158.46,320.34,155.43,325.62,155.32Z"/><ellipse class="cls-7" cx="331.75" cy="182" rx="7.12" ry="7.4"/><path class="cls-6" d="M149.13,23.14a37.48,37.48,0,0,1,4.16,1.6c1.67.82,1.66,1,2.92-.5a5.77,5.77,0,0,1,9.85,2.05,3.42,3.42,0,0,0,2.82,2.9c3.61,1.11,6.22,5.76,5.2,9a7.41,7.41,0,0,1-1.53,2.51,1,1,0,0,0,0,1.56,10.37,10.37,0,0,1,1.9,7.95,4.49,4.49,0,0,1-2.76,3.53,2,2,0,0,0-1.28,2.36,13.45,13.45,0,0,1,0,1.68A4.85,4.85,0,0,1,164,62.41c-2.24-.62-2.24-.62-3.28,1.27-2.67,4.83-8.08,5.83-12.13,2.06a3.75,3.75,0,0,0-3.79-1.06,8.91,8.91,0,0,1-10.35-8.52,2.36,2.36,0,0,0-1.4-2.51,5,5,0,0,1-2.77-4.9,8.82,8.82,0,0,1,3.43-7.32c.7-.55.91-.93.45-1.82-2.26-4.39-.18-8.12,4.92-8.61,1.57-.15,2-.67,2.32-2.14C142.05,25.56,145.06,23.23,149.13,23.14Z"/><ellipse class="cls-7" cx="153.85" cy="43.72" rx="5.49" ry="5.71"/></g></g></svg>