<svg xmlns="http://www.w3.org/2000/svg" viewBox="0 0 380 142.78"><defs><style>.cls-1{fill:#ebc7ce;}.cls-2{fill:#93b5d7;}.cls-3{fill:#e2a452;}.cls-4{fill:#4472b3;}.cls-5{fill:#e3a559;}.cls-6{fill:#d57961;}.cls-7{fill:#4c6daf;}</style></defs><g id="Calque_2" data-name="Calque 2"><g id="Calque_2-2" data-name="Calque 2"><rect class="cls-1" width="380" height="105.98"/><path class="cls-1" d="M199.93,60c-.11,4.81-.32,9.46-1.72,14A3.54,3.54,0,0,0,198,75c0,.52.07,1,.11,1.57.46-.28.95-.52,1.39-.83,1.52-1,2.95-2.26,4.56-3.16A23.25,23.25,0,0,1,223.92,71c4,1.4,5.6,5.14,3.66,9A23.19,23.19,0,0,1,215.8,91.31a9.94,9.94,0,0,0-1.33.59,6.71,6.71,0,0,0-1,.89,9.14,9.14,0,0,0,.93.71,56.6,56.6,0,0,1,5.13,3.13c4.6,3.53,5.25,8.47,3.81,13.55a15,15,0,0,1-8.71,10.12c-3.35,1.41-6.73,1.64-10-.27-1.36-.8-1.89-.53-1.92,1a44,44,0,0,1-.23,4.59c-.76,6.52-4,11.35-10.14,13.86a62.25,62.25,0,0,1-9.2,2.81c-8.36,2-14.73-2.74-15.09-11.34-.4-9.78,3.38-17.74,11.16-23.75a2.86,2.86,0,0,0,.4-.28c.36-.38.71-.79,1.07-1.18A5.59,5.59,0,0,0,179,106a54.82,54.82,0,0,1-25.43,6.06,23.68,23.68,0,0,1-8.17-1.63c-3.26-1.25-4.76-4.16-5.18-7.6-.83-7,1.4-12.94,6.86-17.4,3.85-3.15,8.56-3.53,13.33-3.26a29.82,29.82,0,0,1,16.76,6.2,5.17,5.17,0,0,0,1,.5,4.6,4.6,0,0,0-.18-1.13,50.58,50.58,0,0,1-3.45-12.29c-1.29-8,.93-15.06,5.68-21.33a29.87,29.87,0,0,1,6.63-6.26c4.66-3.25,8.68-1.95,10.57,2.85C198.63,53.71,199.92,56.46,199.93,60Zm-3.16,40.29a3.58,3.58,0,0,0,3.1-3.9,3.75,3.75,0,0,0-4-3,3.55,3.55,0,0,0-3,3.77A3.69,3.69,0,0,0,196.77,100.32Z"/><path class="cls-2" d="M128.43,103.49c-4.23.2-8.27-1.37-12-3.83a3.69,3.69,0,0,0-1-.28,6.24,6.24,0,0,0,.3.86,15,15,0,0,1,1.37,9.89c-.94,5-4.36,7.81-8.82,9.43a14.79,14.79,0,0,1-7.63.57c-7.23-1.26-10-6.73-8-13.41a18.42,18.42,0,0,1,5.28-8.57,10.69,10.69,0,0,0,1.19-1.54c-.56.23-1.11.47-1.67.69a63.06,63.06,0,0,1-6,2.36c-3.58,1-7,.79-9.75-2.16C77.31,92.72,78,84.86,83.91,82.12c2.69-1.25,5.52-1,8.33-.39,1,.23,2.07.53,3.11.77a3.47,3.47,0,0,0,.72,0c-.15-.23-.24-.55-.44-.67-2.27-1.34-4.57-2.64-6.84-4-1.41-.83-2.79-1.7-4.16-2.59-2.71-1.77-3.43-4.42-3-7.41a11.13,11.13,0,0,1,9.6-9.74c3.83-.57,6.88,1.07,9.4,3.77,3.75,4,5.15,9,5.26,14.37,0,1.5-.11,3-.14,4.5a4.91,4.91,0,0,0,.22,1c.21-.26.56-.5.62-.8.59-3.26,1.56-6.52,1.59-9.79a47.35,47.35,0,0,0-1.45-9.84c-.77-3.68.54-5.82,4.31-6.1a17.27,17.27,0,0,1,5.61.32c3.51.93,6.94,2.17,10.34,3.44a6.86,6.86,0,0,1,2.5,1.94,3.88,3.88,0,0,1,.41,5.19c-1.84,2.53-3.91,4.89-5.94,7.28s-3.88,4.46-5.8,6.7c-.16.18-.14.53-.2.79.22-.11.44-.21.65-.33,1.57-.92,3.09-1.95,4.72-2.73,4.76-2.29,9.06-1.51,12.76,2.24,2.2,2.24,4.39,4.5,6.45,6.87,2.54,2.92,2.45,7-.37,10.16C138.61,101.07,134.34,103.67,128.43,103.49ZM109.69,85.16a3.81,3.81,0,0,0-4,3.89,4,4,0,0,0,4,3.9,3.9,3.9,0,1,0-.07-7.79Z"/><path class="cls-3" d="M259.14,50.39a20.14,20.14,0,0,1-2.61,9.4,6.71,6.71,0,0,0-.35,1.28,7.73,7.73,0,0,0,1.08-.26c4.31-1.78,9.88-1.64,13.43,2.13a13.17,13.17,0,0,1,2.55,13.53,7.43,7.43,0,0,1-7.09,4.93c-4.58.11-8.26-1.76-11.42-4.89A5.85,5.85,0,0,0,254,76a4,4,0,0,0,.07,1,61.9,61.9,0,0,1,2.37,6.55c.87,3.66-1,6.7-4.73,8.55-3.24,1.58-7.8.93-9.82-1.66-2.22-2.84-1.9-6.21-1.4-9.52.17-1.08.51-2.14.77-3.22-.66,1-1.37,1.9-2,2.9-1.43,2.35-2.54,4.89-4.19,7.08a9.79,9.79,0,0,1-6.15,4.17c-4.84.58-13.89-2.38-15-3.6-.93-.81-2.48-4.65-.46-6.81a40.83,40.83,0,0,1,6.79-5.72C225.7,72,232,71,238.37,70.29a6.19,6.19,0,0,0,.92-.23,3.9,3.9,0,0,0-.95-.41q-6.74-.7-13.46-1.36c-1.53-.15-3-.29-4.58-.4-2.85-.22-4.51-1.73-5.28-4.48a12.41,12.41,0,0,1,5.73-13.71,6,6,0,0,1,6.83.52C230,52,232.16,54,234.44,55.94c.74.63,1.45,1.28,2.23,1.86a13.88,13.88,0,0,0,1.6.89c-.19-.56-.35-1.14-.59-1.68-.61-1.4-1.37-2.74-1.86-4.18a6.57,6.57,0,0,1,1.1-6.85,87.71,87.71,0,0,1,8.32-8,5.83,5.83,0,0,1,7.39.08C256.82,41.13,259.31,45.17,259.14,50.39ZM250,66.56A3.29,3.29,0,0,0,246.81,63a3.6,3.6,0,0,0-3.7,3.36,3.44,3.44,0,0,0,6.87.17Z"/><path class="cls-4" d="M344.17,41.42c0,.44,0,.88,0,1.32-.09,3.79-2.44,6.15-6.25,6.28a3.47,3.47,0,0,0-.56,0c-.47.08-.93.18-1.39.27.19.38.37.77.59,1.13a5.19,5.19,0,0,1-4,8c-2.66.26-4.33-1.46-4.31-4.45,0-.76,0-1.53,0-2.3-.63.39-1.25.81-1.9,1.16a3.76,3.76,0,0,1-5.16-1.57c-1-2.09-.15-4,2.33-5.08l1.39-.56c-.54-.13-1.08-.28-1.62-.37a8.6,8.6,0,0,0-1.13-.09c-1.65-.11-2.95-.74-3.36-2.48a4.09,4.09,0,0,1,1.11-4.32,3.45,3.45,0,0,1,4.34-.6,27.74,27.74,0,0,1,3.54,3,4,4,0,0,1,.47.54,3.73,3.73,0,0,0,0-.82c-.41-1.45-.89-2.88-1.27-4.34-.5-1.94-.05-3.19,1.84-3.72a9,9,0,0,1,4.56,0c1.91.52,2.43,2,1.84,3.91-.7,2.28-1.4,4.56-2.25,6.79a3.57,3.57,0,0,1-1.49,1.49c-.81.51-1.61,1-1.1,2a1.85,1.85,0,0,0,1.48.78c1-.11,1.38-.87,1.3-1.92a2.65,2.65,0,0,1,.42-1.76,88.19,88.19,0,0,1,6.31-7.44c2-2,3.39-1.42,4,1.38a16.22,16.22,0,0,1,.26,3.75Z"/><path class="cls-4" d="M65.34,14.61c0,.44,0,.88,0,1.32-.08,3.79-2.43,6.15-6.24,6.28a5.42,5.42,0,0,0-.57,0l-1.39.27c.2.38.37.77.59,1.13a5.18,5.18,0,0,1-4,8c-2.67.26-4.33-1.45-4.31-4.45,0-.76,0-1.53,0-2.3-.63.39-1.25.81-1.9,1.17a3.76,3.76,0,0,1-5.16-1.58c-1.05-2.09-.15-4,2.33-5.08l1.39-.56c-.54-.12-1.08-.27-1.63-.37a10.54,10.54,0,0,0-1.13-.09c-1.65-.11-2.94-.74-3.36-2.48a4.1,4.1,0,0,1,1.12-4.32,3.45,3.45,0,0,1,4.34-.6,28.45,28.45,0,0,1,3.54,3,4.92,4.92,0,0,1,.47.54,3.2,3.2,0,0,0,0-.82c-.41-1.45-.88-2.88-1.26-4.34-.5-1.94-.06-3.19,1.84-3.72a9,9,0,0,1,4.56,0c1.9.52,2.43,2,1.83,3.91-.69,2.28-1.4,4.56-2.24,6.79a3.61,3.61,0,0,1-1.5,1.5c-.8.5-1.61,1-1.09,2A1.85,1.85,0,0,0,53,20.6c1-.1,1.37-.87,1.29-1.92a2.77,2.77,0,0,1,.42-1.76,88.3,88.3,0,0,1,6.32-7.44c2-2,3.39-1.42,4,1.38a16.22,16.22,0,0,1,.27,3.75Z"/><path class="cls-2" d="M287,11.33c0,.44,0,.88,0,1.32-.09,3.79-2.44,6.15-6.25,6.28a5.19,5.19,0,0,0-.56,0c-.47.08-.93.18-1.39.27.19.38.37.77.59,1.13a5.2,5.2,0,0,1-4,8c-2.66.25-4.33-1.46-4.31-4.45,0-.77,0-1.54,0-2.31-.63.39-1.25.81-1.9,1.17A3.77,3.77,0,0,1,264,21.17c-1-2.1-.15-4.05,2.33-5.08.46-.2.93-.38,1.39-.56-.54-.13-1.08-.28-1.63-.38a10.35,10.35,0,0,0-1.12-.09c-1.65-.11-3-.74-3.36-2.48a4.07,4.07,0,0,1,1.11-4.31,3.46,3.46,0,0,1,4.34-.61,28.59,28.59,0,0,1,3.54,3,5,5,0,0,1,.47.55,3.8,3.8,0,0,0,0-.83c-.41-1.45-.89-2.88-1.27-4.34-.5-1.93,0-3.18,1.84-3.71a8.92,8.92,0,0,1,4.56,0c1.91.52,2.43,2,1.84,3.9-.7,2.28-1.41,4.57-2.25,6.8a3.68,3.68,0,0,1-1.49,1.49c-.81.5-1.61,1-1.1,2a1.82,1.82,0,0,0,1.48.78c1-.1,1.37-.86,1.3-1.92a2.62,2.62,0,0,1,.42-1.75,88.33,88.33,0,0,1,6.31-7.45c2-2,3.39-1.41,4,1.39a16.66,16.66,0,0,1,.26,3.74Z"/><path class="cls-4" d="M15.81,104.82c-.22-2.76.63-4.93,3.26-6.1.84-.37.85-.85.47-1.54s-.75-1.36-1.08-2.07a5.8,5.8,0,0,1-.15-4.93,6,6,0,0,1,2.76-2.51,21.66,21.66,0,0,1,5-1.59c1.12-.24,1.53-.69,1.57-1.8a9.34,9.34,0,0,1,.5-2.67A3.57,3.57,0,0,1,31,78.93c2.91-.39,5.58,0,7.49,2.61,1.27,1.74,1.26,1.51,3.31.87,4.49-1.41,10.87-.7,13.23,5.3a6,6,0,0,1,.53,1.47c.13,1.51,1.08,2.16,2.33,2.79,4.5,2.26,5.26,9.78,1.27,12.78a2.42,2.42,0,0,0-1.06,2.44,7.8,7.8,0,0,1-4.87,8.08,4.56,4.56,0,0,1-2.06.47c-1.54-.13-1.94.68-2.29,2s-.81,3-1.8,3.73c-1.52,1.07-3.54,1.94-5.5,1.09a3.3,3.3,0,0,0-4,.7,9.67,9.67,0,0,1-3.09,1.65c-1.65.63-3.11-.18-4.36-1.08a10.12,10.12,0,0,1-2.44-2.73c-.85-1.33-1.69-2.28-3.5-2.27s-4.25-2.57-4.33-4.61a3.65,3.65,0,0,0-1.41-2.75A7.84,7.84,0,0,1,15.81,104.82Z"/><ellipse class="cls-5" cx="36.44" cy="103.99" rx="4.96" ry="5.53"/><path class="cls-6" d="M322.28,83.73A29.61,29.61,0,0,1,325.71,85c1.37.68,1.37.81,2.41-.41a4.75,4.75,0,0,1,8.1,1.69,2.82,2.82,0,0,0,2.33,2.38c3,.92,5.12,4.75,4.28,7.44a6,6,0,0,1-1.25,2.06.82.82,0,0,0,0,1.29,8.56,8.56,0,0,1,1.57,6.55,3.71,3.71,0,0,1-2.28,2.91,1.68,1.68,0,0,0-1.05,1.94,9.22,9.22,0,0,1,0,1.39,4,4,0,0,1-5.24,3.79c-1.84-.51-1.84-.51-2.7,1.05-2.2,4-6.66,4.79-10,1.69a3.11,3.11,0,0,0-3.12-.87,7.35,7.35,0,0,1-8.52-7,1.93,1.93,0,0,0-1.15-2.06,4.1,4.1,0,0,1-2.28-4,7.26,7.26,0,0,1,2.82-6c.58-.45.75-.76.37-1.5-1.86-3.61-.15-6.69,4.05-7.09,1.3-.13,1.68-.55,1.92-1.76C316.45,85.72,318.93,83.8,322.28,83.73Z"/><ellipse class="cls-7" cx="326.17" cy="100.67" rx="4.52" ry="4.7"/><path class="cls-6" d="M149.13,8.9a39.6,39.6,0,0,1,4.16,1.6c1.67.83,1.66,1,2.92-.5a5.77,5.77,0,0,1,9.85,2.05,3.42,3.42,0,0,0,2.82,2.9c3.61,1.11,6.22,5.76,5.2,9a7.41,7.41,0,0,1-1.53,2.51,1,1,0,0,0,0,1.56,10.37,10.37,0,0,1,1.9,8,4.49,4.49,0,0,1-2.76,3.53,2,2,0,0,0-1.28,2.36,13.45,13.45,0,0,1,0,1.68A4.85,4.85,0,0,1,164,48.17c-2.24-.62-2.24-.62-3.28,1.27-2.67,4.83-8.08,5.83-12.13,2.06a3.75,3.75,0,0,0-3.79-1.06,8.91,8.91,0,0,1-10.35-8.52,2.36,2.36,0,0,0-1.4-2.51,5,5,0,0,1-2.77-4.9,8.83,8.83,0,0,1,3.43-7.32c.7-.55.91-.93.45-1.82-2.26-4.38-.18-8.12,4.92-8.61,1.57-.15,2-.67,2.32-2.14C142.05,11.33,145.06,9,149.13,8.9Z"/><ellipse class="cls-7" cx="153.85" cy="29.48" rx="5.49" ry="5.71"/></g></g></svg>