<svg xmlns="http://www.w3.org/2000/svg" viewBox="0 0 36.99 36.99"><defs><style>.cls-1{fill:#efdc92;}.cls-2{fill:#222221;}</style></defs><g id="Calque_2" data-name="Calque 2"><g id="Calque_2-2" data-name="Calque 2"><rect class="cls-1" width="36.99" height="36.99" rx="18.08"/><path class="cls-2" d="M17.47,14.37c-.58.48-1.1,1-1.66,1.5l.41,0a1,1,0,0,1,.28.62.58.58,0,0,1-.18.41l-1.44,0a16.32,16.32,0,0,0-2.17,2.86,2.16,2.16,0,0,0-.35,1.15c0,.1-.24.22-.32.22-.29,0-.49-.19-.76-.26s-.41-.11-.41-.34c0-.74,1.8-3,2.32-3.65l-.25,0c-.09,0-.1-.14-.1-.2a1.51,1.51,0,0,1,.35-.88l1-.08a20.24,20.24,0,0,0,1.42-1.5,4.74,4.74,0,0,1-1.75.3c-.61,0-1.11,0-1.39-.56a2.82,2.82,0,0,1-.33-.84c0-.11.13-.09.2-.09a3.53,3.53,0,0,1,.55.1,5.67,5.67,0,0,0,1.16.09,14,14,0,0,0,2.81-.37,1.89,1.89,0,0,1,.47-.06c.35,0,.53.84.53,1.12S17.57,14.28,17.47,14.37Z"/><path class="cls-2" d="M19,21.18A1.92,1.92,0,0,1,17.22,19a7.22,7.22,0,0,1,2.45-4.78,6,6,0,0,1,2.5-1.49,1.14,1.14,0,0,1,.76.42,1,1,0,0,1,.12.52c.08.59.62.62.62,1.51C23.67,17.22,21.2,21.18,19,21.18Zm3.15-7c-.55,0-1.57,1-1.92,1.41A6.87,6.87,0,0,0,18.66,19c0,.34.18.8.58.8.68,0,1.52-1,2.18-2.08a9.34,9.34,0,0,0,1.15-2.79C22.61,14.63,22.57,14.21,22.19,14.2Z"/><path class="cls-2" d="M27.94,20.71a2.46,2.46,0,0,1-1.41.54,1.14,1.14,0,0,1-.57-.13,2.8,2.8,0,0,1-1.05.23,1.69,1.69,0,0,1-.73-.16,1,1,0,0,1-.59-1,1.35,1.35,0,0,1,.4-.87,13.28,13.28,0,0,0,1.94-2.73,1.41,1.41,0,0,0,.19-.4.64.64,0,0,1,.88-.44c.22.13.22.38.07.64a.91.91,0,0,1-.29.32.66.66,0,0,0-.2.3c0,.22.08.32.19.48a2.29,2.29,0,0,1,.7,1.41,2.35,2.35,0,0,1-.41,1.29c0,.06,0,.09,0,.12s.07,0,.14,0a1.83,1.83,0,0,0,.65-.52,6,6,0,0,0,.75-1.21c.08-.18.64.11.51.47A3.77,3.77,0,0,1,27.94,20.71Zm-1.72-1.87A1.91,1.91,0,0,0,26,18a5.61,5.61,0,0,1-1,1.42.57.57,0,0,1,.16.76.8.8,0,0,1-.87.48.62.62,0,0,0,.5.24c.69,0,1.14-.6,1.32-1.36A3,3,0,0,0,26.22,18.84Z"/></g></g></svg>