<svg xmlns="http://www.w3.org/2000/svg" viewBox="0 0 391.4 139.84"><defs><style>.cls-1{fill:#f5db9a;}.cls-2{fill:#edc057;}.cls-3{fill:#d8842c;}.cls-4{fill:#d37139;}.cls-5{fill:#b24627;}</style></defs><g id="Calque_2" data-name="Calque 2"><g id="Calque_2-2" data-name="Calque 2"><rect class="cls-1" x="11.4" width="380" height="103.16"/><path class="cls-2" d="M.42,110l278.37,1.46c3.61-.19,9.82-3.58,10.87-7.28l7.58,0s-2.54,13-17.19,14L.3,117Z"/><path class="cls-3" d="M297.24,104.19l6.23,0s-1.82,19.76-26.11,21.15L.49,123.89.3,117l279.75,1.17S293.58,117.3,297.24,104.19Z"/><path class="cls-4" d="M303.47,104.17l7.41,0s-2.73,26.79-29.31,28.51H0l.49-8.77,276.87,1.43C296.27,124.24,302.63,110.77,303.47,104.17Z"/><path class="cls-5" d="M310.88,104.15H319s-4.23,35.28-37.23,35.69H2l-2-7.18H281.57C300.06,131,308.58,117.46,310.88,104.15Z"/><polyline class="cls-2" points="297.19 104.16 297.24 0.48 289.66 0.54 289.66 104.19"/><rect class="cls-3" x="248.5" y="49.22" width="103.71" height="6.23" transform="translate(352.69 -248.02) rotate(90)"/><rect class="cls-4" x="255.33" y="48.62" width="103.69" height="7.4" transform="translate(359.49 -254.85) rotate(90)"/><polygon class="cls-5" points="318.99 0.46 318.99 106.17 310.88 106.17 310.88 0.48 318.99 0.46"/></g></g></svg>