<svg xmlns="http://www.w3.org/2000/svg" viewBox="0 0 307.59 139.38"><defs><style>.cls-1{fill:#edc057;}.cls-2{fill:#d8842c;}.cls-3{fill:#d37139;}.cls-4{fill:#b24627;}</style></defs><g id="Calque_2" data-name="Calque 2"><g id="Calque_2-2" data-name="Calque 2"><path class="cls-1" d="M.13,109.58l268.72,1.47c3.49-.2,8.39-3.61,9.41-7.32l7.53,0s-1.58,13-15.72,14L0,116.51Z"/><path class="cls-2" d="M285.79,103.7l6.28,0s-1.17,19.75-24.54,21.13L0,123.44v-6.93l270.11,1.17A18.4,18.4,0,0,0,285.79,103.7Z"/><path class="cls-3" d="M292.07,103.73l7.4,0s-2.32,26.78-27.88,28.49H0v-8.75l267.53,1.42C285.73,123.79,291.26,110.34,292.07,103.73Z"/><path class="cls-4" d="M299.47,103.71l8.12,2s-4.07,33.25-35.83,33.66L.14,139.21l-.14-7H271.59C289.37,130.57,297.26,117,299.47,103.71Z"/><polyline class="cls-1" points="285.79 103.7 285.84 0.02 278.26 0.08 278.26 103.73"/><rect class="cls-2" x="237.1" y="48.76" width="103.71" height="6.23" transform="translate(340.83 -237.08) rotate(90)"/><rect class="cls-3" x="243.93" y="48.17" width="103.69" height="7.4" transform="translate(347.64 -243.9) rotate(90)"/><polygon class="cls-4" points="307.59 0 307.59 105.72 299.48 105.72 299.48 0.02 307.59 0"/></g></g></svg>