<svg xmlns="http://www.w3.org/2000/svg" viewBox="0 0 95.61 44.98"><defs><style>.cls-1{fill:#b24627;}</style></defs><g id="Calque_2" data-name="Calque 2"><g id="Calque_2-2" data-name="Calque 2"><path class="cls-1" d="M34.6,8.37c-3,2.51-5.79,5.22-8.68,7.86l2.14.13a5.21,5.21,0,0,1,1.45,3.27,3.05,3.05,0,0,1-1,2.14L21,21.58a88.53,88.53,0,0,0-11.38,15,11.3,11.3,0,0,0-1.83,6c0,.51-1.26,1.14-1.7,1.14-1.51,0-2.58-1-4-1.39C1.26,42.15,0,41.84,0,40.64c0-3.9,9.44-15.85,12.14-19.12-.44,0-.88.06-1.32.06s-.5-.69-.5-1a8,8,0,0,1,1.82-4.65l5.29-.38c2.58-2.77,5.09-4.85,7.48-7.87a25.24,25.24,0,0,1-9.18,1.58c-3.21,0-5.85.19-7.3-3C7.93,5.22,6.67,3,6.67,1.89c0-.57.69-.51,1.07-.51A15.55,15.55,0,0,1,10.63,2a33.07,33.07,0,0,0,6.11.44A72.45,72.45,0,0,0,31.46.44,10.75,10.75,0,0,1,33.91.13c1.82,0,2.77,4.4,2.77,5.91C36.68,6.73,35.11,7.93,34.6,8.37Z"/><path class="cls-1" d="M42.85,44.1c-6.36,0-9.57-5.47-9.57-11.2,0-9.18,6.3-19,12.84-25.1C48.63,5.41,55.87,0,59.27,0a6,6,0,0,1,4,2.2,5.72,5.72,0,0,1,.63,2.71c.44,3.08,3.27,3.27,3.27,7.92C67.13,23.34,54.17,44.1,42.85,44.1ZM59.33,7.49c-2.89-.13-8.24,5.28-10.07,7.42-3.39,4-8.43,12.39-8.43,17.68,0,1.76,1,4.15,3,4.15,3.59,0,8-5.1,11.45-10.88s5.6-11.58,6-14.66C61.53,9.75,61.34,7.55,59.33,7.49Z"/><path class="cls-1" d="M89.47,41.65a12.75,12.75,0,0,1-7.36,2.83,6.29,6.29,0,0,1-3-.69A14.2,14.2,0,0,1,73.61,45a8.86,8.86,0,0,1-3.83-.82A5.31,5.31,0,0,1,66.69,39a6.71,6.71,0,0,1,2.08-4.53C71.91,31.39,76.25,25,79,20.13a13.22,13.22,0,0,0,1-2.07,3.36,3.36,0,0,1,4.59-2.33c1.13.69,1.13,2,.38,3.33a5.13,5.13,0,0,1-1.51,1.7,3.22,3.22,0,0,0-1.07,1.57c-.25,1.14.44,1.7,1,2.52,1.39,2,3.65,3.9,3.65,7.42A12.06,12.06,0,0,1,84.87,39c-.18.31-.25.5-.12.62s.38.13.75,0a9.73,9.73,0,0,0,3.4-2.7,32.46,32.46,0,0,0,4-6.35c.38-.95,3.34.56,2.65,2.45A19.83,19.83,0,0,1,89.47,41.65Zm-9-9.82a10,10,0,0,0-.94-4.59,30.46,30.46,0,0,1-5.23,7.42c.76.57,1.77,1.77.82,4a4.11,4.11,0,0,1-4.59,2.51,3.24,3.24,0,0,0,2.64,1.26c3.65.07,6-3.14,6.92-7.11A16.66,16.66,0,0,0,80.47,31.83Z"/></g></g></svg>