<svg xmlns="http://www.w3.org/2000/svg" xmlns:xlink="http://www.w3.org/1999/xlink" viewBox="0 0 98.27 42.99"><defs><style>.cls-1{fill:none;}.cls-2{clip-path:url(#clip-path);}.cls-3{fill:#1f1e22;}</style><clipPath id="clip-path" transform="translate(-12.3 -12.27)"><rect class="cls-1" width="122.84" height="67.56"/></clipPath></defs><g id="Calque_2" data-name="Calque 2"><g id="Calque_2-2" data-name="Calque 2"><g class="cls-2"><path class="cls-3" d="M27.43,21.73h1.85l8.21,18.42H34.81l-2.45-5.43H24.55l-2.29,5.43H19.57Zm3.86,10.66-3-6.63-2.74,6.63Z" transform="translate(-12.3 -12.27)"/><polygon class="cls-3" points="41.35 9.56 43.81 9.56 43.81 27.88 41.17 27.88 41.17 13.63 35.54 20.71 35.06 20.71 29.36 13.63 29.36 27.88 26.74 27.88 26.74 9.56 29.22 9.56 35.31 17.09 41.35 9.56"/><g class="cls-2"><path class="cls-3" d="M65.45,40.15h-6.2V21.84h4.8a8.23,8.23,0,0,1,3.53.61,4.52,4.52,0,0,1,2,1.67,4.63,4.63,0,0,1,.66,2.47,4,4,0,0,1-2.79,3.87,5.73,5.73,0,0,1,3.19,1.65,4.33,4.33,0,0,1,1.19,3,4.46,4.46,0,0,1-.72,2.5,5.35,5.35,0,0,1-2.12,1.8,7.83,7.83,0,0,1-3.49.69m-1.33-16H61.87v5.51h1.74a4.46,4.46,0,0,0,3-.8,2.72,2.72,0,0,0,.88-2.08c0-1.75-1.12-2.63-3.36-2.63m.2,7.84H61.87v5.81h2.58a8.23,8.23,0,0,0,2.92-.34,2.76,2.76,0,0,0,1.23-1,2.72,2.72,0,0,0,.47-1.52,2.57,2.57,0,0,0-.5-1.53,2.86,2.86,0,0,0-1.39-1A8.68,8.68,0,0,0,64.32,32" transform="translate(-12.3 -12.27)"/><polygon class="cls-3" points="61.93 9.56 72.31 9.56 72.31 11.9 64.55 11.9 64.55 17.48 72.05 17.48 72.05 19.83 64.55 19.83 64.55 25.52 72.56 25.52 72.56 27.85 61.93 27.85 61.93 9.56"/><path class="cls-3" d="M88.27,40.15V21.84h4.59a6.67,6.67,0,0,1,4.41,1.37,4.62,4.62,0,0,1,1.63,3.73,4.79,4.79,0,0,1-.8,2.76A5.71,5.71,0,0,1,96,31.6l4.64,8.55H97.48l-4.08-8H90.89v8Zm3.41-16.08h-.79v5.78h1a7.56,7.56,0,0,0,2.73-.34,2.62,2.62,0,0,0,1.15-1,3,3,0,0,0,.42-1.57,2.86,2.86,0,0,0-.46-1.57,2.57,2.57,0,0,0-1.29-1,9.51,9.51,0,0,0-2.76-.28" transform="translate(-12.3 -12.27)"/><path class="cls-3" d="M56.68,43.8v2.77h-.76V44.44a1.67,1.67,0,0,0-.17-.88.67.67,0,0,0-.6-.25.91.91,0,0,0-.43.1,2.05,2.05,0,0,0-.45.39v2.77h-.76V42.75h.76v.5a1.64,1.64,0,0,1,1.13-.57,1.24,1.24,0,0,1,1.12.68,1.73,1.73,0,0,1,1.27-.69,1.14,1.14,0,0,1,.91.4,1.85,1.85,0,0,1,.36,1.25v2.25h-.75V44.31a1.16,1.16,0,0,0-.2-.73.66.66,0,0,0-.56-.26,1.15,1.15,0,0,0-.87.48" transform="translate(-12.3 -12.27)"/><path class="cls-3" d="M62,42.74a2,2,0,0,1,1.45.56,1.93,1.93,0,0,1,.58,1.42,1.79,1.79,0,0,1-.59,1.37,2.09,2.09,0,0,1-1.47.55,2,2,0,0,1-1.44-.56A1.82,1.82,0,0,1,60,44.7a1.86,1.86,0,0,1,.59-1.4A2,2,0,0,1,62,42.74m0,.68a1.21,1.21,0,0,0-.9.36,1.25,1.25,0,0,0-.34.91,1.21,1.21,0,0,0,.35.89,1.28,1.28,0,0,0,.92.35,1.24,1.24,0,0,0,.91-.35,1.19,1.19,0,0,0,.36-.9,1.23,1.23,0,0,0-.37-.9,1.29,1.29,0,0,0-.93-.36" transform="translate(-12.3 -12.27)"/><polygon class="cls-3" points="55.05 30.48 55.87 30.48 54.18 34.36 53.93 34.36 52.2 30.48 53.03 30.48 54.06 32.83 55.05 30.48"/><path class="cls-3" d="M69.24,41.14a.48.48,0,0,1,.32.13.42.42,0,0,1,.13.32.42.42,0,0,1-.13.31.45.45,0,0,1-.32.14.43.43,0,0,1-.31-.14.43.43,0,0,1,0-.62.43.43,0,0,1,.31-.14m-.38,1.61h.76v3.82h-.76Z" transform="translate(-12.3 -12.27)"/><path class="cls-3" d="M71.58,42.75v.49a1.5,1.5,0,0,1,1.15-.56,1.26,1.26,0,0,1,.66.18,1.16,1.16,0,0,1,.47.51,2.34,2.34,0,0,1,.16,1v2.18h-.76V44.39a1.44,1.44,0,0,0-.18-.83.65.65,0,0,0-.59-.25,1.07,1.07,0,0,0-.91.53v2.73h-.77V42.75Z" transform="translate(-12.3 -12.27)"/><path class="cls-3" d="M75,44.07a1.19,1.19,0,0,1,.44-1,2,2,0,0,1,1.22-.35h1.58v.59h-.78a1.71,1.71,0,0,1,.32.41,1.18,1.18,0,0,1,.08.43,1.09,1.09,0,0,1-.17.59,1.16,1.16,0,0,1-.44.44,2.62,2.62,0,0,1-.87.25c-.29,0-.43.14-.43.29a.25.25,0,0,0,.16.22,2.89,2.89,0,0,0,.58.18,5.48,5.48,0,0,1,.9.24,1,1,0,0,1,.64.93,1,1,0,0,1-.49.87,2.24,2.24,0,0,1-1.29.33,2.28,2.28,0,0,1-1.3-.33,1,1,0,0,1-.49-.87c0-.52.32-.85,1-1-.26-.17-.38-.33-.38-.49a.44.44,0,0,1,.16-.33,1.07,1.07,0,0,1,.44-.22A1.25,1.25,0,0,1,75,44.07m1.24,2.68a1.08,1.08,0,0,0-.62.16.48.48,0,0,0-.25.41c0,.4.36.59,1.06.59a1.78,1.78,0,0,0,.78-.14.46.46,0,0,0,.28-.42c0-.18-.12-.32-.35-.43a2,2,0,0,0-.9-.17m.18-3.34a.69.69,0,0,0-.52.2.66.66,0,0,0-.22.5.64.64,0,0,0,.21.49.76.76,0,0,0,.54.19A.75.75,0,0,0,77,44.6a.67.67,0,0,0,.21-.5.64.64,0,0,0-.21-.49.76.76,0,0,0-.54-.2" transform="translate(-12.3 -12.27)"/><path class="cls-3" d="M84.53,43.8v2.77h-.76V44.44a1.67,1.67,0,0,0-.17-.88.68.68,0,0,0-.6-.25.88.88,0,0,0-.43.1,2.05,2.05,0,0,0-.45.39v2.77h-.76V42.75h.76v.5a1.64,1.64,0,0,1,1.13-.57,1.24,1.24,0,0,1,1.12.68,1.73,1.73,0,0,1,1.27-.69,1.16,1.16,0,0,1,.91.4,1.85,1.85,0,0,1,.36,1.25v2.25h-.75V44.31a1.16,1.16,0,0,0-.2-.73.67.67,0,0,0-.56-.26,1.15,1.15,0,0,0-.87.48" transform="translate(-12.3 -12.27)"/><path class="cls-3" d="M90.49,46.57v-.49a1.84,1.84,0,0,1-.55.41,1.37,1.37,0,0,1-.61.15,1.29,1.29,0,0,1-.67-.18,1.23,1.23,0,0,1-.46-.5,2.44,2.44,0,0,1-.16-1V42.75h.76v2.18a1.55,1.55,0,0,0,.17.84.71.71,0,0,0,.61.23,1.09,1.09,0,0,0,.91-.52V42.75h.76v3.82Z" transform="translate(-12.3 -12.27)"/><path class="cls-3" d="M92.23,46.3v-.82a3.58,3.58,0,0,0,.66.36,1.38,1.38,0,0,0,.56.14.78.78,0,0,0,.41-.11.35.35,0,0,0,.17-.28.41.41,0,0,0-.11-.28,2.18,2.18,0,0,0-.48-.31,3.63,3.63,0,0,1-1-.7,1,1,0,0,1-.23-.63A.89.89,0,0,1,92.6,43a1.38,1.38,0,0,1,.88-.27,2.4,2.4,0,0,1,1.15.31v.75a2.28,2.28,0,0,0-1.1-.41.63.63,0,0,0-.35.09.31.31,0,0,0-.14.25.4.4,0,0,0,.13.26,2.2,2.2,0,0,0,.43.29l.27.15c.63.36.95.76.95,1.19a.93.93,0,0,1-.37.77,1.38,1.38,0,0,1-.94.31,2.25,2.25,0,0,1-.61-.08,4.42,4.42,0,0,1-.67-.26" transform="translate(-12.3 -12.27)"/><path class="cls-3" d="M96.19,41.14a.46.46,0,0,1,.32.13.43.43,0,0,1,.14.32.43.43,0,0,1-.14.31.43.43,0,0,1-.32.14.41.41,0,0,1-.3-.14.41.41,0,0,1,0-.62.41.41,0,0,1,.3-.14m-.37,1.61h.76v3.82h-.76Z" transform="translate(-12.3 -12.27)"/><path class="cls-3" d="M100.64,45.68v.74a3.22,3.22,0,0,1-1.11.22,1.91,1.91,0,0,1-1.43-.54,1.88,1.88,0,0,1-.53-1.42,2.05,2.05,0,0,1,.51-1.45,1.8,1.8,0,0,1,1.37-.55,2.17,2.17,0,0,1,.53,0,3.86,3.86,0,0,1,.58.21v.81a2,2,0,0,0-1.06-.37,1.09,1.09,0,0,0-.84.36,1.29,1.29,0,0,0-.33.91,1.23,1.23,0,0,0,.35.93,1.33,1.33,0,0,0,1,.35,2.44,2.44,0,0,0,1-.25" transform="translate(-12.3 -12.27)"/><path class="cls-3" d="M109.92,54.62H13V12.92h97Zm.65-42.35H12.3v43h98.27Z" transform="translate(-12.3 -12.27)"/></g></g></g></g></svg>