<svg xmlns="http://www.w3.org/2000/svg" viewBox="0 0 380.63 358.43"><defs><style>.cls-1{fill:#ebc7ce;}.cls-2{fill:#d57961;}.cls-3{fill:#93b5d7;}.cls-4{fill:#e2a452;}.cls-5{fill:#4472b3;}.cls-6{fill:#e3a559;}.cls-7{fill:#4c6daf;}.cls-8{fill:#4472b4;}.cls-9{fill:#161417;}.cls-10{fill:#f3efea;}.cls-11{fill:#e9c5cc;}.cls-12{fill:#e5c2c8;}.cls-13{fill:#4572b3;}.cls-14{fill:#eac6cc;}.cls-15{fill:#d47960;}.cls-16{fill:#999898;}.cls-17{fill:#4572b2;}.cls-18{fill:#e7c4ca;}.cls-19{fill:#e1a453;}.cls-20{fill:#4471b0;}.cls-21{fill:#e7c3ca;}.cls-22{fill:#dea253;}.cls-23{fill:#d07361;}.cls-24{fill:#d0775f;}.cls-25{fill:#debdc3;}.cls-26{fill:#474042;}.cls-27{fill:#877579;}.cls-28{fill:#292728;}.cls-29{fill:#24211f;}.cls-30{fill:#2b292a;}.cls-31{fill:#e2a453;}</style></defs><g id="Calque_2" data-name="Calque 2"><g id="Calque_2-2" data-name="Calque 2"><rect class="cls-1" x="0.63" y="198.76" width="380" height="105.98"/><path class="cls-2" d="M208.1,275.68c-.12,4.8-.32,9.46-1.72,14a3.54,3.54,0,0,0-.21.94c0,.52.07,1,.11,1.57.46-.28.95-.52,1.39-.83,1.52-1.05,3-2.26,4.56-3.16a23.25,23.25,0,0,1,19.86-1.53c4,1.4,5.6,5.14,3.66,9A23.23,23.23,0,0,1,224,307a8.81,8.81,0,0,0-1.33.59,7.36,7.36,0,0,0-1,.89,10.4,10.4,0,0,0,.93.71,55.41,55.41,0,0,1,5.14,3.13c4.6,3.53,5.25,8.46,3.81,13.54A15,15,0,0,1,222.84,336c-3.35,1.41-6.73,1.64-10-.27-1.36-.8-1.89-.53-1.92,1a44,44,0,0,1-.23,4.59c-.76,6.52-4,11.35-10.14,13.86a62.62,62.62,0,0,1-9.2,2.81c-8.36,2-14.74-2.74-15.09-11.34-.4-9.78,3.38-17.74,11.16-23.75a2.28,2.28,0,0,0,.39-.28c.37-.39.72-.79,1.08-1.19a5.58,5.58,0,0,0-1.72.27,54.69,54.69,0,0,1-25.43,6.05,23.4,23.4,0,0,1-8.17-1.62c-3.26-1.25-4.77-4.16-5.18-7.6-.83-7,1.4-12.94,6.86-17.4,3.85-3.15,8.56-3.53,13.33-3.26a29.84,29.84,0,0,1,16.76,6.2,5.78,5.78,0,0,0,1,.5,4.6,4.6,0,0,0-.18-1.13,50.53,50.53,0,0,1-3.45-12.3c-1.29-8,.93-15.05,5.68-21.32a29.65,29.65,0,0,1,6.63-6.26c4.66-3.25,8.68-1.95,10.57,2.85C206.8,269.35,208.09,272.11,208.1,275.68ZM204.94,316a3.59,3.59,0,0,0,3.1-3.9,3.75,3.75,0,0,0-4-3,3.55,3.55,0,0,0-3,3.77A3.69,3.69,0,0,0,204.94,316Z"/><path class="cls-3" d="M133.58,297.55c-4.22.2-8.26-1.38-12-3.83a3.61,3.61,0,0,0-1-.28,5.12,5.12,0,0,0,.29.86,14.85,14.85,0,0,1,1.37,9.89c-.93,5-4.35,7.81-8.82,9.43a14.77,14.77,0,0,1-7.63.57c-7.23-1.26-10-6.73-8-13.41a18.32,18.32,0,0,1,5.27-8.57,10.75,10.75,0,0,0,1.2-1.54l-1.68.69a62.88,62.88,0,0,1-6,2.36c-3.58,1-7,.79-9.75-2.16-4.44-4.78-3.79-12.64,2.15-15.39,2.7-1.24,5.52-1,8.33-.38,1,.23,2.07.53,3.12.77a3.37,3.37,0,0,0,.71,0c-.14-.23-.23-.55-.44-.67-2.27-1.34-4.57-2.64-6.84-4-1.4-.83-2.79-1.7-4.16-2.59-2.71-1.77-3.43-4.42-3-7.41a11.13,11.13,0,0,1,9.6-9.74c3.83-.57,6.88,1.07,9.4,3.77,3.75,4,5.15,9,5.26,14.37,0,1.5-.11,3-.13,4.5a4.89,4.89,0,0,0,.21,1.05c.22-.27.57-.5.62-.8.6-3.26,1.57-6.52,1.59-9.79a46.69,46.69,0,0,0-1.45-9.84c-.77-3.68.55-5.82,4.31-6.11a17.61,17.61,0,0,1,5.62.33c3.5.93,6.93,2.17,10.34,3.44A6.83,6.83,0,0,1,134.6,255a3.88,3.88,0,0,1,.42,5.19c-1.85,2.52-3.92,4.89-5.94,7.28s-3.89,4.45-5.81,6.7c-.16.18-.14.52-.2.79l.66-.33c1.57-.92,3.08-2,4.71-2.73,4.76-2.29,9.06-1.51,12.76,2.24,2.21,2.24,4.39,4.5,6.45,6.87,2.55,2.92,2.46,7-.37,10.16C143.76,295.13,139.49,297.73,133.58,297.55Zm-18.74-18.33a3.81,3.81,0,0,0-4,3.88,4,4,0,0,0,4,3.91,3.9,3.9,0,1,0-.07-7.79Z"/><path class="cls-4" d="M277.29,244.45a20.17,20.17,0,0,1-2.61,9.4,6.81,6.81,0,0,0-.35,1.27,6.52,6.52,0,0,0,1.08-.25c4.31-1.78,9.88-1.64,13.43,2.13a13.18,13.18,0,0,1,2.55,13.52,7.41,7.41,0,0,1-7.09,4.93c-4.58.12-8.26-1.75-11.43-4.88a5.13,5.13,0,0,0-.74-.56,4,4,0,0,0,.07,1.05,61.1,61.1,0,0,1,2.37,6.55c.87,3.66-1,6.7-4.73,8.55-3.24,1.58-7.8.93-9.82-1.66-2.23-2.84-1.9-6.21-1.4-9.52.17-1.08.51-2.14.77-3.22-.66,1-1.37,1.9-2,2.9-1.43,2.34-2.54,4.89-4.19,7.08a9.83,9.83,0,0,1-6.15,4.17c-4.84.58-13.89-2.38-15-3.6-.93-.81-2.48-4.65-.46-6.81a40.43,40.43,0,0,1,6.79-5.72c5.43-3.71,11.72-4.76,18.1-5.43a7.73,7.73,0,0,0,.92-.23,3.9,3.9,0,0,0-.95-.41q-6.74-.7-13.46-1.36c-1.53-.15-3.05-.29-4.58-.4a5.51,5.51,0,0,1-5.29-4.48,12.43,12.43,0,0,1,5.74-13.71,6,6,0,0,1,6.83.52c2.38,1.79,4.58,3.81,6.86,5.72.74.63,1.45,1.28,2.23,1.86a13.88,13.88,0,0,0,1.6.89c-.19-.56-.35-1.14-.59-1.68-.61-1.4-1.37-2.74-1.86-4.18a6.57,6.57,0,0,1,1.1-6.85,87.71,87.71,0,0,1,8.32-8,5.83,5.83,0,0,1,7.39.08C275,235.19,277.46,239.23,277.29,244.45Zm-9.16,16.17a3.29,3.29,0,0,0-3.17-3.53,3.6,3.6,0,0,0-3.7,3.36,3.44,3.44,0,0,0,6.87.17Z"/><path class="cls-5" d="M349.32,235.48c0,.44,0,.88,0,1.32-.08,3.79-2.43,6.15-6.24,6.28a3.6,3.6,0,0,0-.57,0c-.46.07-.93.18-1.39.27.2.38.37.77.59,1.13a5.18,5.18,0,0,1-4,8c-2.67.26-4.33-1.46-4.31-4.45,0-.77,0-1.53,0-2.3-.64.39-1.25.81-1.9,1.16a3.77,3.77,0,0,1-5.17-1.57c-1-2.1-.14-4.05,2.33-5.08l1.4-.56c-.55-.13-1.08-.28-1.63-.37a8.47,8.47,0,0,0-1.13-.09c-1.65-.12-2.94-.74-3.36-2.48a4.09,4.09,0,0,1,1.11-4.32,3.46,3.46,0,0,1,4.35-.6,29.25,29.25,0,0,1,3.54,3,4.79,4.79,0,0,1,.46.55,3.19,3.19,0,0,0,0-.82c-.41-1.45-.88-2.89-1.26-4.34-.5-1.94-.06-3.19,1.84-3.72a8.92,8.92,0,0,1,4.56,0c1.9.52,2.42,2,1.83,3.91-.69,2.28-1.4,4.56-2.25,6.79a3.57,3.57,0,0,1-1.49,1.49c-.8.51-1.61,1-1.1,2a1.82,1.82,0,0,0,1.49.77c1-.1,1.37-.86,1.29-1.91a2.77,2.77,0,0,1,.42-1.76,86.47,86.47,0,0,1,6.32-7.44c2-2,3.38-1.42,4,1.38a16.18,16.18,0,0,1,.26,3.75Z"/><path class="cls-5" d="M70.49,208.67c0,.44,0,.88,0,1.32-.09,3.79-2.44,6.15-6.25,6.28a3.47,3.47,0,0,0-.56,0c-.47.08-.93.18-1.39.27.19.38.37.77.59,1.13a5.19,5.19,0,0,1-4,8c-2.66.26-4.33-1.46-4.31-4.45,0-.76,0-1.53,0-2.3-.63.39-1.25.81-1.9,1.16a3.76,3.76,0,0,1-5.16-1.57c-1-2.09-.15-4.05,2.33-5.08l1.39-.56c-.54-.13-1.08-.28-1.62-.37a8.6,8.6,0,0,0-1.13-.09c-1.65-.11-3-.74-3.36-2.48a4.09,4.09,0,0,1,1.11-4.32,3.45,3.45,0,0,1,4.34-.6,27.74,27.74,0,0,1,3.54,3,4,4,0,0,1,.47.54,3.73,3.73,0,0,0,0-.82c-.41-1.45-.89-2.88-1.27-4.34-.5-1.94,0-3.19,1.85-3.72a9,9,0,0,1,4.55,0c1.91.52,2.43,2,1.84,3.91-.69,2.28-1.4,4.56-2.25,6.79a3.57,3.57,0,0,1-1.49,1.49c-.81.51-1.61,1-1.1,2a1.85,1.85,0,0,0,1.48.78c1-.11,1.38-.87,1.3-1.92A2.65,2.65,0,0,1,59.9,211a88.19,88.19,0,0,1,6.31-7.44c2-2,3.39-1.42,4,1.38a16.22,16.22,0,0,1,.26,3.75Z"/><path class="cls-3" d="M292.12,205.39c0,.44,0,.88,0,1.32-.08,3.79-2.43,6.15-6.24,6.28a5.37,5.37,0,0,0-.57,0c-.47.08-.93.18-1.39.27.2.38.37.77.59,1.13a5.2,5.2,0,0,1-4,8c-2.67.25-4.33-1.46-4.31-4.45v-2.31c-.63.39-1.24.81-1.89,1.17a3.78,3.78,0,0,1-5.17-1.58c-1-2.09-.15-4,2.33-5.08l1.4-.55c-.55-.13-1.08-.28-1.63-.38a10.54,10.54,0,0,0-1.13-.09c-1.65-.11-2.94-.74-3.36-2.48a4.09,4.09,0,0,1,1.11-4.32,3.47,3.47,0,0,1,4.35-.6,29.34,29.34,0,0,1,3.54,3,3.53,3.53,0,0,1,.46.55,3.27,3.27,0,0,0,0-.83c-.41-1.45-.88-2.88-1.26-4.34-.51-1.93-.06-3.18,1.84-3.71a8.92,8.92,0,0,1,4.56,0c1.9.52,2.42,2,1.83,3.9-.69,2.28-1.4,4.57-2.25,6.8a3.62,3.62,0,0,1-1.49,1.49c-.8.5-1.61,1-1.1,2a1.83,1.83,0,0,0,1.49.78c1-.1,1.37-.86,1.29-1.92a2.74,2.74,0,0,1,.42-1.75,86.61,86.61,0,0,1,6.32-7.45c2-2,3.38-1.42,4,1.39a16.1,16.1,0,0,1,.26,3.74S292.16,205.39,292.12,205.39Z"/><path class="cls-5" d="M21,298.88c-.22-2.76.63-4.93,3.25-6.1.84-.37.85-.85.47-1.54s-.75-1.36-1.07-2.07a5.77,5.77,0,0,1-.16-4.93,6.12,6.12,0,0,1,2.77-2.52,21.82,21.82,0,0,1,5-1.58c1.11-.24,1.52-.69,1.56-1.8a9,9,0,0,1,.51-2.67A3.54,3.54,0,0,1,36.12,273c2.91-.39,5.58,0,7.49,2.61,1.27,1.74,1.26,1.51,3.31.87,4.49-1.41,10.87-.7,13.23,5.3a5.31,5.31,0,0,1,.53,1.47c.13,1.51,1.09,2.16,2.34,2.79,4.49,2.26,5.25,9.77,1.26,12.78a2.42,2.42,0,0,0-1.06,2.44,7.81,7.81,0,0,1-4.86,8.08,4.59,4.59,0,0,1-2.06.47c-1.55-.13-1.94.68-2.29,2s-.81,3-1.81,3.73c-1.51,1.07-3.54,1.94-5.5,1.09a3.29,3.29,0,0,0-4,.7A9.62,9.62,0,0,1,39.59,319c-1.65.63-3.12-.18-4.37-1.09a10.1,10.1,0,0,1-2.44-2.72c-.85-1.34-1.69-2.28-3.5-2.27S25,310.31,25,308.27a3.58,3.58,0,0,0-1.41-2.75A7.83,7.83,0,0,1,21,298.88Z"/><ellipse class="cls-6" cx="41.6" cy="298.05" rx="4.96" ry="5.53"/><path class="cls-2" d="M327.43,277.79a30.36,30.36,0,0,1,3.44,1.31c1.37.68,1.36.81,2.4-.41a4.41,4.41,0,0,1,4.1-1.6,4.47,4.47,0,0,1,4,3.29,2.8,2.8,0,0,0,2.32,2.38c3,.92,5.12,4.75,4.28,7.44a5.85,5.85,0,0,1-1.25,2.06.82.82,0,0,0,0,1.29,8.51,8.51,0,0,1,1.56,6.55A3.73,3.73,0,0,1,346,303a1.68,1.68,0,0,0-1.06,1.94,10.59,10.59,0,0,1,0,1.38,4,4,0,0,1-5.25,3.8c-1.84-.51-1.84-.51-2.7,1.05-2.2,4-6.65,4.79-10,1.69a3.1,3.1,0,0,0-3.12-.87,7.34,7.34,0,0,1-8.52-7,1.93,1.93,0,0,0-1.16-2.06,4.11,4.11,0,0,1-2.28-4,7.28,7.28,0,0,1,2.82-6c.58-.46.75-.77.38-1.5-1.87-3.61-.15-6.69,4.05-7.09,1.29-.13,1.67-.55,1.91-1.76C321.6,279.78,324.08,277.86,327.43,277.79Z"/><ellipse class="cls-7" cx="331.33" cy="294.73" rx="4.52" ry="4.7"/><path class="cls-2" d="M154.28,203a38.29,38.29,0,0,1,4.17,1.6c1.66.82,1.66,1,2.92-.5a5.77,5.77,0,0,1,9.84,2.05A3.43,3.43,0,0,0,174,209c3.61,1.11,6.22,5.76,5.2,9a7.23,7.23,0,0,1-1.52,2.51,1,1,0,0,0,0,1.56,10.41,10.41,0,0,1,1.9,8,4.5,4.5,0,0,1-2.76,3.53,2,2,0,0,0-1.29,2.36,10.47,10.47,0,0,1,0,1.68,4.85,4.85,0,0,1-6.37,4.61c-2.24-.62-2.24-.62-3.28,1.27-2.67,4.83-8.08,5.83-12.13,2.06A3.75,3.75,0,0,0,150,244.5,8.91,8.91,0,0,1,139.61,236a2.38,2.38,0,0,0-1.41-2.51,5,5,0,0,1-2.76-4.9,8.81,8.81,0,0,1,3.42-7.32c.71-.55.91-.93.45-1.82-2.26-4.39-.17-8.12,4.92-8.61,1.58-.15,2-.67,2.32-2.14C147.2,205.38,150.21,203.05,154.28,203Z"/><ellipse class="cls-7" cx="159.01" cy="223.54" rx="5.49" ry="5.71"/><path class="cls-8" d="M191.62,199.51H69.26a1.07,1.07,0,0,0,0-.31q-1.16-3.58-2.33-7.17c-.3-.92-.66-1.83-.88-2.78-.41-1.86-1.09-3.69-.92-5.72l3-1.77q11.33-6.9,22.66-13.79c8.86-5.37,17.69-10.8,26.61-16.06q9-5.31,18.26-10.22c7.2-3.85,14.51-7.49,21.78-11.22a31.1,31.1,0,0,0,5.12-3,7.18,7.18,0,0,1,.79-.44,25.17,25.17,0,0,0,5.14,7.57,24.87,24.87,0,0,0,9.11,6.49c.16.06.31.16.55.28-.76,1-.27,1.75.35,2.37a16.44,16.44,0,0,0-1,1.85,11.57,11.57,0,0,0-.68,3.65,22.35,22.35,0,0,0,.94,6.8,20.27,20.27,0,0,0,2.2,4.86c.25.44.51.87.71,1.21a8.7,8.7,0,0,0-2.64,3.43,6.78,6.78,0,0,0-.37,4,6.34,6.34,0,0,0,3.4,4.58,9.55,9.55,0,0,0,4.47,1,7.84,7.84,0,0,0,4-1.11l1.51-.92,2.51,1.59a5.84,5.84,0,0,0-.11,1.47c.3,1.48.65,2.95,1.06,4.4.25.86.85,1.64.56,2.61a19.18,19.18,0,0,1-.56,6.36c-.42,1.92-.94,3.83-1.48,5.73C192.61,196.71,192.09,198.1,191.62,199.51Z"/><path class="cls-9" d="M191.62,199.51c.47-1.41,1-2.8,1.4-4.22.54-1.9,1.06-3.81,1.48-5.73a19.18,19.18,0,0,0,.56-6.36c.29-1-.31-1.75-.56-2.61-.41-1.45-.76-2.92-1.06-4.4a5.84,5.84,0,0,1,.11-1.47L191,173.13l-1.51.92a7.84,7.84,0,0,1-4,1.11,9.55,9.55,0,0,1-4.47-1,6.34,6.34,0,0,1-3.4-4.58,6.78,6.78,0,0,1,.37-4,8.7,8.7,0,0,1,2.64-3.43c-.2-.34-.46-.77-.71-1.21a20.27,20.27,0,0,1-2.2-4.86,22.35,22.35,0,0,1-.94-6.8,11.57,11.57,0,0,1,.68-3.65,16.44,16.44,0,0,1,1-1.85c-.62-.62-1.11-1.38-.35-2.37-.24-.12-.39-.22-.55-.28a24.87,24.87,0,0,1-9.11-6.49,25.17,25.17,0,0,1-5.14-7.57,7.18,7.18,0,0,0-.79.44,31.1,31.1,0,0,1-5.12,3c-7.27,3.73-14.58,7.37-21.78,11.22q-9.23,4.92-18.26,10.22C108.43,157.17,99.6,162.6,90.74,168q-11.34,6.89-22.66,13.79l-3,1.77c-.17,2,.51,3.86.92,5.72.22.95.58,1.86.88,2.78q1.17,3.58,2.33,7.17a1.07,1.07,0,0,1,0,.31H67.8c-.51-1.59-1-3.19-1.53-4.78-.4-1.23-.88-2.44-1.25-3.68a38.68,38.68,0,0,1-1.45-6.51l-.45.26-5.87,3.6-13.87,8.54c-1.36.84-2.68,1.71-4,2.57H37.57c-.16-.28.12-.29.24-.37,1.57-1,3.13-2,4.71-3q7.63-4.76,15.3-9.48c6.26-3.86,12.54-7.68,18.81-11.52l13.62-8.35c4.64-2.84,9.25-5.7,13.91-8.5,5.37-3.24,10.74-6.48,16.18-9.61,4.94-2.84,9.92-5.62,15-8.26,5.72-3,11.53-5.8,17.32-8.65,2.5-1.23,5.05-2.36,7.55-3.57,1-.48,1.92-1.07,2.9-1.62l-.6-2.13c-1.38.76-2.67,1.5-4,2.2q-6.18,3.3-12.38,6.57-4.34,2.26-8.72,4.46c-5.56,2.78-11,5.84-16.33,9q-8.41,5-16.76,10.05c-5.29,3.22-10.53,6.51-15.81,9.74-4.73,2.88-9.49,5.72-14.24,8.58q-7.71,4.63-15.44,9.25L49.29,190,34.7,198.72c-.41.25-.8.53-1.19.79H30.1c.85-.56,1.7-1.15,2.57-1.68,4-2.43,8.08-4.83,12.11-7.26,3.49-2.11,6.94-4.29,10.45-6.38,4.32-2.58,8.69-5.07,13-7.63s8.38-5.05,12.57-7.58c3.57-2.14,7.16-4.25,10.71-6.43,5.57-3.42,11.09-6.94,16.67-10.34q6.59-4,13.28-7.83c3.89-2.23,7.79-4.44,11.77-6.51,4.33-2.26,8.75-4.36,13.15-6.5,5.28-2.59,10.43-5.45,15.8-7.8-.1-.81-.24-1.61-.29-2.41s0-1.63,0-2.58c-.3.27-.45.42-.61.55-1.12.9-2.18,1.88-3.36,2.67-2.23,1.48-4.51,2.9-6.82,4.24-4.82,2.79-9.67,5.52-14.52,8.25q-8.36,4.68-16.72,9.3c-4.93,2.71-9.89,5.34-14.83,8-5.22,2.84-10.43,5.71-15.65,8.55-6.72,3.67-13.38,7.42-19.9,11.43-4.49,2.76-9,5.5-13.44,8.34-3,1.91-5.87,4-8.78,6-4.5,3.1-9.08,6.07-13.8,8.84-.62.37-1.26.72-1.9,1.08-.37.21-.6,0-.81-.27a.55.55,0,0,1,.11-.85,11.18,11.18,0,0,1,1-.73c1.22-.75,2.46-1.46,3.69-2.2,4.52-2.72,8.86-5.71,13.16-8.77,2.64-1.88,5.29-3.76,8-5.49,5.38-3.38,10.82-6.66,16.25-9.95q3.36-2,6.81-3.94c3.69-2,7.43-4,11.13-6,4.29-2.35,8.55-4.75,12.84-7.09,6.93-3.78,13.89-7.5,20.82-11.29,5.33-2.91,10.62-5.9,15.93-8.87,5.52-3.09,11-6.2,16.55-9.27a52.25,52.25,0,0,0,4.61-3.17,3.4,3.4,0,0,0,1.13-1.26l-1.36-2.29c-.51.37-1,.76-1.57,1.11-3.51,2.29-7,4.58-10.53,6.86q-6.93,4.45-14.09,8.52-10.8,6.09-21.91,11.63-5.14,2.55-10.27,5.19Q99,149.82,95,152c-4.07,2.25-8.08,4.61-12.17,6.82-5.8,3.12-11.62,6.22-17.24,9.68-4.37,2.69-8.77,5.35-13.11,8.09q-7.83,4.92-15.6,9.94c-2.91,1.87-5.77,3.83-8.68,5.69-1.71,1.1-3.48,2.09-5.22,3.12a2.41,2.41,0,0,1-.51.25c-.15,0-.36.1-.47,0a1.86,1.86,0,0,1-.61-.57c-.16-.29.09-.5.3-.68A19.89,19.89,0,0,1,25.41,192,27.77,27.77,0,0,0,28,190.48c2.55-1.68,5.06-3.42,7.62-5.1,3.72-2.46,7.45-4.91,11.21-7.3q8.25-5.25,16.55-10.39c2.91-1.81,5.86-3.57,8.87-5.23,4.54-2.5,9.15-4.88,13.71-7.36,4.32-2.35,8.58-4.8,12.9-7.15,2.59-1.41,5.21-2.75,7.84-4.07,5.92-3,11.88-5.84,17.76-8.87q7-3.63,13.9-7.54c4.39-2.5,8.67-5.2,13-7.81l6.24-3.77c.79-.47,1.62-.87,2.41-1.34a13.54,13.54,0,0,0,1.18-.86l-.18-3.16-.66.33c-1.88,1.06-3.75,2.14-5.65,3.17-2.76,1.49-5.54,3-8.31,4.4-2.18,1.14-4.39,2.22-6.55,3.4-4.11,2.23-8.16,4.56-12.29,6.75-6.23,3.31-12.52,6.5-18.76,9.78q-7.42,3.9-14.79,7.91-8.16,4.41-16.29,8.91c-3.14,1.74-6.28,3.5-9.35,5.35-3.39,2-6.7,4.18-10,6.3q-4.66,3-9.29,5.95c-1.77,1.15-3.48,2.38-5.26,3.51a122.11,122.11,0,0,0-10.66,7.41,131.47,131.47,0,0,1-13.06,9.05,3.18,3.18,0,0,1-.88.4.65.65,0,0,1-.55-.15.7.7,0,0,1,0-.6,1.34,1.34,0,0,1,.43-.46c.78-.58,1.56-1.17,2.36-1.72s1.54-.91,2.26-1.43c1.92-1.4,3.85-2.8,5.73-4.26s3.7-3.09,5.65-4.5c2.11-1.55,4.34-2.94,6.52-4.4,2.47-1.65,4.93-3.33,7.42-4.95,3.11-2,6.24-4,9.37-6,3.49-2.21,7-4.47,10.51-6.59,3-1.78,6.08-3.4,9.14-5.07q6.66-3.63,13.34-7.2,10-5.35,19.94-10.67c3.29-1.74,6.66-3.34,10-5.06,4.73-2.45,9.43-4.94,14.14-7.43,2-1.07,4-2.24,6.05-3.28,4.29-2.19,8.6-4.32,12.9-6.47l4.57-2.27c.59-.28,1.18-.54,1.78-.78a.74.74,0,0,0,.5-.66c.29-1.51.62-3,.93-4.52,0-.06,0-.12,0-.19l-.13.09a1.51,1.51,0,0,0-.35.2,12.32,12.32,0,0,1-4.21,2.36,9.82,9.82,0,0,0-1.56.68c-1.22.64-2.4,1.34-3.63,2-4.39,2.22-8.79,4.39-13.17,6.64-3,1.55-6,3.18-9,4.78-3.73,2-7.43,4-11.17,5.93-5,2.57-10,5-14.92,7.65s-9.83,5.34-14.72,8.05c-3.86,2.14-7.66,4.36-11.53,6.46-5.83,3.18-11.68,6.36-17.58,9.42s-11.63,5.84-17.44,8.78c-7,3.55-13.94,7.27-20.73,11.25-4.17,2.44-8.27,5-12.39,7.55-2.46,1.52-4.9,3.07-7.37,4.58a21.07,21.07,0,0,1-2,1H0v-.65l.2-.1c.13-.09.28-.16.41-.25,3.42-2.41,6.81-4.88,10.29-7.22s6.91-4.66,10.52-6.74c5.49-3.17,11.07-6.21,16.69-9.16,4.71-2.47,9.53-4.72,14.3-7.07l4.05-2c-.08-.78-.19-1.51-.21-2.23,0-1.92-.13-3.85,0-5.77.18-2.53.55-5,.86-7.56.17-1.42.39-2.84.58-4.26a55.12,55.12,0,0,1,1.86-8.71c.41-1.32.9-2.61,1.18-4a58.08,58.08,0,0,1,3.8-10.74c.87-2,2-4,3-6a25.73,25.73,0,0,1-1.55-5,22.21,22.21,0,0,1-.59-4.81,12.23,12.23,0,0,1,.4-4.09c.55-1.89,1.1-3.78,1.72-5.65A16.75,16.75,0,0,1,68.75,87a29.2,29.2,0,0,1,3.92-5.45,45.79,45.79,0,0,1,7.24-6.23A25.91,25.91,0,0,1,91.6,70.89a18.58,18.58,0,0,1,9.27,1c1,.39,2,.94,3,1.45l1.68-.57c-.32-.9-.65-1.75-.93-2.62A28.72,28.72,0,0,1,103.8,55c.37-1.64.32-1.65,1.29-2.61a17.31,17.31,0,0,1,1-7.57c-.07-.13-.14-.27-.23-.41a53.61,53.61,0,0,1-3.38-6.18c-.71-1.46-1.51-2.87-2.27-4.29-.54-1-1.1-2-1.64-3a3.13,3.13,0,0,1-.24-.6.53.53,0,0,1,.65-.7,5,5,0,0,1,.92.32c1.33.66,2.65,1.34,4,2L106,33.09c6.41-6.09,13.63-9.89,22.62-9a22.44,22.44,0,0,1-.58-2.47,10.6,10.6,0,0,1,.06-2.18,13.19,13.19,0,0,1,3.41-7.73,6.81,6.81,0,0,1,5.29-2.58,18.56,18.56,0,0,1,5.29.63,5.28,5.28,0,0,1,2,1c.47.41,1,.77,1.48,1.14a18.1,18.1,0,0,1,3.78,3.53c.46.6.9,1.22,1.38,1.8a22,22,0,0,1,3.73,7.05c.5,1.51.93,3.05,1.53,4.51.8,2,1.75,3.95,2.63,5.92a15.62,15.62,0,0,0,3.26,4.51,7.07,7.07,0,0,0,2.39,1.65,4.79,4.79,0,0,0,4.58-.34c.67-.42,1.14-.18,1.2.61a2.83,2.83,0,0,1-.13,1.12,10.17,10.17,0,0,1-.64,1.48,67.68,67.68,0,0,1-4.76,7.34,4.42,4.42,0,0,1-2.3,1.71,4.72,4.72,0,0,0-1.88,1.08,6.16,6.16,0,0,0-1.81,6.22,9.84,9.84,0,0,1,.29,3.7,16.54,16.54,0,0,1-.34,2,1.81,1.81,0,0,0,.12,1.26,3.22,3.22,0,0,0,1.62,1.63c1.19.53,2.39,1,3.56,1.57a49.79,49.79,0,0,1,6,3.32,71.52,71.52,0,0,1,7.51,5.8,27,27,0,0,1,3.8,3.76c.71.91,1.45,1.8,2.19,2.71a3.63,3.63,0,0,1,4.43,1.76,14.38,14.38,0,0,1,1.22-.89,4.47,4.47,0,0,1,1.4-.58,5.72,5.72,0,0,1,4.35,1.16,2.35,2.35,0,0,1,1,1.69c0,.23.06.46.09.76a5.46,5.46,0,0,0,.66-.23c1.13-.53,2.26-1,3.36-1.62,2.28-1.17,4.55-2.38,6.82-3.58,1.88-1,3.78-2,5.65-3,1-.54,1.94-1.2,3-1.68,3.2-1.51,6.41-3,9.64-4.44,3.94-1.77,7.81-3.7,11.57-5.83,1.18-.66,2.31-1.41,3.49-2.06,1-.53,2-.9,3-1.46,2.41-1.38,5-2.46,7.3-4,.13-.08.33-.15.37-.27.19-.55.68-.64,1.13-.83a1.36,1.36,0,0,0,.63-.44,8.59,8.59,0,0,0,.87-1.64c1-2.68,1.94-5.38,2.91-8.07.24-.68.53-1.36.76-2,.3-.89.57-1.8.85-2.7a5.84,5.84,0,0,0,.41-1.46,1.24,1.24,0,0,1,1-1.11,7,7,0,0,1,.8-.12l4.65-.62c-.2-.19-.34-.3-.45-.43a10.75,10.75,0,0,1-1-1.18A1.2,1.2,0,0,1,263,40a3.88,3.88,0,0,1,1.26-2.12A5.74,5.74,0,0,1,269,36.77a2.91,2.91,0,0,1,1.29.61A10.65,10.65,0,0,1,271.76,39a1.92,1.92,0,0,1,.2,2.07,2.47,2.47,0,0,0-.07.4l3.64-.29c-.44-.55-.83-1-1.17-1.49a1.78,1.78,0,0,1,.31-2.59,5.83,5.83,0,0,1,1.13-.78,4.29,4.29,0,0,1,5.93,1.73,1.78,1.78,0,0,1,0,1.85,5.64,5.64,0,0,0-.28.7l3.47-.35a2.75,2.75,0,0,0,.27-.07c-.08-.21-.16-.41-.23-.61a3.12,3.12,0,0,1,.12-2.65,4.37,4.37,0,0,1,4.62-2.13,3.5,3.5,0,0,1,2.81,3.7,11.55,11.55,0,0,1-.22,1.31,29.64,29.64,0,0,0,3.77-.31,15.74,15.74,0,0,1-.32-2.18,2.45,2.45,0,0,1,3.23-2.2,3.6,3.6,0,0,1,2,3.08c0,.23,0,.47,0,.75l5.8-.47-.1-.69a2.75,2.75,0,0,1,1-2.66c1.5-1.22,4-.58,4.47,1.2.09.36.24.71.34,1,1.61-.06,3.18-.11,4.74-.2a.78.78,0,0,1,.88.53,9.76,9.76,0,0,1,.37,1.16,13.22,13.22,0,0,1,.4,5.93,12.34,12.34,0,0,0-.3,1.68c-.22,3-1.87,5.19-4,7A15.42,15.42,0,0,1,309,56.38a5.6,5.6,0,0,1-4.87-.76,24.43,24.43,0,0,1-2-1.49c-.55-.43-1.06-.91-1.63-1.41a8.33,8.33,0,0,0-1.43,1.07,27.83,27.83,0,0,0-2,2.48,58.18,58.18,0,0,1-6.64,7.22c-2.38,2.35-4.94,4.53-6.81,7.39l-.46-.15c-1.53-.6-3.05-1.23-4.61-1.77a15.53,15.53,0,0,0-3.33-.62,6.27,6.27,0,0,0-3.77.86c-3.23,1.7-6.5,3.31-9.75,5-.36.18-.7.39-1.07.6.06.25.1.46.15.67a1.79,1.79,0,0,1-1.63,2.42,1.83,1.83,0,0,0-.47.14c-1.18.6-2.37,1.17-3.52,1.82-1.89,1-3.72,2.21-5.62,3.24s-3.86,2-5.8,2.9c-3.54,1.74-7.11,3.42-10.64,5.19q-6.23,3.12-12.4,6.36c-4.42,2.29-8.81,4.62-13.21,6.93-.73.38-1.48.74-2.21,1.1,2.06,4.76,1.53,4,1.65,6.89a9.55,9.55,0,0,1,2,1.12,9.87,9.87,0,0,1,1.32,2,8.29,8.29,0,0,1,3.74,1.21,26.37,26.37,0,0,1,7.85,7.06,32,32,0,0,1,4.16,7.66,34.61,34.61,0,0,1,.9,3.36,27,27,0,0,1,.95,8c0,.32,0,.64,0,.8,1.13.76,2.19,1.37,3.12,2.13a17.52,17.52,0,0,1,4.9,6.17,39.4,39.4,0,0,1,1.56,4.08,18.49,18.49,0,0,1,.66,4.38c.08,1,.23,1.88.27,2.83a53.57,53.57,0,0,1-.12,8.59,45.5,45.5,0,0,1-.74,4.63,56,56,0,0,1-1.93,5.92,30,30,0,0,1-4.67,8.66,25.08,25.08,0,0,1-5.31,5.33,7.75,7.75,0,0,1-2.33,1.26,8,8,0,0,0-1.38.46,8.93,8.93,0,0,1-5.38.74,31.86,31.86,0,0,1-4.45-.89,28.72,28.72,0,0,1-5.48-2.18,20.55,20.55,0,0,1-4.75-3.64,25.26,25.26,0,0,1-4.58-5.75c-.15-.28-.35-.53-.58-.87a3.73,3.73,0,0,0-.1.39,32,32,0,0,1-1,5.57c-.75,2.71-1.29,5.47-2.27,8.11ZM289.28,54.09l.81-.47a26.39,26.39,0,0,1,4.85-2.09,1.48,1.48,0,0,1-.4.39,41.79,41.79,0,0,0-5.12,4,9,9,0,0,0-1.86,2l.87,1.2c1.07-.67,2.13-1.38,3.23-2,1.65-1,3.34-1.87,5-2.82a1.58,1.58,0,0,0,.67-.66,18.11,18.11,0,0,0,1.37-4,4.45,4.45,0,0,1,.18-.56c1.16.51,1.72,1.6,2.6,2.33l3.42-1.85.32.17L302,52c.79.7,1.57,1.41,2.37,2.09a2.69,2.69,0,0,0,.68.43,4.87,4.87,0,0,0,4,.39c.53-.21,1-.52,1.52-.76a11.73,11.73,0,0,0,4.66-3.92,11.56,11.56,0,0,0,2-4.47c.23-1.14.46-2.28.62-3.43a11.45,11.45,0,0,0-.06-3.7c-.89,0-1.7,0-2.5.07-1.59.12-3.17.25-4.75.45-2.44.3-4.88.69-7.32,1-1.39.18-2.79.27-4.19.41-3.07.3-6.13.64-9.2.9-1.51.13-3,.1-4.54.22-2.7.22-5.39.5-8.08.75-3,.28-6,.51-9,.83-2.82.3-5.63.69-8.45,1a.64.64,0,0,0-.61.44c-.27.76-.59,1.51-.81,2.28-.36,1.22-.64,2.46-1,3.67-.32,1.06-.8,2.07-1.1,3.13a41.85,41.85,0,0,1-2.9,7.15c1.2.78,1.87,2.07,2.79,3.17a6,6,0,0,0,.55-.24c2.24-1.36,4.5-2.69,6.72-4.08,1.31-.81,2.51-1.8,3.83-2.58A77.51,77.51,0,0,0,275,51.71a.82.82,0,0,1,.82-.28,15.28,15.28,0,0,1-1.43,1.39,69.09,69.09,0,0,1-6.74,4.79,19.43,19.43,0,0,0-2.17,1.44,62.86,62.86,0,0,1-6.16,4.05l-2.86,1.7L258,68.06c1.18-.67,2.33-1.23,3.37-2,3.91-2.7,8-5.13,12-7.66a48.19,48.19,0,0,0,6-4.15c.59-.5,1.24-.92,1.86-1.38l.21.19-2.14,1.75a28.16,28.16,0,0,1-2.23,1.86c-2.66,1.8-5.36,3.56-8.05,5.32-1.8,1.18-3.63,2.34-5.45,3.51-1.2.77-2.41,1.55-3.62,2.31-.52.32-1.07.61-1.62.92l.95,2.28c4.5-2.8,9.23-5,13.78-7.43.16-.64.28-1.19.44-1.73a3,3,0,0,1,1.1-1.57,1.59,1.59,0,0,1,1.81-.24l1.46.79c1.38-.86,2.83-1.7,4.22-2.64,2.57-1.73,5.11-3.52,7.66-5.28l.33.19-.21.29-.67.58-.15.19ZM275,62.52a6.38,6.38,0,0,0,2.17-1.15c-.22-.47-.5-.4-.77-.23A3.56,3.56,0,0,0,275,62.53l0,0Zm-12.58,8c-.07,0-.16-.11-.21-.08A20.9,20.9,0,0,0,259.72,72l.61,1.77a7.5,7.5,0,0,1,.36-.74l1.69-2.43,0-.1Zm23.8-14.33-3.31,2.37c.74.16,1.42.27,2.07.46a.83.83,0,0,1,.61,1c0,.24-.05.48-.09.89a3.44,3.44,0,0,0,1.06-1.85A1,1,0,0,0,286,57.9a2.49,2.49,0,0,1-.51-.45l.73-.93.43-.38-.1-.12ZM171.9,90.92a2.86,2.86,0,0,0,.42-.24,5.21,5.21,0,0,1,3.26-1,5.39,5.39,0,0,1,2.95.68,3.86,3.86,0,0,0,.23-.78.89.89,0,0,0-.11-.59c-1.21-1.39-2.82-2-4.59-.86a6.11,6.11,0,0,0-2.28,2.67l-.12.25Zm8.7-1.38,1.18-.27a4.92,4.92,0,0,1,3.76.31,3.75,3.75,0,0,0,.83.3,2,2,0,0,0,.28-1.66,6.86,6.86,0,0,0-.89-1.33,1.36,1.36,0,0,0-1.15-.49,3.62,3.62,0,0,0-3,1.4c-.43.52-.77,1.1-1.14,1.65l0,.19Zm88.85-22.6a18.84,18.84,0,0,1,4.44-.09,1.69,1.69,0,0,0,.84-.21c1.15-.59,2.29-1.21,3.43-1.82l1-.61A8.62,8.62,0,0,0,277.66,62c-.62.38-1.21.76-1.81,1.12A15.16,15.16,0,0,0,274,64.23c-.54.46-1.24.47-1.81.83-1,.63-2.14,1.15-3.21,1.71l-.71.36c.13.11.21.12.29.1Zm26.31-11.25c-.26.13-.55.23-.8.38-2.08,1.26-4.15,2.53-6.23,3.78a2.58,2.58,0,0,0-.94,1A19.55,19.55,0,0,1,286.33,63a1.53,1.53,0,0,1-1.94.56L283.22,63l-2.53,1.36c.37,1.34,1.44,2.34,1.42,3.88a8.64,8.64,0,0,1-2.5-3.35L276,66.8a27.2,27.2,0,0,1,7.36,2.37c.19-.23.33-.39.48-.55,1.06-1.19,2.08-2.42,3.19-3.56,2.2-2.27,4.47-4.48,6.68-6.75.77-.79,1.44-1.67,2.16-2.52l0-.21ZM106.05,73.92c-1.34.73-2.62,1.35-3.83,2.1a15.46,15.46,0,0,0-2.16,1.71,38.49,38.49,0,0,0-7.22,7.75,13.32,13.32,0,0,0-2.39,6.11,29.17,29.17,0,0,0,.24,7.92,46,46,0,0,0,2.88,9.61c.93,2.22,2,4.38,3.05,6.54a25,25,0,0,0,2,3.45,31.74,31.74,0,0,0,4.13,5,72.6,72.6,0,0,0,6.23,5.53,1,1,0,0,0,1.17.11c5.8-3,11.62-6,17.42-9.05,4.46-2.33,8.89-4.71,13.37-7,3-1.55,6.13-3,9.19-4.46,1-.47,1.91-1,2.88-1.48-.08-.44-.17-.81-.22-1.18-.21-1.36-.31-2.74-.55-4.08a38.19,38.19,0,0,0-1.61-6c-1.08-3-2.32-5.93-3.53-8.88-1.31-3.2-2.66-6.38-4-9.57-.08-.19-.2-.37-.31-.57l-1.09.4c.2.52.39,1,.56,1.48.25.71.46,1.44.74,2.14A60.3,60.3,0,0,1,145.68,90a46,46,0,0,1,1.39,8.71c.06,1,0,2,0,3a1.11,1.11,0,0,1-.93,1.09c-.56.15-1.1.17-1.45-.38a4.89,4.89,0,0,1-.65-1.29c-.36-1.24-.66-2.5-1-3.76A92.08,92.08,0,0,0,139.62,87c-.91-2.48-2.1-4.87-2.49-7.63-1.17.32-2.28.64-3.4.93-2.32.6-4.63,1.35-7,1.75-2.66.45-5.37.59-8.07.83a9.67,9.67,0,0,1-1.86-.06c-1.31-.15-2.62-.45-3.93-.5a2.78,2.78,0,0,1-2-1,4,4,0,0,1-.44-.48c-.94-1.36-1.9-2.7-2.79-4.08C107.06,75.88,106.6,74.93,106.05,73.92Zm89.33,102.31c.31,1.06.58,2,.87,2.92a38.56,38.56,0,0,0,2.85,6.52,13.2,13.2,0,0,0,2.68,3.64c.34.31.66.64,1,.95a24.63,24.63,0,0,0,4.83,3.67,35.15,35.15,0,0,0,6.53,2.64,15.23,15.23,0,0,0,7,.67,2.35,2.35,0,0,0,.7-.2,19.8,19.8,0,0,0,4.54-3.38,27.7,27.7,0,0,0,6.49-10.17c.17-.48.38-1,.55-1.44.55-1.58,1.19-3.14,1.61-4.76a40.37,40.37,0,0,0,1.24-9.86,71.29,71.29,0,0,0-.47-7.45,11.36,11.36,0,0,0-.36-2.07,28.52,28.52,0,0,0-2.52-6.29,17.08,17.08,0,0,0-3.13-4.22,9.79,9.79,0,0,0-3-2.1,28.31,28.31,0,0,0-3.36-1.15,27.83,27.83,0,0,0-2.86-.45,5.52,5.52,0,0,1,.11,4.34c-.33,1.22-.79,2.41-1.21,3.61a22.39,22.39,0,0,1-.81,2.11,36.4,36.4,0,0,1-4,6.76c-1.46,1.92-3,3.75-4.53,5.63a42.18,42.18,0,0,1-3.91,4,58.13,58.13,0,0,1-5.79,4.57,10.68,10.68,0,0,1-3.3,1.49A6.83,6.83,0,0,1,195.38,176.23ZM105,53.5a49.07,49.07,0,0,0-.73,5.23,30.46,30.46,0,0,0,1.57,11c1.26,4,3.44,7.57,5.58,11.14a2.67,2.67,0,0,0,.31.36,3.63,3.63,0,0,1,.75-.14c1.13,0,2.26.14,3.4.19a21.3,21.3,0,0,0,2.26,0c1.65-.11,3.29-.31,4.94-.39a48.24,48.24,0,0,0,10-1.57c2-.51,3.92-1,5.87-1.55.73-.2,1.42-.52,2.15-.72a33.6,33.6,0,0,0,8.6-4.13,28.43,28.43,0,0,0,5.42-4.38,7.32,7.32,0,0,1,.66-.59,4.68,4.68,0,0,0,1.85-3.89c0-.67-.14-1.33-.19-2A15.9,15.9,0,0,0,156,56.55a6.64,6.64,0,0,0-4.2-3.41,6.87,6.87,0,0,0-2.64-.29,1.63,1.63,0,0,0-1.56.94c-.56,1.17-1,2.37-1.57,3.59l1,.56c1.27.73,2.55,1.42,3.81,2.17.76.46.82,1.08.25,1.82a2.59,2.59,0,0,1-.29-.14,81.48,81.48,0,0,0-7.34-4.31c-1-.55-2-1.13-3.1-1.6a51.8,51.8,0,0,0-12.06-3.7,44.62,44.62,0,0,0-5.14-.67c-2.21-.12-4.43-.08-6.65,0a31.14,31.14,0,0,0-6.59.77C108.31,52.66,106.72,53.08,105,53.5Zm88.22,56.43a14.49,14.49,0,0,0-3.56-2.75,14.07,14.07,0,0,0-3.77-1.21,10,10,0,0,0-4.34.35c-1.86.56-3.69,1.21-5.53,1.84a29.14,29.14,0,0,0-13.05,9,2,2,0,0,0-.45,1.17,17.32,17.32,0,0,0,.71,5.68,19.47,19.47,0,0,0,3.55,7.05,36.83,36.83,0,0,0,10.62,9.3,12.33,12.33,0,0,0,3.17.88c.1,0,.22,0,.32,0a28.49,28.49,0,0,0,7-1.84,19.74,19.74,0,0,0,8.36-5.95A43.86,43.86,0,0,0,199,129a3.4,3.4,0,0,0,.47-2.54c-.23-1.41-.4-2.83-.58-4.25-.09-.69-.09-1.4-.22-2.09a20.7,20.7,0,0,0-2.85-7.18,7.67,7.67,0,0,0-2-2.31l-.8.32C192.63,110.49,193.12,110.27,193.25,109.93Zm-14.43,34.16a5.55,5.55,0,0,0-.21.6,15.07,15.07,0,0,0-.33,5.23,24,24,0,0,0,1.39,6.4,32.63,32.63,0,0,0,6.66,10.76c.54.57,1.12,1.1,1.67,1.66a30.9,30.9,0,0,0,6.46,4.86c.72.43,1.51.74,2.2,1.21a1.34,1.34,0,0,0,1.57.1c.21-.12.43-.22.63-.36,1.09-.8,2.2-1.58,3.25-2.42a46.89,46.89,0,0,0,6.73-6.33c1.11-1.3,2.19-2.61,3.29-3.91a34.4,34.4,0,0,0,5-7.93c.86-1.89,1.53-3.87,2.22-5.83a8.55,8.55,0,0,0,.46-2.29,4.9,4.9,0,0,0-.25-2.06,25,25,0,0,0-3.39-5.71,39,39,0,0,0-8-7.56,28.16,28.16,0,0,0-6.87-3.6,4.5,4.5,0,0,0-.63-.15c0,.17,0,.27,0,.37a15,15,0,0,1-.64,4.32,19.68,19.68,0,0,1-11,11.66,19.93,19.93,0,0,1-5.55,1.44C181.89,144.73,180.28,145.16,178.82,144.09ZM87.56,94.87l-.2,0a36.56,36.56,0,0,0-3.14,6.29c-1.49,4-2.67,8.16-3.86,12.29-.22.75-.38,1.52-.57,2.28l-1.62,6.77c-.22.92-.47,1.83-.64,2.76a54.52,54.52,0,0,0-.78,8.64,18.5,18.5,0,0,0,.25,3.32c.37,2.43.81,4.85,1.23,7.27.13.73.31,1.46.46,2.16l29.62-16.11c-1-.66-2-1.32-3-2a54.1,54.1,0,0,1-4.31-3.69,30.64,30.64,0,0,1-5.07-6.19,44.11,44.11,0,0,1-3.56-7.19c-1.17-2.82-2.2-5.7-3.31-8.54a20.65,20.65,0,0,1-1.42-6.71Zm14.69-21c-.15-.06-.29-.13-.43-.17-1.08-.26-2.15-.54-3.24-.75a12.4,12.4,0,0,0-1.93-.22,24.89,24.89,0,0,0-6.61.47,21.89,21.89,0,0,0-6.89,2.53,34.94,34.94,0,0,0-10.79,10A21,21,0,0,0,69,93.1c-.16.68-.39,1.35-.56,2-.27,1.07-.56,2.13-.78,3.22a14.75,14.75,0,0,0,0,4.35,19.77,19.77,0,0,0,1.83,7.09c.61,1.24,1.24,2.47,1.89,3.68a12.25,12.25,0,0,0,2.54,3.14,11.43,11.43,0,0,1,2,2.13c.25.38.55.72.87,1.15.08-.27.14-.47.19-.67a82.18,82.18,0,0,1,2.79-10c.79-2.3,1.7-4.56,2.54-6.84a21.82,21.82,0,0,1,1-2.81c1.3-2.34,2.72-4.61,4.07-6.92a4.45,4.45,0,0,0,.42-1,14.78,14.78,0,0,1,.64-2.5,21,21,0,0,1,2.18-3.87c1.5-2,3.15-3.85,4.81-5.7A22.06,22.06,0,0,1,98.15,77a22,22,0,0,1,4-2.94S102.22,74,102.25,73.91ZM67.9,111.46c-.13.38-.23.68-.35,1-.73,1.83-1.55,3.64-2.2,5.5-1,3-2.21,6-3,9.06-.6,2.33-1.43,4.6-2,6.93A81,81,0,0,0,58.54,147a23.17,23.17,0,0,0-.15,2.35c.07,2.4.19,4.8.3,7.2a6.21,6.21,0,0,0,.2.9c6.37-3.21,12.55-6.57,18.61-10-.22-.65-.44-1.2-.58-1.77-.28-1.1-.58-2.2-.76-3.31a64,64,0,0,1-.84-6.6,60.35,60.35,0,0,1,1-13.41,1.69,1.69,0,0,0-.39-1.56c-1-1-2-2.09-3-3.08a18.31,18.31,0,0,1-3.49-3.81C69,113.09,68.46,112.33,67.9,111.46Zm89-54.37.16,0c.21-.82.47-1.64.61-2.47a18.87,18.87,0,0,0-.05-5.09,2.9,2.9,0,0,0-.18-.62c-.24-.74-.5-1.48-.74-2.22a16.76,16.76,0,0,0-1.52-4.09c-1.21-1.88-2.5-3.72-3.75-5.58a9.74,9.74,0,0,0-2.51-2.61,10.44,10.44,0,0,1-.76-.73,20.79,20.79,0,0,0-2.28-1.93c-1.49-1-3-1.87-4.6-2.73a25.07,25.07,0,0,0-3.51-1.67,34.24,34.24,0,0,0-8.13-1.78,22.34,22.34,0,0,0-5.1-.1,24.36,24.36,0,0,0-8.68,2.48,40.23,40.23,0,0,0-4.67,2.6c-1.15.85-2.36,1.62-3.54,2.43l-.84.58,3,1.88A13.8,13.8,0,0,1,115,33.88a24.36,24.36,0,0,1,5.66,0c2,.28,4,.6,6,.92a19.69,19.69,0,0,1,7.18,2.63,33.42,33.42,0,0,1,5.8,4.14,56.25,56.25,0,0,1,6,6.83c.66.84,1.23,1.76,1.83,2.65C152.37,50.3,155.27,52.69,156.88,57.09Zm10.7-15.28c-1,0-1.93.1-2.9.07a6,6,0,0,1-2.8-.71,13.81,13.81,0,0,1-5.8-6.38,71.61,71.61,0,0,1-3.52-8.88c-.4-1.26-1-2.47-1.37-3.72A9.58,9.58,0,0,0,150,19.54q-1.42-2-2.89-4A7.12,7.12,0,0,0,146,14.18c-1.38-1.14-2.79-2.24-4.2-3.32a3.45,3.45,0,0,0-.94-.47A13.28,13.28,0,0,0,137,9.7a4.66,4.66,0,0,0-3.9,1.6,14.27,14.27,0,0,0-3.26,6.53,26.39,26.39,0,0,0-.21,6.35c.3.05.59.1.88.17,2,.44,4,.74,5.91,1.36a43.32,43.32,0,0,1,9.51,4.86,13.24,13.24,0,0,1,1.71,1.48,13.4,13.4,0,0,0,1.25,1.14,8.63,8.63,0,0,1,2,2,30,30,0,0,0,2.17,2.93,21.55,21.55,0,0,1,2.07,3,13.83,13.83,0,0,1,1.26,2.63c.52,1.36.93,2.76,1.43,4.12a11.54,11.54,0,0,1,.46,2.79c.08.88.15,1.75.23,2.68a5.11,5.11,0,0,0,2-1.17A26.47,26.47,0,0,0,167.58,41.81Zm25.6,60.35c.81-.4,1.49-.7,2.14-1.07,1.61-.93,3.19-1.93,4.83-2.81,3-1.62,6-3.18,9-4.76,3.25-1.7,6.51-3.41,9.77-5.1q9.06-4.69,18.14-9.37l16.27-8.41,2.19-1.17-1.88-3.38c-.76.35-1.44.63-2.08,1q-7.67,4-15.32,8c-2.47,1.28-4.94,2.58-7.45,3.77-6,2.88-12,5.8-17.91,8.92-5.17,2.75-10.4,5.41-15.62,8.08a1.31,1.31,0,0,0-.72,1c-.4,1.54-.81,3.08-1.21,4.62C193.3,101.57,193.26,101.77,193.18,102.16ZM251,62.23c-.23.14-.38.21-.51.3a32,32,0,0,1-4.14,2.38c-1.46.68-2.88,1.47-4.32,2.23-1,.55-2.1,1.1-3.14,1.68-.66.37-1.29.79-2,1.16-3.83,2.11-7.77,4-11.74,5.86-4.45,2.08-9,3.93-13.23,6.49-1.8,1.09-3.75,1.92-5.63,2.87-2.7,1.36-5.34,2.85-8.15,4-.67.27-1.34.57-2,.86a1.22,1.22,0,0,0-.67.65,8.08,8.08,0,0,1-.8,1.21c.05.38.14.91.18,1.45s0,1,0,1.65c.57-.25,1-.44,1.49-.67,3.86-2,7.74-4,11.58-6,4.84-2.58,9.69-5.13,14.63-7.51s9.88-4.77,14.75-7.3c5.15-2.67,10.3-5.36,15.53-7.88a3.09,3.09,0,0,0,.31-.25ZM123.45,49.9c-.11-.45-.17-.82-.29-1.17a13,13,0,0,0-4.1-5.82,54.65,54.65,0,0,0-7.6-5.12c-2.86-1.69-5.71-3.4-8.58-5.08-1.09-.65-2.2-1.27-3.31-1.9a3.23,3.23,0,0,0-.57-.18l.86,1.55c.91,1.6,1.87,3.17,2.69,4.81A85.28,85.28,0,0,0,107,44.91c1.05,1.64,2,3.35,3,5,0,.09.12.17.16.24A64.28,64.28,0,0,1,123.45,49.9Zm102.78,92.89A30.28,30.28,0,0,0,219.88,125c-2.57-3.36-7.45-7.55-9.67-8.09a6.13,6.13,0,0,1-.92,3.39c-1,1.75-2.25,3.41-3.4,5.11-.3.46-.63.91-.89,1.29l5.14,3.32c.13-.11.3-.24.46-.39a5,5,0,0,1,2.86-1.2,9.74,9.74,0,0,1,4.31.53,4.84,4.84,0,0,1,1.26.69,7.87,7.87,0,0,1,1.72,1.92,7.66,7.66,0,0,1,1.42,3.48,9.18,9.18,0,0,1-.37,4,7,7,0,0,1-1.25,2.7,2.46,2.46,0,0,0-.17.36A34.4,34.4,0,0,1,226.23,142.79Zm-34.66-36.74c.32-.14.47-.19.61-.27l3.28-1.77c3.83-2.05,7.7-4.05,11.5-6.17,4.46-2.5,9.07-4.7,13.64-7,3-1.51,6.16-2.89,9.24-4.34,9.08-4.26,17.9-9,26.65-13.89a2.9,2.9,0,0,0,.34-.25l-.93-2.11-.28.06c-2.74,1.4-5.49,2.79-8.22,4.22-4.77,2.48-9.52,5-14.28,7.49l-11.34,6c-2,1-4,2-6,3-3.58,1.89-7.15,3.81-10.73,5.72-2.09,1.12-4.21,2.2-6.27,3.38a43.44,43.44,0,0,1-5.45,2.85,1.47,1.47,0,0,0-.73.58C192.23,104.34,192,105.12,191.57,106.05Zm65.65-32.71-.9.47c-2.66,1.44-5.33,2.87-8,4.34-6.47,3.6-13.11,6.87-19.77,10.1-3.81,1.85-7.66,3.64-11.47,5.51-2.86,1.4-5.7,2.85-8.53,4.31-3.6,1.87-7.17,3.78-10.76,5.67l-6.51,3.44,2.87,2.19c.5-.3,1-.6,1.42-.86,1.63-.91,3.28-1.78,4.89-2.71,4.17-2.41,8.3-4.86,12.48-7.24,4.77-2.71,9.57-5.37,14.36-8,2.17-1.21,4.32-2.45,6.52-3.62,5.3-2.8,10.77-5.27,16.19-7.82,2.45-1.15,4.87-2.35,7.29-3.53a5.81,5.81,0,0,0,.58-.36Zm-79.1,18.74c-.44-.35-.85-.73-1.32-1a3.43,3.43,0,0,0-2-.63,3.65,3.65,0,0,0-2.68,1.48,13.08,13.08,0,0,0-2.61,4.82,52.9,52.9,0,0,0-2.77,14.85c0,.2,0,.4,0,.75a29.82,29.82,0,0,1,8.49-4.76,29.84,29.84,0,0,1,0-3.55c.24-1.85.65-3.67,1-5.5A34.51,34.51,0,0,1,178.12,92.08Zm11.79,14.19c.89-2.61,1.78-5.12,2.59-7.66a12.48,12.48,0,0,0,.33-6.56,3.47,3.47,0,0,0-2.56-2.73,2,2,0,0,0-2.65.91,9.5,9.5,0,0,0-1,2.12c-1.24,3.74-2.33,7.52-3.21,11.37-.11.48-.19,1-.31,1.57C185.53,105,187.68,105.7,189.91,106.27Zm4.85,3.62c.46.43.45.42.79.24q2-1.11,4-2.21c.75-.42,1.52-.83,2.28-1.24,1.06-.58,2.12-1.18,3.2-1.74,2.87-1.49,5.77-3,8.64-4.46,2.39-1.26,4.75-2.57,7.13-3.83,1.65-.88,3.33-1.69,5-2.56,2.17-1.14,4.31-2.37,6.51-3.46,4.11-2,8.28-4,12.4-6,2.3-1.13,4.61-2.24,6.81-3.57,1.76-1.06,3.59-2,5.4-3,.61-.32,1.29-.51,1.66-1.23l-.37-.84c-.47.24-.9.47-1.34.67l-11.49,5.45c-6.49,3.09-12.89,6.36-19.16,9.87-3.3,1.84-6.59,3.71-9.89,5.56-3,1.68-5.94,3.33-8.89,5-3.16,1.82-6.3,3.67-9.46,5.5C196.9,108.7,195.86,109.27,194.76,109.89Zm-12.22-4.6a.87.87,0,0,0,.08-.23A28.52,28.52,0,0,1,184,97.19c.54-1.87,1-3.74,1.53-5.62a.86.86,0,0,0-.07-.66,3.34,3.34,0,0,0-4.78-.22,7.41,7.41,0,0,0-1.57,2.53,37.71,37.71,0,0,0-1.71,5.91c-.36,2-.87,4-1.29,6-.15.73-.27,1.46-.41,2.25A40.39,40.39,0,0,1,182.54,105.29Zm20.9,21c.12-.09.17-.11.21-.15a19.33,19.33,0,0,0,3.51-5.3,6.92,6.92,0,0,0,.72-3.69,2.43,2.43,0,0,0-.47-1.27,4.3,4.3,0,0,0-4.54-1.61,10.13,10.13,0,0,0-3.38,1.69.74.74,0,0,0-.37.94c.25,1.07.49,2.15.67,3.24.14.85.17,1.72.27,2.57s.23,1.65.34,2.48c0,.26.13.45.43.51C201.72,125.92,202.61,126.13,203.44,126.32ZM181,162.69a16,16,0,0,0-1.95,4.4,6.24,6.24,0,0,0,1,4.91c.29.42.67.78,1,1.19a3,3,0,0,0,2,1.09c2.5.34,4.63-.61,6.71-2A39.85,39.85,0,0,1,181,162.69ZM169.87,93.35a3.34,3.34,0,0,0-.63.27,8.34,8.34,0,0,0-2.54,2.58,42.85,42.85,0,0,0-2.19,4.33,28.7,28.7,0,0,0-2.1,7.56,14,14,0,0,0,.75,7.26,3.05,3.05,0,0,0,.25.43l2.68-3c-.05-.24-.11-.45-.14-.66a18.17,18.17,0,0,1,.27-6.45c.39-1.85.89-3.67,1.3-5.52a21.28,21.28,0,0,1,2.28-6.46A1.43,1.43,0,0,0,169.87,93.35ZM155.51,69.18c.61.27,1.12.45,1.59.71,1.39.78,2.77,1.58,4.14,2.38.59.34,1.15.71,1.73,1.06a6.36,6.36,0,0,0,.85.47A54.92,54.92,0,0,1,175,80.72a27,27,0,0,1,3.08,3c.8.84,1.5,1.77,2.23,2.66l.56.69,1.7-1c-.15-.21-.26-.39-.4-.56a34.87,34.87,0,0,0-4.39-4.54,72.6,72.6,0,0,0-9-6.91,66,66,0,0,0-8.61-4.32c-1-.45-2-.77-3-1.19a.8.8,0,0,0-1,.18C155.93,68.84,155.74,69,155.51,69.18Zm50.72,43.28a6,6,0,0,0,0-1,16.29,16.29,0,0,0-.91-3.35,3.09,3.09,0,0,0-1.51-1.77l-8.14,4.53a13.9,13.9,0,0,1,2.82,4.48A12.1,12.1,0,0,1,206.23,112.46Zm4.53,18.23a36.74,36.74,0,0,1,8.4,9.9,8.89,8.89,0,0,0,.42-1.14c.14-.68.24-1.37.34-2.07a9,9,0,0,0-2.37-7.53,2.16,2.16,0,0,0-1.39-.75A7.43,7.43,0,0,0,210.76,130.69ZM138.39,42c-.14.36-.25.67-.39,1a7.29,7.29,0,0,1-.69,1.18,3.09,3.09,0,0,1-3.22,1A2.64,2.64,0,0,1,132,43a6.55,6.55,0,0,1-.19-1.6,12.38,12.38,0,0,1,.66-3.48,21.44,21.44,0,0,0-4.64-1.67,1.69,1.69,0,0,0,0,.32c0,.14,0,.27,0,.41a14.42,14.42,0,0,0,1.52,5.26,8.23,8.23,0,0,0,6,4.54,5.76,5.76,0,0,0,3.51-.08c1-.41,1.88-.93,2.82-1.4,0,0,0-.08.08-.16A19.55,19.55,0,0,0,138.39,42ZM270.2,38.32a2.71,2.71,0,0,0-.3-.13A4.9,4.9,0,0,0,265.08,40a3.34,3.34,0,0,0-.49,1.43.91.91,0,0,0,1,1c1.1-.15,2.19-.33,3.19-.48A6.19,6.19,0,0,0,270.2,38.32Zm-132.58,3a29.91,29.91,0,0,0-4.29-2.86c0,.91,0,1.72,0,2.52a5,5,0,0,0,1,3.18c.5.59.84.63,1.44.13A7.24,7.24,0,0,0,137.62,41.36Zm148.14-1.27c.14.08.16.1.18.1l2.11,0c1.73-.07,1.13.17,2.26-1.15a3.11,3.11,0,0,0,.67-1.62c0-.3,0-.5-.29-.58a2.71,2.71,0,0,0-2.42.06,8.38,8.38,0,0,0-1.42,1.07A3,3,0,0,0,285.76,40.09Zm-5.21-2.5a3.7,3.7,0,0,0-4.14,1c-.75.75-1.12,1.49-.12,2.58,1-.15,2,0,2.8-.89A5.6,5.6,0,0,0,280.55,37.59Zm-2.07,23.86c.35.4.65.73.94,1.09s.58.76.87,1.15l1-.51c1.94-1,2-1.07,2.62-3.15a3.88,3.88,0,0,0,.1-.61,4.29,4.29,0,0,0-3.12,1.85c-.1.17-.16.41-.38.3a.76.76,0,0,1-.33-.46,3.61,3.61,0,0,1,0-.75ZM194.17,90.6c.5-1.73-.18-3-1.63-3.23a6,6,0,0,0-1.52-.13A5.3,5.3,0,0,0,188,88.75C190.57,88.6,192.59,88.86,194.17,90.6Zm102.5-51.18a10.29,10.29,0,0,0,3.46-.65,3.78,3.78,0,0,0,.17-.6,1,1,0,0,0-1-1.26,2.81,2.81,0,0,0-2.53,1.68A2.83,2.83,0,0,0,296.67,39.42Zm15-1.5V36.78c-1.84-.94-4.05-.08-4.16,1.63ZM166.2,95.24c1.93-1.75,1.93-1.75,3.78-2.44l.13-1.29a2.22,2.22,0,0,0-2.38.56A6.22,6.22,0,0,0,166.2,95.24ZM263,72.51l8.2-4C268.81,68.56,264.29,70.76,263,72.51Zm-8.18-7.8c-.73-.95-1.36-1.82-2.06-2.63a4.25,4.25,0,0,0-1.17-.82c-.11-.07-.33.06-.5.09a1.52,1.52,0,0,0,.2.47c.45.53.94,1,1.38,1.56s.88,1.14,1.33,1.72Zm-108-11.21a10.91,10.91,0,0,0-2.9,2.71l1.26.68ZM256.86,68.72l-1.69-3.36-.73.41c.61,1.14,1.17,2.21,1.75,3.32Zm-.33,1.12c.36.8.67,1.49,1,2.24l.72-.41-1.06-2.21Zm2.83,4.55-.71-1.85-.78.48.72,1.85Zm-.45,1.23a8.33,8.33,0,0,1,.32,1.23c0,.31.14.48.4.49s.39-.25.41-.5a2.53,2.53,0,0,0-.43-1.58ZM286.8,56l-.05,0s0,0-.06,0,0,0,.05,0S286.78,56,286.8,56Z"/><path class="cls-10" d="M193.25,199.51c1-2.64,1.52-5.4,2.27-8.11a32,32,0,0,0,1-5.57,3.73,3.73,0,0,1,.1-.39c.23.34.43.59.58.87a25.26,25.26,0,0,0,4.58,5.75,20.55,20.55,0,0,0,4.75,3.64,28.72,28.72,0,0,0,5.48,2.18,31.86,31.86,0,0,0,4.45.89,8.93,8.93,0,0,0,5.38-.74,8,8,0,0,1,1.38-.46,7.75,7.75,0,0,0,2.33-1.26,25.08,25.08,0,0,0,5.31-5.33,30,30,0,0,0,4.67-8.66,56,56,0,0,0,1.93-5.92,45.5,45.5,0,0,0,.74-4.63,53.57,53.57,0,0,0,.12-8.59c0-1-.19-1.88-.27-2.83a18.49,18.49,0,0,0-.66-4.38,39.4,39.4,0,0,0-1.56-4.08,17.52,17.52,0,0,0-4.9-6.17c-.93-.76-2-1.37-3.12-2.13,0-.16,0-.48,0-.8a27,27,0,0,0-.95-8,34.61,34.61,0,0,0-.9-3.36,32,32,0,0,0-4.16-7.66,26.37,26.37,0,0,0-7.85-7.06,8.29,8.29,0,0,0-3.74-1.21,9.87,9.87,0,0,0-1.32-2,9.55,9.55,0,0,0-2-1.12c-.12-2.87.41-2.13-1.65-6.89.73-.36,1.48-.72,2.21-1.1,4.4-2.31,8.79-4.64,13.21-6.93q6.18-3.23,12.4-6.36c3.53-1.77,7.1-3.45,10.64-5.19,1.94-1,3.9-1.88,5.8-2.9s3.73-2.19,5.62-3.24c1.15-.65,2.34-1.22,3.52-1.82a1.83,1.83,0,0,1,.47-.14,1.79,1.79,0,0,0,1.63-2.42c-.05-.21-.09-.42-.15-.67.37-.21.71-.42,1.07-.6,3.25-1.65,6.52-3.26,9.75-5a6.27,6.27,0,0,1,3.77-.86,15.53,15.53,0,0,1,3.33.62c1.56.54,3.08,1.17,4.61,1.77l.46.15c1.87-2.86,4.43-5,6.81-7.39a58.18,58.18,0,0,0,6.64-7.22,27.83,27.83,0,0,1,2-2.48,8.33,8.33,0,0,1,1.43-1.07c.57.5,1.08,1,1.63,1.41a24.43,24.43,0,0,0,2,1.49,5.6,5.6,0,0,0,4.87.76,15.42,15.42,0,0,0,5.66-2.88c2.16-1.86,3.81-4.06,4-7a12.34,12.34,0,0,1,.3-1.68,13.22,13.22,0,0,0-.4-5.93,9.76,9.76,0,0,0-.37-1.16.78.78,0,0,0-.88-.53c-1.56.09-3.13.14-4.74.2-.1-.3-.25-.65-.34-1-.45-1.78-3-2.42-4.47-1.2a2.75,2.75,0,0,0-1,2.66l.1.69-5.8.47c0-.28,0-.52,0-.75a3.6,3.6,0,0,0-2-3.08,2.45,2.45,0,0,0-3.23,2.2,15.74,15.74,0,0,0,.32,2.18,29.64,29.64,0,0,1-3.77.31,11.55,11.55,0,0,0,.22-1.31,3.5,3.5,0,0,0-2.81-3.7,4.37,4.37,0,0,0-4.62,2.13,3.12,3.12,0,0,0-.12,2.65c.07.2.15.4.23.61a2.75,2.75,0,0,1-.27.07l-3.47.35a5.64,5.64,0,0,1,.28-.7,1.78,1.78,0,0,0,0-1.85,4.29,4.29,0,0,0-5.93-1.73,5.83,5.83,0,0,0-1.13.78,1.78,1.78,0,0,0-.31,2.59c.34.48.73.94,1.17,1.49l-3.64.29a2.47,2.47,0,0,1,.07-.4,1.92,1.92,0,0,0-.2-2.07,10.65,10.65,0,0,0-1.43-1.64,2.91,2.91,0,0,0-1.29-.61,5.74,5.74,0,0,0-4.74,1.14A3.88,3.88,0,0,0,263,40a1.2,1.2,0,0,0,.16.84,10.75,10.75,0,0,0,1,1.18c.11.13.25.24.45.43L260,43.1a7,7,0,0,0-.8.12,1.24,1.24,0,0,0-1,1.11,5.84,5.84,0,0,1-.41,1.46c-.28.9-.55,1.81-.85,2.7-.23.69-.52,1.37-.76,2-1,2.69-1.92,5.39-2.91,8.07a8.59,8.59,0,0,1-.87,1.64,1.36,1.36,0,0,1-.63.44c-.45.19-.94.28-1.13.83,0,.12-.24.19-.37.27-2.31,1.57-4.89,2.65-7.3,4-1,.56-2,.93-3,1.46-1.18.65-2.31,1.4-3.49,2.06-3.76,2.13-7.63,4.06-11.57,5.83-3.23,1.46-6.44,2.93-9.64,4.44-1,.48-2,1.14-3,1.68-1.87,1-3.77,2-5.65,3-2.27,1.2-4.54,2.41-6.82,3.58-1.1.57-2.23,1.09-3.36,1.62a5.46,5.46,0,0,1-.66.23c0-.3-.07-.53-.09-.76a2.35,2.35,0,0,0-1-1.69,5.72,5.72,0,0,0-4.35-1.16,4.47,4.47,0,0,0-1.4.58,14.38,14.38,0,0,0-1.22.89,3.63,3.63,0,0,0-4.43-1.76c-.74-.91-1.48-1.8-2.19-2.71a27,27,0,0,0-3.8-3.76,71.52,71.52,0,0,0-7.51-5.8,49.79,49.79,0,0,0-6-3.32c-1.17-.56-2.37-1-3.56-1.57A3.22,3.22,0,0,1,158.56,67a1.81,1.81,0,0,1-.12-1.26,16.54,16.54,0,0,0,.34-2,9.84,9.84,0,0,0-.29-3.7,6.16,6.16,0,0,1,1.81-6.22,4.72,4.72,0,0,1,1.88-1.08,4.42,4.42,0,0,0,2.3-1.71,67.68,67.68,0,0,0,4.76-7.34,10.17,10.17,0,0,0,.64-1.48,2.83,2.83,0,0,0,.13-1.12c-.06-.79-.53-1-1.2-.61a4.79,4.79,0,0,1-4.58.34,7.07,7.07,0,0,1-2.39-1.65,15.62,15.62,0,0,1-3.26-4.51c-.88-2-1.83-3.92-2.63-5.92-.6-1.46-1-3-1.53-4.51a22,22,0,0,0-3.73-7c-.48-.58-.92-1.2-1.38-1.8a18.1,18.1,0,0,0-3.78-3.53c-.5-.37-1-.73-1.48-1.14a5.28,5.28,0,0,0-2-1,18.56,18.56,0,0,0-5.29-.63,6.81,6.81,0,0,0-5.29,2.58,13.19,13.19,0,0,0-3.41,7.73,10.6,10.6,0,0,0-.06,2.18,22.44,22.44,0,0,0,.58,2.47c-9-.86-16.21,2.94-22.62,9L103.82,32c-1.32-.67-2.64-1.35-4-2a5,5,0,0,0-.92-.32.53.53,0,0,0-.65.7,3.13,3.13,0,0,0,.24.6c.54,1,1.1,2,1.64,3,.76,1.42,1.56,2.83,2.27,4.29a53.61,53.61,0,0,0,3.38,6.18c.09.14.16.28.23.41a17.31,17.31,0,0,0-1,7.57c-1,1-.92,1-1.29,2.61a28.72,28.72,0,0,0,.85,15.2c.28.87.61,1.72.93,2.62l-1.68.57c-1-.51-2-1.06-3-1.45a18.58,18.58,0,0,0-9.27-1,25.91,25.91,0,0,0-11.69,4.47,45.79,45.79,0,0,0-7.24,6.23A29.2,29.2,0,0,0,68.75,87a16.75,16.75,0,0,0-1.21,2.82c-.62,1.87-1.17,3.76-1.72,5.65a12.23,12.23,0,0,0-.4,4.09,22.21,22.21,0,0,0,.59,4.81,25.73,25.73,0,0,0,1.55,5c-1,2-2.13,4-3,6a58.08,58.08,0,0,0-3.8,10.74c-.28,1.35-.77,2.64-1.18,4a55.12,55.12,0,0,0-1.86,8.71c-.19,1.42-.41,2.84-.58,4.26-.31,2.52-.68,5-.86,7.56-.13,1.92,0,3.85,0,5.77,0,.72.13,1.45.21,2.23l-4.05,2c-4.77,2.35-9.59,4.6-14.3,7.07-5.62,2.95-11.2,6-16.69,9.16-3.61,2.08-7.07,4.41-10.52,6.74S4.06,188.46.64,190.87c-.13.09-.28.16-.41.25L0,190.9v-6.18c.29-.19.57-.37.85-.57C2.44,183,4,182,5.55,180.82c1.19-.88,2.34-1.81,3.49-2.75a44.62,44.62,0,0,1,6.37-4.54c1.72-1,3.39-2,5.08-3,1.05-.62,2.11-1.21,3.16-1.82l4.21-2.41c.66-.37,1.34-.69,2-1.06,1.41-.79,2.79-1.65,4.23-2.38s3-1.32,4.44-2c.52-.22,1-.47,1.54-.7,1.12-.47,2.22-1,3.36-1.39a10.82,10.82,0,0,1,2.53-.51,13.34,13.34,0,0,0,5-1.63,1.88,1.88,0,0,0,1-1.36,17,17,0,0,0,.49-3.27c0-1,.08-2.1.15-3.14.36-5.71.08-11.42.15-17.12A23,23,0,0,1,54,125c.76-2.39,1.49-4.79,2.34-7.16.49-1.39,1.2-2.7,1.78-4.07a9.91,9.91,0,0,1,1.66-2.66,1.23,1.23,0,0,0,.25-.75,31.26,31.26,0,0,0,0-3.49,50.65,50.65,0,0,0-.86-6c-.26-1.2-.41-2.43-.59-3.66s-.32-2.39-.47-3.59a5.42,5.42,0,0,1,0-.57c0-1.16.05-2.33,0-3.49A13.08,13.08,0,0,1,59.16,84a23,23,0,0,1,2.08-4.11,16.85,16.85,0,0,1,4.28-4.7c1-.73,2.19-1.21,3.14-2s1.92-1.38,2.9-2a10.29,10.29,0,0,1,3.38-1.5c1.15-.27,2.25-.75,3.39-1a13.84,13.84,0,0,1,2.85-.5c2.73-.12,5.46-.15,8.18-.18,2.47,0,4.93,0,7.4,0,.82,0,1-.15,1.09-1a.22.22,0,0,1,0-.08c0-1.16.16-2.32.14-3.47,0-1-.2-2-.27-3,0-.81,0-1.62,0-2.44,0-.42-.08-.85-.12-1.28a1.94,1.94,0,0,1,0-.48,34.2,34.2,0,0,1,1.1-6.51,21.81,21.81,0,0,1,1.26-3.5,5.2,5.2,0,0,0,.16-3.48,40.83,40.83,0,0,0-2.34-7.3c-.84-2.1-1.68-4.21-2.41-6.35a10.4,10.4,0,0,1-.39-5.34,1.61,1.61,0,0,1,.91-1.16A5.25,5.25,0,0,1,98.06,22a3.63,3.63,0,0,1,1.71.38c1.39.71,2.73,1.54,4.1,2.28s2.59,1.33,3.89,2a1,1,0,0,0,1.42-.32c.65-.82,1.38-1.59,2-2.43a15.14,15.14,0,0,1,4-3.61c.45-.3.93-.55,1.36-.87a5.26,5.26,0,0,1,3.34-1,37,37,0,0,0,4.59-.34.55.55,0,0,0,.55-.49c.1-.55.24-1.1.29-1.66A22.38,22.38,0,0,1,126.64,10a17.1,17.1,0,0,1,1.29-2.52c.6-1.06,1.27-2.07,1.89-3.12a4.15,4.15,0,0,1,1.73-1.54c.71-.38,1.41-.79,2.12-1.18a2,2,0,0,1,.36-.17c1.56-.44,3.11-.87,4.68-1.28a5.39,5.39,0,0,1,.81,0A40.31,40.31,0,0,0,144.05,0a4.86,4.86,0,0,1,1.66.25,8,8,0,0,1,2.66,1.15,22.61,22.61,0,0,0,2.25,1.29,8.1,8.1,0,0,1,3.81,4.41c.63,1.5,1.24,3,2,4.45s1.74,3.1,2.62,4.65c.3.54.62,1.08.91,1.63.94,1.82,1.84,3.67,2.83,5.46.73,1.35,1.57,2.65,2.37,4a2.51,2.51,0,0,0,.35.44,40.52,40.52,0,0,0,4.9,4.35,31.61,31.61,0,0,1,4.07,3.69,6.06,6.06,0,0,1,1.56,4c.09,1.53.17,3.07.16,4.61a9,9,0,0,1-1.84,5.73,18,18,0,0,0-2.69,4.59A10,10,0,0,0,171,58c-.06,1.57,0,3.14,0,4.71a9.12,9.12,0,0,0,.57,2.92,6.09,6.09,0,0,0,2.09,2.54,13.76,13.76,0,0,0,4,2.27,1.92,1.92,0,0,1,.29.14c1.34.57,2.72,1.06,4,1.74a33.06,33.06,0,0,0,5.37,1.76c1.84.6,3.68,1.22,5.54,1.78a12.82,12.82,0,0,0,2.06.33c.29,0,.6,0,.89,0a10.44,10.44,0,0,0,5.28-1,21.92,21.92,0,0,1,4.57-1.31c1-.21,1.94-.47,2.89-.75a37.94,37.94,0,0,1,4.68-1.24,13.93,13.93,0,0,0,3.93-1.18,19.16,19.16,0,0,1,2.09-.87c1.17-.41,2.36-.74,3.52-1.18,1.79-.68,3.6-1.33,5.33-2.16,2.6-1.25,5.16-2.59,7.68-4,1.79-1,3.66-1.85,5.52-2.69a17.51,17.51,0,0,0,6-4.32,20.83,20.83,0,0,0,1.55-2.17c.84-1.25,1.64-2.54,2.51-3.77a24.21,24.21,0,0,0,3-6.43A30,30,0,0,1,257,37.54c.4-.68.74-1.39,1.14-2.06,1.06-1.78,2.12-3.57,3.24-5.31a10.85,10.85,0,0,1,1.39-1.57,5.65,5.65,0,0,1,2.73-1.13,8.48,8.48,0,0,1,1.43-.19l4.4-.54c.32,0,.64-.1,1-.1,1.74,0,3.47,0,5.2,0a7.06,7.06,0,0,1,4.5,1.56A16.94,16.94,0,0,0,287.22,31a1.56,1.56,0,0,0,.54.15,25.32,25.32,0,0,1,3,.48,8.63,8.63,0,0,0,3.41-.55,13.07,13.07,0,0,1,2-.39c.4-.05.81,0,1.22,0a29.45,29.45,0,0,0,5.69-.58,14.37,14.37,0,0,1,4.58-.39,12.43,12.43,0,0,0,3.44-.36c1.19-.24,2.37-.51,3.55-.75a3,3,0,0,1,3.14,1.54A13.13,13.13,0,0,1,319,33.3c.45,1.64.93,3.27,1.42,4.9a15.36,15.36,0,0,1,.71,4.36c0,2.41,0,4.82,0,7.23a6.63,6.63,0,0,1-1.58,4.38,23.1,23.1,0,0,1-3.75,3.31,7.43,7.43,0,0,0-.78.57,7.52,7.52,0,0,1-3.2,1.64,5.53,5.53,0,0,1-1.67.24c-1.79,0-3.58,0-5.36,0a4.82,4.82,0,0,1-2-.5,7.5,7.5,0,0,0-4-.6,1.32,1.32,0,0,0-.85.41c-.87.92-1.71,1.87-2.52,2.84-1.34,1.61-2.12,3.57-3.31,5.27-.8,1.15-1.62,2.28-2.47,3.4a25.85,25.85,0,0,1-3.27,3.59,12.5,12.5,0,0,1-1.76,1.41,3.86,3.86,0,0,1-3.64.33,9.67,9.67,0,0,0-2.66-.93c-.3,0-.59-.09-.88-.09h-6.1a4,4,0,0,0-2.35.73,12.67,12.67,0,0,0-2.82,2.65c-1.3,1.62-2.6,3.23-4,4.8a36.85,36.85,0,0,1-2.79,2.8,9.53,9.53,0,0,1-3.27,1.73c-1.1.38-2.17.84-3.27,1.19s-2.49.69-3.73,1.06a9.78,9.78,0,0,0-1.5.6,23.53,23.53,0,0,0-4.55,2.59,12.71,12.71,0,0,1-2.72,1.58,67.35,67.35,0,0,0-9.22,5.37c-1.57,1-3.25,1.92-4.85,2.92-1.09.69-2.15,1.43-3.19,2.2s-1.88,1.53-2.84,2.27a7.77,7.77,0,0,0-3.1,5.29c0,.32-.12.64-.16,1-.19,1.42.64,2.46,1.39,3.51a18.78,18.78,0,0,0,4.41,3.88c.46.34.83.77,1.26,1.14.7.59,1.38,1.21,2.12,1.74a19.5,19.5,0,0,1,3.81,3.25,10.09,10.09,0,0,1,2.62,5.71c.1,1.26.17,2.53.33,3.78a34.28,34.28,0,0,0,.64,3.89,4.77,4.77,0,0,0,1,2c.9,1,1.6,2.17,2.41,3.24a10.54,10.54,0,0,0,1.81,2,12.19,12.19,0,0,1,4.36,6.18c.66,2.27,1.32,4.55,1.89,6.85a26.87,26.87,0,0,1,.4,3.12c.1.82.19,1.65.29,2.48a2.6,2.6,0,0,1,0,.4c0,1.79.09,3.58,0,5.36a14.7,14.7,0,0,1-1,4.56c-.56,1.4-1,2.87-1.47,4.28a24.13,24.13,0,0,1-2,4.52c-1.25,2-2.35,4-3.65,5.93-1.62,2.39-3.12,4.85-4.57,7.34a2.47,2.47,0,0,0-.19.6Z"/><path class="cls-11" d="M.21,191.88a21.07,21.07,0,0,0,2-1c2.47-1.51,4.91-3.06,7.37-4.58,4.12-2.53,8.22-5.11,12.39-7.55,6.79-4,13.71-7.7,20.73-11.25,5.81-2.94,11.67-5.78,17.44-8.78s11.75-6.24,17.58-9.42c3.87-2.1,7.67-4.32,11.53-6.46,4.89-2.71,9.77-5.43,14.72-8.05s10-5.08,14.92-7.65c3.74-1.94,7.44-4,11.17-5.93,3-1.6,6-3.23,9-4.78,4.38-2.25,8.78-4.42,13.17-6.64,1.23-.63,2.41-1.33,3.63-2a9.82,9.82,0,0,1,1.56-.68,12.32,12.32,0,0,0,4.21-2.36,1.51,1.51,0,0,1,.35-.2.52.52,0,0,0,.11.1c-.31,1.51-.64,3-.93,4.52a.74.74,0,0,1-.5.66c-.6.24-1.19.5-1.78.78l-4.57,2.27c-4.3,2.15-8.61,4.28-12.9,6.47-2,1-4,2.21-6.05,3.28-4.71,2.49-9.41,5-14.14,7.43-3.31,1.72-6.68,3.32-10,5.06q-10,5.29-19.94,10.67Q84.69,149.42,78,153c-3.06,1.67-6.15,3.29-9.14,5.07-3.55,2.12-7,4.38-10.51,6.59-3.13,2-6.26,4-9.37,6-2.49,1.62-5,3.3-7.42,4.95-2.18,1.46-4.41,2.85-6.52,4.4-2,1.41-3.75,3-5.65,4.5s-3.81,2.86-5.73,4.26c-.72.52-1.52.93-2.26,1.43s-1.58,1.14-2.36,1.72a1.34,1.34,0,0,0-.43.46.7.7,0,0,0,0,.6.65.65,0,0,0,.55.15,3.18,3.18,0,0,0,.88-.4,131.47,131.47,0,0,0,13.06-9.05,122.11,122.11,0,0,1,10.66-7.41c1.78-1.13,3.49-2.36,5.26-3.51q4.64-3,9.29-5.95c3.33-2.12,6.64-4.26,10-6.3,3.07-1.85,6.21-3.61,9.35-5.35q8.13-4.5,16.29-8.91,7.38-4,14.79-7.91c6.24-3.28,12.53-6.47,18.76-9.78,4.13-2.19,8.18-4.52,12.29-6.75,2.16-1.18,4.37-2.26,6.55-3.4,2.77-1.45,5.55-2.91,8.31-4.4,1.9-1,3.77-2.11,5.65-3.17l.66-.33.18,3.16a13.54,13.54,0,0,1-1.18.86c-.79.47-1.62.87-2.41,1.34l-6.24,3.77c-4.33,2.61-8.61,5.31-13,7.81q-6.87,3.92-13.9,7.54c-5.88,3-11.84,5.9-17.76,8.87-2.63,1.32-5.25,2.66-7.84,4.07-4.32,2.35-8.58,4.8-12.9,7.15-4.56,2.48-9.17,4.86-13.71,7.36-3,1.66-6,3.42-8.87,5.23q-8.31,5.13-16.55,10.39c-3.76,2.39-7.49,4.84-11.21,7.3-2.56,1.68-5.07,3.42-7.62,5.1A27.77,27.77,0,0,1,25.41,192a19.89,19.89,0,0,0-3.74,2.41c-.21.18-.46.39-.3.68a1.86,1.86,0,0,0,.61.57c.11.07.32,0,.47,0a2.41,2.41,0,0,0,.51-.25c1.74-1,3.51-2,5.22-3.12,2.91-1.86,5.77-3.82,8.68-5.69q7.78-5,15.6-9.94c4.34-2.74,8.74-5.4,13.11-8.09,5.62-3.46,11.44-6.56,17.24-9.68,4.09-2.21,8.1-4.57,12.17-6.82q4-2.21,8.07-4.32,5.11-2.64,10.27-5.19,11.12-5.52,21.91-11.63,7.17-4,14.09-8.52c3.52-2.28,7-4.57,10.53-6.86.54-.35,1.06-.74,1.57-1.11l1.36,2.29a3.4,3.4,0,0,1-1.13,1.26,52.25,52.25,0,0,1-4.61,3.17c-5.53,3.07-11,6.18-16.55,9.27-5.31,3-10.6,6-15.93,8.87-6.93,3.79-13.89,7.51-20.82,11.29-4.29,2.34-8.55,4.74-12.84,7.09-3.7,2-7.44,4-11.13,6q-3.45,1.91-6.81,3.94c-5.43,3.29-10.87,6.57-16.25,9.95-2.74,1.73-5.39,3.61-8,5.49-4.3,3.06-8.64,6-13.16,8.77-1.23.74-2.47,1.45-3.69,2.2a11.18,11.18,0,0,0-1,.73.55.55,0,0,0-.11.85c.21.29.44.48.81.27.64-.36,1.28-.71,1.9-1.08,4.72-2.77,9.3-5.74,13.8-8.84,2.91-2,5.8-4.07,8.78-6,4.44-2.84,8.95-5.58,13.44-8.34,6.52-4,13.18-7.76,19.9-11.43,5.22-2.84,10.43-5.71,15.65-8.55,4.94-2.69,9.9-5.32,14.83-8q8.39-4.6,16.72-9.3c4.85-2.73,9.7-5.46,14.52-8.25,2.31-1.34,4.59-2.76,6.82-4.24,1.18-.79,2.24-1.77,3.36-2.67.16-.13.31-.28.61-.55,0,1,0,1.77,0,2.58s.19,1.6.29,2.41c-5.37,2.35-10.52,5.21-15.8,7.8-4.4,2.14-8.82,4.24-13.15,6.5-4,2.07-7.88,4.28-11.77,6.51q-6.69,3.84-13.28,7.83c-5.58,3.4-11.1,6.92-16.67,10.34-3.55,2.18-7.14,4.29-10.71,6.43-4.19,2.53-8.37,5.08-12.57,7.58s-8.69,5.05-13,7.63c-3.51,2.09-7,4.27-10.45,6.38-4,2.43-8.08,4.83-12.11,7.26-.87.53-1.72,1.12-2.57,1.68H.2Z"/><path class="cls-12" d="M33.51,199.51c.39-.26.78-.54,1.19-.79L49.29,190l9.53-5.71q7.73-4.62,15.44-9.25c4.75-2.86,9.51-5.7,14.24-8.58,5.28-3.23,10.52-6.52,15.81-9.74q8.35-5.07,16.76-10.05c5.35-3.15,10.77-6.21,16.33-9q4.38-2.19,8.72-4.46,6.21-3.25,12.38-6.57c1.31-.7,2.6-1.44,4-2.2l.6,2.13c-1,.55-1.91,1.14-2.9,1.62-2.5,1.21-5.05,2.34-7.55,3.57-5.79,2.85-11.6,5.66-17.32,8.65-5.05,2.64-10,5.42-15,8.26-5.44,3.13-10.81,6.37-16.18,9.61-4.66,2.8-9.27,5.66-13.91,8.5l-13.62,8.35c-6.27,3.84-12.55,7.66-18.81,11.52q-7.66,4.71-15.3,9.48c-1.58,1-3.14,2-4.71,3-.12.08-.4.09-.24.37Z"/><path class="cls-10" d="M.21,191.88v7.63c-.32,0-.16-.22-.16-.32q0-3.66,0-7.32Z"/><path class="cls-13" d="M106.05,73.92c.55,1,1,2,1.57,2.84.89,1.38,1.85,2.72,2.79,4.08a4,4,0,0,0,.44.48,2.78,2.78,0,0,0,2,1c1.31,0,2.62.35,3.93.5a9.67,9.67,0,0,0,1.86.06c2.7-.24,5.41-.38,8.07-.83,2.36-.4,4.67-1.15,7-1.75,1.12-.29,2.23-.61,3.4-.93.39,2.76,1.58,5.15,2.49,7.63a92.08,92.08,0,0,1,3.47,10.37c.3,1.26.6,2.52,1,3.76a4.89,4.89,0,0,0,.65,1.29c.35.55.89.53,1.45.38a1.11,1.11,0,0,0,.93-1.09c0-1,0-2,0-3A46,46,0,0,0,145.68,90,60.3,60.3,0,0,0,143,81.48c-.28-.7-.49-1.43-.74-2.14-.17-.48-.36-1-.56-1.48l1.09-.4c.11.2.23.38.31.57,1.34,3.19,2.69,6.37,4,9.57,1.21,3,2.45,5.89,3.53,8.88a38.19,38.19,0,0,1,1.61,6c.24,1.34.34,2.72.55,4.08.05.37.14.74.22,1.18-1,.5-1.91,1-2.88,1.48-3.06,1.49-6.16,2.91-9.19,4.46-4.48,2.28-8.91,4.66-13.37,7-5.8,3-11.62,6-17.42,9.05a1,1,0,0,1-1.17-.11,72.6,72.6,0,0,1-6.23-5.53,31.74,31.74,0,0,1-4.13-5,25,25,0,0,1-2-3.45c-1.06-2.16-2.12-4.32-3.05-6.54a46,46,0,0,1-2.88-9.61,29.17,29.17,0,0,1-.24-7.92,13.32,13.32,0,0,1,2.39-6.11,38.49,38.49,0,0,1,7.22-7.75A15.46,15.46,0,0,1,102.22,76C103.43,75.27,104.71,74.65,106.05,73.92Z"/><path class="cls-13" d="M195.38,176.23a6.83,6.83,0,0,0,1.76,0,10.68,10.68,0,0,0,3.3-1.49,58.13,58.13,0,0,0,5.79-4.57,42.18,42.18,0,0,0,3.91-4c1.51-1.88,3.07-3.71,4.53-5.63a36.4,36.4,0,0,0,4-6.76,22.39,22.39,0,0,0,.81-2.11c.42-1.2.88-2.39,1.21-3.61a5.52,5.52,0,0,0-.11-4.34,27.83,27.83,0,0,1,2.86.45,28.31,28.31,0,0,1,3.36,1.15,9.79,9.79,0,0,1,3,2.1,17.08,17.08,0,0,1,3.13,4.22,28.52,28.52,0,0,1,2.52,6.29,11.36,11.36,0,0,1,.36,2.07,71.29,71.29,0,0,1,.47,7.45,40.37,40.37,0,0,1-1.24,9.86c-.42,1.62-1.06,3.18-1.61,4.76-.17.48-.38,1-.55,1.44a27.7,27.7,0,0,1-6.49,10.17A19.8,19.8,0,0,1,221.8,197a2.35,2.35,0,0,1-.7.2,15.23,15.23,0,0,1-7-.67,35.15,35.15,0,0,1-6.53-2.64,24.63,24.63,0,0,1-4.83-3.67c-.34-.31-.66-.64-1-.95a13.2,13.2,0,0,1-2.68-3.64,38.56,38.56,0,0,1-2.85-6.52C196,178.22,195.69,177.29,195.38,176.23Z"/><path class="cls-13" d="M105,53.5c1.69-.42,3.28-.84,4.88-1.23a31.14,31.14,0,0,1,6.59-.77c2.22-.07,4.44-.11,6.65,0a44.62,44.62,0,0,1,5.14.67,51.8,51.8,0,0,1,12.06,3.7c1.07.47,2.08,1,3.1,1.6a81.48,81.48,0,0,1,7.34,4.31,2.59,2.59,0,0,0,.29.14c.57-.74.51-1.36-.25-1.82-1.26-.75-2.54-1.44-3.81-2.17l-1-.56c.53-1.22,1-2.42,1.57-3.59a1.63,1.63,0,0,1,1.56-.94,6.87,6.87,0,0,1,2.64.29,6.64,6.64,0,0,1,4.2,3.41,15.9,15.9,0,0,1,1.42,5.54c0,.67.19,1.33.19,2A4.68,4.68,0,0,1,155.8,68a7.32,7.32,0,0,0-.66.59A28.43,28.43,0,0,1,149.72,73a33.6,33.6,0,0,1-8.6,4.13c-.73.2-1.42.52-2.15.72-1.95.53-3.91,1-5.87,1.55a48.24,48.24,0,0,1-10,1.57c-1.65.08-3.29.28-4.94.39a21.3,21.3,0,0,1-2.26,0c-1.14,0-2.27-.14-3.4-.19a3.63,3.63,0,0,0-.75.14,2.67,2.67,0,0,1-.31-.36c-2.14-3.57-4.32-7.13-5.58-11.14a30.46,30.46,0,0,1-1.57-11A49.07,49.07,0,0,1,105,53.5Z"/><path class="cls-13" d="M193.25,109.93c-.13.34-.62.56-.16,1l.8-.32a7.67,7.67,0,0,1,2,2.31,20.7,20.7,0,0,1,2.85,7.18c.13.69.13,1.4.22,2.09.18,1.42.35,2.84.58,4.25A3.4,3.4,0,0,1,199,129a43.86,43.86,0,0,1-2.8,4.46,19.74,19.74,0,0,1-8.36,5.95,28.49,28.49,0,0,1-7,1.84c-.1,0-.22.07-.32,0a12.33,12.33,0,0,1-3.17-.88,36.83,36.83,0,0,1-10.62-9.3,19.47,19.47,0,0,1-3.55-7.05,17.32,17.32,0,0,1-.71-5.68,2,2,0,0,1,.45-1.17,29.14,29.14,0,0,1,13.05-9c1.84-.63,3.67-1.28,5.53-1.84a10,10,0,0,1,4.34-.35,14.07,14.07,0,0,1,3.77,1.21A14.49,14.49,0,0,1,193.25,109.93Z"/><path class="cls-14" d="M281.27,52.92c-.62.46-1.27.88-1.86,1.38a48.19,48.19,0,0,1-6,4.15c-4,2.53-8.13,5-12,7.66-1,.72-2.19,1.28-3.37,2l-1.59-3.26,2.86-1.7a62.86,62.86,0,0,0,6.16-4.05,19.43,19.43,0,0,1,2.17-1.44,69.09,69.09,0,0,0,6.74-4.79,15.28,15.28,0,0,0,1.43-1.39.82.82,0,0,0-.82.28,77.51,77.51,0,0,1-7.85,5.47c-1.32.78-2.52,1.77-3.83,2.58-2.22,1.39-4.48,2.72-6.72,4.08a6,6,0,0,1-.55.24c-.92-1.1-1.59-2.39-2.79-3.17a41.85,41.85,0,0,0,2.9-7.15c.3-1.06.78-2.07,1.1-3.13.37-1.21.65-2.45,1-3.67.22-.77.54-1.52.81-2.28a.64.64,0,0,1,.61-.44c2.82-.34,5.63-.73,8.45-1,3-.32,6-.55,9-.83,2.69-.25,5.38-.53,8.08-.75,1.51-.12,3-.09,4.54-.22,3.07-.26,6.13-.6,9.2-.9,1.4-.14,2.8-.23,4.19-.41,2.44-.3,4.88-.69,7.32-1,1.58-.2,3.16-.33,4.75-.45.8-.07,1.61,0,2.5-.07a11.45,11.45,0,0,1,.06,3.7c-.16,1.15-.39,2.29-.62,3.43a11.56,11.56,0,0,1-2,4.47,11.73,11.73,0,0,1-4.66,3.92c-.51.24-1,.55-1.52.76a4.87,4.87,0,0,1-4-.39,2.69,2.69,0,0,1-.68-.43c-.8-.68-1.58-1.39-2.37-2.09l3.25-2.24a5.53,5.53,0,0,0,.79-.34c.5-.31,1-.65,1.47-1a.8.8,0,0,0,.68-.49l-.66.2-2.6,1.44-3.42,1.85c-.88-.73-1.44-1.82-2.6-2.33a4.45,4.45,0,0,0-.18.56,18.11,18.11,0,0,1-1.37,4,1.58,1.58,0,0,1-.67.66c-1.66,1-3.35,1.86-5,2.82-1.1.64-2.16,1.35-3.23,2l-.87-1.2a9,9,0,0,1,1.86-2,41.79,41.79,0,0,1,5.12-4,1.48,1.48,0,0,0,.4-.39,26.39,26.39,0,0,0-4.85,2.09l-.18-.18.21-.29,1.1-.92c.36-.31.71-.64,1.06-1A8.77,8.77,0,0,0,289.79,53c-2.55,1.76-5.09,3.55-7.66,5.28-1.39.94-2.84,1.78-4.22,2.64l-1.46-.79a1.59,1.59,0,0,0-1.81.24,3,3,0,0,0-1.1,1.57c-.16.54-.28,1.09-.44,1.73-4.55,2.39-9.28,4.63-13.78,7.43l-.95-2.28c.55-.31,1.1-.6,1.62-.92,1.21-.76,2.42-1.54,3.62-2.31,1.82-1.17,3.65-2.33,5.45-3.51,2.69-1.76,5.39-3.52,8.05-5.32a28.16,28.16,0,0,0,2.23-1.86l2.14-1.75a16.32,16.32,0,0,0,3-2.56.56.56,0,0,0-.38.12Zm12.56-2.73-.85.45a1.13,1.13,0,0,0-.66.46l.12.15.66-.46c.27-.18.67-.18.73-.61l.09-.09Zm18-3.6c1.38,0,3.24-1.44,2.77-3.3a2.94,2.94,0,0,0-4.66-1.75,3.24,3.24,0,0,0-1.2,2.2A1.94,1.94,0,0,0,310,46.16C310.58,46.35,311.19,46.45,311.79,46.59Zm-44.61,1h-.41a2.78,2.78,0,0,0-2.34,1.94,6.39,6.39,0,0,0,0,1.45,1,1,0,0,0,.92,1,2.88,2.88,0,0,0,3.46-2.65C268.91,48.08,268.45,47.54,267.18,47.61Zm19.6.71a2.21,2.21,0,0,0,1.56-.68A1.53,1.53,0,0,0,287.8,45a5,5,0,0,0-.94-.23,1.92,1.92,0,0,0-2.48,1.46,1.1,1.1,0,0,0,.57,1.48C285.54,48,286.17,48.13,286.78,48.32Zm12.74-3a1.94,1.94,0,0,0-.86-1.93,2.14,2.14,0,0,0-2.76.33,2.24,2.24,0,0,0-.64,2.7,1.2,1.2,0,0,0,.84.69,3,3,0,0,0,2.42-.29A1.69,1.69,0,0,0,299.52,45.32Zm-21.4,2.75c0-.93-.43-1.39-1.35-1.29a2.24,2.24,0,0,0-2.07,2.61,1,1,0,0,0,1.2,1A2.09,2.09,0,0,0,278.12,48.07Z"/><path class="cls-15" d="M178.82,144.09c1.46,1.07,3.07.64,4.59.46a19.93,19.93,0,0,0,5.55-1.44,19.68,19.68,0,0,0,11-11.66,15,15,0,0,0,.64-4.32c0-.1,0-.2,0-.37a4.5,4.5,0,0,1,.63.15,28.16,28.16,0,0,1,6.87,3.6,39,39,0,0,1,8,7.56,25,25,0,0,1,3.39,5.71,4.9,4.9,0,0,1,.25,2.06,8.55,8.55,0,0,1-.46,2.29c-.69,2-1.36,3.94-2.22,5.83a34.4,34.4,0,0,1-5,7.93c-1.1,1.3-2.18,2.61-3.29,3.91a46.89,46.89,0,0,1-6.73,6.33c-1.05.84-2.16,1.62-3.25,2.42-.2.14-.42.24-.63.36a1.34,1.34,0,0,1-1.57-.1c-.69-.47-1.48-.78-2.2-1.21a30.9,30.9,0,0,1-6.46-4.86c-.55-.56-1.13-1.09-1.67-1.66a32.63,32.63,0,0,1-6.66-10.76,24,24,0,0,1-1.39-6.4,15.07,15.07,0,0,1,.33-5.23A5.55,5.55,0,0,1,178.82,144.09Zm22.31,18.47a5.47,5.47,0,0,0,.81,0,7.57,7.57,0,0,0,2.1-.48,9.79,9.79,0,0,0,3.21-2.58,8.83,8.83,0,0,0,1.66-3,12.25,12.25,0,0,0,.52-3.76,8.88,8.88,0,0,0-1.11-4.27,8.7,8.7,0,0,0-6.54-4.45,6.53,6.53,0,0,0-4.18.62,14,14,0,0,0-5.4,5.48,6.53,6.53,0,0,0-.6,1.67c-.17.62-.22,1.28-.38,1.91a4.23,4.23,0,0,0,.33,3.44,2.13,2.13,0,0,1,.14.38,8.48,8.48,0,0,0,3.13,3.63A11.21,11.21,0,0,0,201.13,162.56Z"/><path class="cls-13" d="M87.56,94.87l.06,1.27A20.65,20.65,0,0,0,89,102.85c1.11,2.84,2.14,5.72,3.31,8.54a44.11,44.11,0,0,0,3.56,7.19,30.64,30.64,0,0,0,5.07,6.19,54.1,54.1,0,0,0,4.31,3.69c1,.73,2,1.39,3,2L78.69,146.62c-.15-.7-.33-1.43-.46-2.16-.42-2.42-.86-4.84-1.23-7.27a18.5,18.5,0,0,1-.25-3.32,54.52,54.52,0,0,1,.78-8.64c.17-.93.42-1.84.64-2.76l1.62-6.77c.19-.76.35-1.53.57-2.28,1.19-4.13,2.37-8.26,3.86-12.29a36.56,36.56,0,0,1,3.14-6.29Z"/><path class="cls-13" d="M102.25,73.91c0,.06,0,.1,0,.11a22,22,0,0,0-4,2.94,22.06,22.06,0,0,0-2.78,2.6c-1.66,1.85-3.31,3.72-4.81,5.7a21,21,0,0,0-2.18,3.87,14.78,14.78,0,0,0-.64,2.5,4.45,4.45,0,0,1-.42,1C86,95,84.55,97.24,83.25,99.58a21.82,21.82,0,0,0-1,2.81c-.84,2.28-1.75,4.54-2.54,6.84a82.18,82.18,0,0,0-2.79,10c-.05.2-.11.4-.19.67-.32-.43-.62-.77-.87-1.15a11.43,11.43,0,0,0-2-2.13,12.25,12.25,0,0,1-2.54-3.14c-.65-1.21-1.28-2.44-1.89-3.68a19.77,19.77,0,0,1-1.83-7.09,14.75,14.75,0,0,1,0-4.35c.22-1.09.51-2.15.78-3.22.17-.68.4-1.35.56-2a21,21,0,0,1,3.39-7.3,34.94,34.94,0,0,1,10.79-10A21.89,21.89,0,0,1,90,73.24a24.89,24.89,0,0,1,6.61-.47,12.4,12.4,0,0,1,1.93.22c1.09.21,2.16.49,3.24.75C102,73.78,102.1,73.85,102.25,73.91Z"/><path class="cls-13" d="M67.9,111.46c.56.87,1.07,1.63,1.53,2.42a18.31,18.31,0,0,0,3.49,3.81c1,1,2,2,3,3.08a1.69,1.69,0,0,1,.39,1.56,60.35,60.35,0,0,0-1,13.41,64,64,0,0,0,.84,6.6c.18,1.11.48,2.21.76,3.31.14.57.36,1.12.58,1.77-6.06,3.46-12.24,6.82-18.61,10a6.21,6.21,0,0,1-.2-.9c-.11-2.4-.23-4.8-.3-7.2a23.17,23.17,0,0,1,.15-2.35,81,81,0,0,1,1.8-13.08c.56-2.33,1.39-4.6,2-6.93.81-3.09,2-6.06,3-9.06.65-1.86,1.47-3.67,2.2-5.5C67.67,112.14,67.77,111.84,67.9,111.46Z"/><path class="cls-13" d="M156.88,57.09c-1.61-4.4-4.51-6.79-9.42-6.07-.6-.89-1.17-1.81-1.83-2.65a56.25,56.25,0,0,0-6-6.83,33.42,33.42,0,0,0-5.8-4.14,19.69,19.69,0,0,0-7.18-2.63c-2-.32-4-.64-6-.92a24.36,24.36,0,0,0-5.66,0,13.8,13.8,0,0,0-5.23,1.52l-3-1.88.84-.58c1.18-.81,2.39-1.58,3.54-2.43a40.23,40.23,0,0,1,4.67-2.6,24.36,24.36,0,0,1,8.68-2.48,22.34,22.34,0,0,1,5.1.1,34.24,34.24,0,0,1,8.13,1.78A25.07,25.07,0,0,1,141.26,29c1.56.86,3.11,1.75,4.6,2.73a20.79,20.79,0,0,1,2.28,1.93,10.44,10.44,0,0,0,.76.73A9.74,9.74,0,0,1,151.41,37c1.25,1.86,2.54,3.7,3.75,5.58a16.76,16.76,0,0,1,1.52,4.09c.24.74.5,1.48.74,2.22a2.9,2.9,0,0,1,.18.62,18.87,18.87,0,0,1,.05,5.09c-.14.83-.4,1.65-.61,2.47Z"/><path class="cls-13" d="M167.58,41.81a26.47,26.47,0,0,1-7.09,10.33,5.11,5.11,0,0,1-2,1.17c-.08-.93-.15-1.8-.23-2.68a11.54,11.54,0,0,0-.46-2.79c-.5-1.36-.91-2.76-1.43-4.12a13.83,13.83,0,0,0-1.26-2.63,21.55,21.55,0,0,0-2.07-3,30,30,0,0,1-2.17-2.93,8.63,8.63,0,0,0-2-2,13.4,13.4,0,0,1-1.25-1.14,13.24,13.24,0,0,0-1.71-1.48,43.32,43.32,0,0,0-9.51-4.86c-1.92-.62-3.94-.92-5.91-1.36-.29-.07-.58-.12-.88-.17a26.39,26.39,0,0,1,.21-6.35,14.27,14.27,0,0,1,3.26-6.53A4.66,4.66,0,0,1,137,9.7a13.28,13.28,0,0,1,3.81.69,3.45,3.45,0,0,1,.94.47c1.41,1.08,2.82,2.18,4.2,3.32a7.12,7.12,0,0,1,1.16,1.34q1.47,2,2.89,4a9.58,9.58,0,0,1,1.18,2.65c.41,1.25,1,2.46,1.37,3.72a71.61,71.61,0,0,0,3.52,8.88,13.81,13.81,0,0,0,5.8,6.38,6,6,0,0,0,2.8.71C165.65,41.91,166.62,41.84,167.58,41.81Z"/><path class="cls-11" d="M193.18,102.16c.08-.39.12-.59.18-.79.4-1.54.81-3.08,1.21-4.62a1.31,1.31,0,0,1,.72-1c5.22-2.67,10.45-5.33,15.62-8.08,5.9-3.12,11.89-6,17.91-8.92,2.51-1.19,5-2.49,7.45-3.77q7.66-4,15.32-8c.64-.33,1.32-.61,2.08-1l1.88,3.38-2.19,1.17-16.27,8.41Q228,83.73,219,88.42c-3.26,1.69-6.52,3.4-9.77,5.1-3,1.58-6,3.14-9,4.76-1.64.88-3.22,1.88-4.83,2.81C194.67,101.46,194,101.76,193.18,102.16Z"/><path class="cls-11" d="M251,62.23l2.2,3.15a3.09,3.09,0,0,1-.31.25c-5.23,2.52-10.38,5.21-15.53,7.88-4.87,2.53-9.8,4.93-14.75,7.3S212.8,85.74,208,88.32c-3.84,2-7.72,4-11.58,6-.45.23-.92.42-1.49.67,0-.61,0-1.13,0-1.65s-.13-1.07-.18-1.45a8.08,8.08,0,0,0,.8-1.21,1.22,1.22,0,0,1,.67-.65c.66-.29,1.33-.59,2-.86,2.81-1.14,5.45-2.63,8.15-4,1.88-1,3.83-1.78,5.63-2.87,4.22-2.56,8.78-4.41,13.23-6.49,4-1.85,7.91-3.75,11.74-5.86.66-.37,1.29-.79,2-1.16,1-.58,2.09-1.13,3.14-1.68,1.44-.76,2.86-1.55,4.32-2.23a32,32,0,0,0,4.14-2.38C250.6,62.44,250.75,62.37,251,62.23Z"/><path class="cls-16" d="M123.45,49.9a64.28,64.28,0,0,0-13.32.27c0-.07-.11-.15-.16-.24-1-1.67-1.93-3.38-3-5A85.28,85.28,0,0,1,102.55,37c-.82-1.64-1.78-3.21-2.69-4.81L99,30.63a3.23,3.23,0,0,1,.57.18c1.11.63,2.22,1.25,3.31,1.9,2.87,1.68,5.72,3.39,8.58,5.08a54.65,54.65,0,0,1,7.6,5.12,13,13,0,0,1,4.1,5.82C123.28,49.08,123.34,49.45,123.45,49.9Z"/><path class="cls-17" d="M226.23,142.79a34.4,34.4,0,0,0-5.85-.73,2.46,2.46,0,0,1,.17-.36,7,7,0,0,0,1.25-2.7,9.18,9.18,0,0,0,.37-4,7.66,7.66,0,0,0-1.42-3.48A7.87,7.87,0,0,0,219,129.6a4.84,4.84,0,0,0-1.26-.69,9.74,9.74,0,0,0-4.31-.53,5,5,0,0,0-2.86,1.2c-.16.15-.33.28-.46.39L205,126.65c.26-.38.59-.83.89-1.29,1.15-1.7,2.35-3.36,3.4-5.11a6.13,6.13,0,0,0,.92-3.39c2.22.54,7.1,4.73,9.67,8.09A30.28,30.28,0,0,1,226.23,142.79Z"/><path class="cls-18" d="M191.57,106.05c.38-.93.66-1.71,1-2.46a1.47,1.47,0,0,1,.73-.58,43.44,43.44,0,0,0,5.45-2.85c2.06-1.18,4.18-2.26,6.27-3.38,3.58-1.91,7.15-3.83,10.73-5.72,2-1,4-2,6-3l11.34-6c4.76-2.5,9.51-5,14.28-7.49,2.73-1.43,5.48-2.82,8.22-4.22l.28-.06.93,2.11a2.9,2.9,0,0,1-.34.25c-8.75,4.88-17.57,9.63-26.65,13.89-3.08,1.45-6.2,2.83-9.24,4.34-4.57,2.27-9.18,4.47-13.64,7-3.8,2.12-7.67,4.12-11.5,6.17l-3.28,1.77C192,105.86,191.89,105.91,191.57,106.05Z"/><path class="cls-18" d="M257.22,73.34l.68,1.84a5.81,5.81,0,0,1-.58.36c-2.42,1.18-4.84,2.38-7.29,3.53-5.42,2.55-10.89,5-16.19,7.82-2.2,1.17-4.35,2.41-6.52,3.62-4.79,2.68-9.59,5.34-14.36,8-4.18,2.38-8.31,4.83-12.48,7.24-1.61.93-3.26,1.8-4.89,2.71-.47.26-.92.56-1.42.86l-2.87-2.19,6.51-3.44c3.59-1.89,7.16-3.8,10.76-5.67,2.83-1.46,5.67-2.91,8.53-4.31,3.81-1.87,7.66-3.66,11.47-5.51,6.66-3.23,13.3-6.5,19.77-10.1,2.65-1.47,5.32-2.9,8-4.34Z"/><path class="cls-17" d="M178.12,92.08a34.51,34.51,0,0,0-1.86,6.42c-.33,1.83-.74,3.65-1,5.5a29.84,29.84,0,0,0,0,3.55,29.82,29.82,0,0,0-8.49,4.76c0-.35,0-.55,0-.75a52.9,52.9,0,0,1,2.77-14.85,13.08,13.08,0,0,1,2.61-4.82,3.65,3.65,0,0,1,2.68-1.48,3.43,3.43,0,0,1,2,.63C177.27,91.35,177.68,91.73,178.12,92.08Z"/><path class="cls-17" d="M189.91,106.27c-2.23-.57-4.38-1.26-6.79-1,.12-.6.2-1.09.31-1.57.88-3.85,2-7.63,3.21-11.37a9.5,9.5,0,0,1,1-2.12,2,2,0,0,1,2.65-.91,3.47,3.47,0,0,1,2.56,2.73,12.48,12.48,0,0,1-.33,6.56C191.69,101.15,190.8,103.66,189.91,106.27Z"/><path class="cls-12" d="M194.76,109.89c1.1-.62,2.14-1.19,3.17-1.78,3.16-1.83,6.3-3.68,9.46-5.5,3-1.69,5.93-3.34,8.89-5,3.3-1.85,6.59-3.72,9.89-5.56,6.27-3.51,12.67-6.78,19.16-9.87l11.49-5.45c.44-.2.87-.43,1.34-.67l.37.84c-.37.72-1,.91-1.66,1.23-1.81,1-3.64,1.9-5.4,3-2.2,1.33-4.51,2.44-6.81,3.57-4.12,2-8.29,4-12.4,6-2.2,1.09-4.34,2.32-6.51,3.46-1.65.87-3.33,1.68-5,2.56-2.38,1.26-4.74,2.57-7.13,3.83-2.87,1.51-5.77,3-8.64,4.46-1.08.56-2.14,1.16-3.2,1.74-.76.41-1.53.82-2.28,1.24q-2,1.1-4,2.21C195.21,110.31,195.22,110.32,194.76,109.89Z"/><path class="cls-17" d="M182.54,105.29a40.39,40.39,0,0,0-6.85,2.1c.14-.79.26-1.52.41-2.25.42-2,.93-4,1.29-6a37.71,37.71,0,0,1,1.71-5.91,7.41,7.41,0,0,1,1.57-2.53,3.34,3.34,0,0,1,4.78.22.86.86,0,0,1,.07.66c-.5,1.88-1,3.75-1.53,5.62a28.52,28.52,0,0,0-1.37,7.87A.87.87,0,0,1,182.54,105.29Z"/><path class="cls-17" d="M203.44,126.32c-.83-.19-1.72-.4-2.61-.59-.3-.06-.39-.25-.43-.51-.11-.83-.24-1.65-.34-2.48s-.13-1.72-.27-2.57c-.18-1.09-.42-2.17-.67-3.24a.74.74,0,0,1,.37-.94,10.13,10.13,0,0,1,3.38-1.69,4.3,4.3,0,0,1,4.54,1.61,2.43,2.43,0,0,1,.47,1.27,6.92,6.92,0,0,1-.72,3.69,19.33,19.33,0,0,1-3.51,5.3S203.56,126.23,203.44,126.32Z"/><path class="cls-19" d="M181,162.69a39.85,39.85,0,0,0,8.81,9.57c-2.08,1.41-4.21,2.36-6.71,2a3,3,0,0,1-2-1.09c-.31-.41-.69-.77-1-1.19a6.24,6.24,0,0,1-1-4.91A16,16,0,0,1,181,162.69Z"/><path class="cls-17" d="M169.87,93.35a1.43,1.43,0,0,1-.07.36,21.28,21.28,0,0,0-2.28,6.46c-.41,1.85-.91,3.67-1.3,5.52a18.17,18.17,0,0,0-.27,6.45c0,.21.09.42.14.66l-2.68,3a3.05,3.05,0,0,1-.25-.43,14,14,0,0,1-.75-7.26,28.7,28.7,0,0,1,2.1-7.56,42.85,42.85,0,0,1,2.19-4.33,8.34,8.34,0,0,1,2.54-2.58A3.34,3.34,0,0,1,169.87,93.35Z"/><path class="cls-20" d="M155.51,69.18c.23-.2.42-.34.58-.51a.8.8,0,0,1,1-.18c1,.42,2,.74,3,1.19A66,66,0,0,1,168.73,74a72.6,72.6,0,0,1,9,6.91,34.87,34.87,0,0,1,4.39,4.54c.14.17.25.35.4.56l-1.7,1-.56-.69c-.73-.89-1.43-1.82-2.23-2.66a27,27,0,0,0-3.08-3,54.92,54.92,0,0,0-11.13-6.92,6.36,6.36,0,0,1-.85-.47c-.58-.35-1.14-.72-1.73-1.06-1.37-.8-2.75-1.6-4.14-2.38C156.63,69.63,156.12,69.45,155.51,69.18Z"/><path class="cls-21" d="M295.87,55.79c-.72.85-1.39,1.73-2.16,2.52-2.21,2.27-4.48,4.48-6.68,6.75-1.11,1.14-2.13,2.37-3.19,3.56-.15.16-.29.32-.48.55A27.2,27.2,0,0,0,276,66.8l3.61-1.89a8.64,8.64,0,0,0,2.5,3.35c0-1.54-1.05-2.54-1.42-3.88L283.22,63l1.17.49a1.53,1.53,0,0,0,1.94-.56,19.55,19.55,0,0,0,1.46-2.13,2.58,2.58,0,0,1,.94-1c2.08-1.25,4.15-2.52,6.23-3.78.25-.15.54-.25.8-.38Z"/><path class="cls-17" d="M206.23,112.46a12.1,12.1,0,0,0-7.75,2.85,13.9,13.9,0,0,0-2.82-4.48l8.14-4.53a3.09,3.09,0,0,1,1.51,1.77,16.29,16.29,0,0,1,.91,3.35A6,6,0,0,1,206.23,112.46Z"/><path class="cls-19" d="M210.76,130.69a7.43,7.43,0,0,1,5.4-1.59,2.16,2.16,0,0,1,1.39.75,9,9,0,0,1,2.37,7.53c-.1.7-.2,1.39-.34,2.07a8.89,8.89,0,0,1-.42,1.14A36.74,36.74,0,0,0,210.76,130.69Z"/><path class="cls-22" d="M138.39,42a19.55,19.55,0,0,1,3.29,3.19c0,.08-.05.14-.08.16-.94.47-1.86,1-2.82,1.4a5.76,5.76,0,0,1-3.51.08,8.23,8.23,0,0,1-6-4.54A14.42,14.42,0,0,1,127.78,37c0-.14,0-.27,0-.41a1.69,1.69,0,0,1,0-.32A21.44,21.44,0,0,1,132.44,38a12.38,12.38,0,0,0-.66,3.48A6.55,6.55,0,0,0,132,43a2.64,2.64,0,0,0,2.12,2.11,3.09,3.09,0,0,0,3.22-1,7.29,7.29,0,0,0,.69-1.18C138.14,42.65,138.25,42.34,138.39,42Z"/><path class="cls-21" d="M269,66.77c1.07-.56,2.18-1.08,3.21-1.71.57-.36,1.27-.37,1.81-.83a15.16,15.16,0,0,1,1.87-1.12c.6-.36,1.19-.74,1.81-1.12a8.62,8.62,0,0,1,1.54,2.22l-1,.61c-1.14.61-2.28,1.23-3.43,1.82a1.69,1.69,0,0,1-.84.21,18.84,18.84,0,0,0-4.44.09Z"/><path class="cls-21" d="M270.2,38.32a6.19,6.19,0,0,1-1.39,3.56c-1,.15-2.09.33-3.19.48a.91.91,0,0,1-1-1,3.34,3.34,0,0,1,.49-1.43,4.9,4.9,0,0,1,4.82-1.78A2.71,2.71,0,0,1,270.2,38.32Z"/><path class="cls-23" d="M137.62,41.36a7.24,7.24,0,0,1-1.82,3c-.6.5-.94.46-1.44-.13a5,5,0,0,1-1-3.18c0-.8,0-1.61,0-2.52A29.91,29.91,0,0,1,137.62,41.36Z"/><path class="cls-21" d="M285.76,40.09a3,3,0,0,1,1.09-2.17,8.38,8.38,0,0,1,1.42-1.07,2.71,2.71,0,0,1,2.42-.06c.26.08.34.28.29.58a3.11,3.11,0,0,1-.67,1.62c-1.13,1.32-.53,1.08-2.26,1.15l-2.11,0S285.9,40.17,285.76,40.09Z"/><path class="cls-24" d="M180.52,89.45c.37-.55.71-1.13,1.14-1.65a3.62,3.62,0,0,1,3-1.4,1.36,1.36,0,0,1,1.15.49,6.86,6.86,0,0,1,.89,1.33,2,2,0,0,1-.28,1.66,3.75,3.75,0,0,1-.83-.3,4.92,4.92,0,0,0-3.76-.31l-1.18.27Z"/><path class="cls-21" d="M280.55,37.59a5.6,5.6,0,0,1-1.46,2.68c-.77.93-1.83.74-2.8.89-1-1.09-.63-1.83.12-2.58A3.7,3.7,0,0,1,280.55,37.59Z"/><path class="cls-24" d="M171.78,90.8a6.11,6.11,0,0,1,2.28-2.67c1.77-1.15,3.38-.53,4.59.86a.89.89,0,0,1,.11.59,3.86,3.86,0,0,1-.23.78,5.39,5.39,0,0,0-2.95-.68,5.21,5.21,0,0,0-3.26,1,2.86,2.86,0,0,1-.42.24Z"/><path class="cls-12" d="M278.48,61.45l1.66-1.09a3.61,3.61,0,0,0,0,.75.76.76,0,0,0,.33.46c.22.11.28-.13.38-.3A4.29,4.29,0,0,1,284,59.42a3.88,3.88,0,0,1-.1.61c-.65,2.08-.68,2.11-2.62,3.15l-1,.51c-.29-.39-.57-.78-.87-1.15S278.83,61.85,278.48,61.45Z"/><path class="cls-24" d="M194.17,90.6c-1.58-1.74-3.6-2-6.21-1.85A5.3,5.3,0,0,1,191,87.24a6,6,0,0,1,1.52.13C194,87.64,194.67,88.87,194.17,90.6Z"/><path class="cls-12" d="M296.67,39.42a2.83,2.83,0,0,1,.07-.83,2.81,2.81,0,0,1,2.53-1.68,1,1,0,0,1,1,1.26,3.78,3.78,0,0,1-.17.6A10.29,10.29,0,0,1,296.67,39.42Z"/><path class="cls-12" d="M311.7,37.92l-4.16.49c.11-1.71,2.32-2.57,4.16-1.63Z"/><path class="cls-25" d="M286.19,56.52l-.73.93a2.49,2.49,0,0,0,.51.45,1,1,0,0,1,.55,1.21A3.44,3.44,0,0,1,285.46,61c0-.41.05-.65.09-.89a.83.83,0,0,0-.61-1c-.65-.19-1.33-.3-2.07-.46l3.31-2.37Z"/><path class="cls-24" d="M166.2,95.24a6.22,6.22,0,0,1,1.53-3.17,2.22,2.22,0,0,1,2.38-.56L170,92.8C168.13,93.49,168.13,93.49,166.2,95.24Z"/><path class="cls-25" d="M263,72.51c1.3-1.75,5.82-4,8.2-4Z"/><path class="cls-25" d="M254.81,64.71l-.82.39c-.45-.58-.87-1.17-1.33-1.72s-.93-1-1.38-1.56a1.52,1.52,0,0,1-.2-.47c.17,0,.39-.16.5-.09a4.25,4.25,0,0,1,1.17.82C253.45,62.89,254.08,63.76,254.81,64.71Z"/><path class="cls-20" d="M146.78,53.5l-1.64,3.39-1.26-.68A10.91,10.91,0,0,1,146.78,53.5Z"/><path class="cls-25" d="M256.86,68.72l-.67.37c-.58-1.11-1.14-2.18-1.75-3.32l.73-.41Z"/><path class="cls-25" d="M262.38,70.56,260.69,73a7.5,7.5,0,0,0-.36.74L259.72,72a20.9,20.9,0,0,1,2.45-1.47c.05,0,.14.05.21.08Z"/><path class="cls-25" d="M256.53,69.84l.66-.38,1.06,2.21-.72.41C257.2,71.33,256.89,70.64,256.53,69.84Z"/><path class="cls-25" d="M259.36,74.39l-.77.48L257.87,73l.78-.48Z"/><path class="cls-25" d="M258.91,75.62l.7-.36a2.53,2.53,0,0,1,.43,1.58c0,.25-.11.51-.41.5s-.38-.18-.4-.49A8.33,8.33,0,0,0,258.91,75.62Z"/><path class="cls-26" d="M281.27,52.92l2.83-2.25a.56.56,0,0,1,.38-.12,16.32,16.32,0,0,1-3,2.56Z"/><path class="cls-25" d="M274.94,62.53a3.65,3.65,0,0,1,1.42-1.39c.27-.17.55-.24.77.23A6.38,6.38,0,0,1,275,62.52Z"/><path class="cls-26" d="M304.9,49.55l2.6-1.44,0,.29c-.49.33-1,.67-1.47,1a5.53,5.53,0,0,1-.79.34Z"/><path class="cls-26" d="M289.79,53a8.77,8.77,0,0,1,2.49-1.69c-.35.32-.7.65-1.06,1l-1.1.92Z"/><path class="cls-16" d="M269,66.77l.49.17-.91.29c-.08,0-.16,0-.29-.1Z"/><path class="cls-16" d="M289.91,53.44l.18.18-.81.47,0-.07Z"/><path class="cls-27" d="M286.19,56.52v-.28l.34-.22.1.12Z"/><path class="cls-24" d="M171.9,90.92l-.24.13.12-.25Z"/><path class="cls-16" d="M289.28,54.09l-.19.12.15-.19Z"/><path class="cls-24" d="M180.6,89.54l-.11.1,0-.19Z"/><path class="cls-25" d="M262.38,70.57l0-.11,0,.1Z"/><path class="cls-11" d="M162,104.6l.13-.09c0,.07,0,.13,0,.19A.52.52,0,0,1,162,104.6Z"/><path class="cls-27" d="M286.8,56s0,0-.06,0,0,0-.05,0,0-.05.06,0Z"/><path class="cls-21" d="M295.76,55.69l.15-.11,0,.21Z"/><polygon class="cls-25" points="274.96 62.52 274.97 62.55 274.95 62.53 274.96 62.52"/><path class="cls-28" d="M311.79,46.59c-.6-.14-1.21-.24-1.8-.43a1.94,1.94,0,0,1-1.29-2.42,3.24,3.24,0,0,1,1.2-2.2,2.94,2.94,0,0,1,4.66,1.75C315,45.15,313.17,46.61,311.79,46.59Zm1.81-3.29c-.17-.39-.34-.77-.5-1.17a.68.68,0,0,0-.87-.38,2.73,2.73,0,0,0-1.82,3.87A.63.63,0,0,0,311,46,2.64,2.64,0,0,0,313.6,43.3Z"/><path class="cls-28" d="M267.18,47.61c1.27-.07,1.73.47,1.62,1.72A2.88,2.88,0,0,1,265.34,52a1,1,0,0,1-.92-1,6.39,6.39,0,0,1,0-1.45,2.78,2.78,0,0,1,2.34-1.94ZM268.4,49a2.48,2.48,0,0,0-3.59,1.86A3,3,0,0,0,268.4,49Z"/><path class="cls-29" d="M286.78,48.32c-.61-.19-1.24-.34-1.83-.58a1.1,1.1,0,0,1-.57-1.48,1.92,1.92,0,0,1,2.48-1.46,5,5,0,0,1,.94.23,1.53,1.53,0,0,1,.54,2.61A2.21,2.21,0,0,1,286.78,48.32Zm.59-3c-.44,0-1,.05-1.08.45a2.53,2.53,0,0,0-.07,2C287.51,47.53,288,46.6,287.37,45.3Z"/><path class="cls-30" d="M299.52,45.32a1.69,1.69,0,0,1-1,1.5,3,3,0,0,1-2.42.29,1.2,1.2,0,0,1-.84-.69,2.24,2.24,0,0,1,.64-2.7,2.14,2.14,0,0,1,2.76-.33A1.94,1.94,0,0,1,299.52,45.32ZM296.72,47a10.21,10.21,0,0,0,1.29-.55,1.3,1.3,0,0,0,.53-.67,2.4,2.4,0,0,0-.31-2c-.19-.31-.47-.4-.74-.19a6.64,6.64,0,0,0-1.27,1.21,1.13,1.13,0,0,0,.08,1.55A5.21,5.21,0,0,1,296.72,47Z"/><path class="cls-30" d="M278.12,48.07a2.09,2.09,0,0,1-2.22,2.34,1,1,0,0,1-1.2-1,2.24,2.24,0,0,1,2.07-2.61C277.69,46.68,278.13,47.14,278.12,48.07Zm-3,1a2,2,0,0,0,2.42-.72c-.38-.18-.73-.3-1.06.12-.1.13-.34.14-.51.21Z"/><path class="cls-27" d="M293.83,50.18c-.06.43-.46.43-.73.61l-.12-.15.85-.45Z"/><path class="cls-27" d="M293.1,50.79l-.66.46-.12-.15a1.13,1.13,0,0,1,.66-.46Z"/><path class="cls-27" d="M307.48,48.4l0-.29.66-.2A.8.8,0,0,1,307.48,48.4Z"/><path class="cls-27" d="M293.83,50.19l.09-.1-.09.09Z"/><path class="cls-29" d="M201.13,162.56a11.21,11.21,0,0,1-6.31-1.45,8.48,8.48,0,0,1-3.13-3.63,2.13,2.13,0,0,0-.14-.38,4.23,4.23,0,0,1-.33-3.44c.16-.63.21-1.29.38-1.91a6.53,6.53,0,0,1,.6-1.67,14,14,0,0,1,5.4-5.48,6.53,6.53,0,0,1,4.18-.62,8.7,8.7,0,0,1,6.54,4.45,8.88,8.88,0,0,1,1.11,4.27,12.25,12.25,0,0,1-.52,3.76,8.83,8.83,0,0,1-1.66,3,9.79,9.79,0,0,1-3.21,2.58,7.57,7.57,0,0,1-2.1.48A5.47,5.47,0,0,1,201.13,162.56Zm-1.12-.75a5,5,0,0,0,3.46-.9c.15-.11.33-.18.49-.28a7.51,7.51,0,0,0,3.2-4.26,13.23,13.23,0,0,0,.43-4.49,8.55,8.55,0,0,0-3.07-6.21,3.78,3.78,0,0,0-1.62-.85,5.41,5.41,0,0,0-3.2.28,8.2,8.2,0,0,0-3.45,2.48,25.16,25.16,0,0,0-1.63,2.21,5.57,5.57,0,0,0-.93,4.84,4.67,4.67,0,0,1,.08,1.13,4.26,4.26,0,0,0,.09.8,8,8,0,0,0,2.08,3.85,3.79,3.79,0,0,0,2.46,1.25C198.94,161.69,199.47,161.76,200,161.81Z"/><path class="cls-18" d="M313.6,43.3A2.64,2.64,0,0,1,311,46a.63.63,0,0,1-.57-.37,2.73,2.73,0,0,1,1.82-3.87.68.68,0,0,1,.87.38C313.26,42.53,313.43,42.91,313.6,43.3Z"/><path class="cls-25" d="M268.4,49a3,3,0,0,1-3.59,1.86A2.48,2.48,0,0,1,268.4,49Z"/><path class="cls-25" d="M287.37,45.3c.59,1.3.14,2.23-1.15,2.45a2.53,2.53,0,0,1,.07-2C286.41,45.35,286.93,45.33,287.37,45.3Z"/><path class="cls-12" d="M296.72,47a5.21,5.21,0,0,0-.42-.66,1.13,1.13,0,0,1-.08-1.55,6.64,6.64,0,0,1,1.27-1.21c.27-.21.55-.12.74.19a2.4,2.4,0,0,1,.31,2,1.3,1.3,0,0,1-.53.67A10.21,10.21,0,0,1,296.72,47Z"/><path class="cls-25" d="M275.11,49l.85-.39c.17-.07.41-.08.51-.21.33-.42.68-.3,1.06-.12A2,2,0,0,1,275.11,49Z"/><path class="cls-31" d="M200,161.81c-.54-.05-1.07-.12-1.61-.15a3.79,3.79,0,0,1-2.46-1.25,8,8,0,0,1-2.08-3.85,4.26,4.26,0,0,1-.09-.8,4.67,4.67,0,0,0-.08-1.13,5.57,5.57,0,0,1,.93-4.84,25.16,25.16,0,0,1,1.63-2.21,8.2,8.2,0,0,1,3.45-2.48,5.41,5.41,0,0,1,3.2-.28,3.78,3.78,0,0,1,1.62.85,8.55,8.55,0,0,1,3.07,6.21,13.23,13.23,0,0,1-.43,4.49,7.51,7.51,0,0,1-3.2,4.26c-.16.1-.34.17-.49.28A5,5,0,0,1,200,161.81Z"/></g></g></svg>